<svg width="41" height="40" viewBox="0 0 41 40" fill="none" xmlns="http://www.w3.org/2000/svg">
<g id="Binance svg" clip-path="url(#clip0_1_842)">
<g id="Group">
<path id="Vector" d="M9.70669 20L5.22669 24.48L0.666687 20L5.22669 15.44L9.70669 20ZM20.6667 9.04L28.4267 16.8L32.9867 12.24L20.6667 0L8.42669 12.24L12.9867 16.8L20.6667 9.04ZM36.1067 15.44L31.6267 20L36.1867 24.56L40.6667 20L36.1067 15.44ZM20.6667 30.96L12.9067 23.2L8.34669 27.76L20.6667 40L32.9067 27.76L28.4267 23.2L20.6667 30.96ZM20.6667 24.48L25.2267 19.92L20.6667 15.44L16.1067 20L20.6667 24.48Z" fill="#F0B90B"/>
</g>
</g>
<defs>
<clipPath id="clip0_1_842">
<rect width="40" height="40" fill="white" transform="translate(0.666687)"/>
</clipPath>
</defs>
</svg>
