<svg width="24" height="24" viewBox="0 0 24 24" fill="none" xmlns="http://www.w3.org/2000/svg">
<g id="domain 1" clip-path="url(#clip0_630_10789)">
<path id="Vector" d="M22.8398 12.0117C22.8398 17.9985 17.9866 22.8517 12 22.8517C6.01337 22.8517 1.16016 17.9985 1.16016 12.0117C1.16016 6.02509 6.01337 1.17188 12 1.17188C17.9866 1.17188 22.8398 6.02509 22.8398 12.0117Z" fill="#80E0DC"/>
<path id="Vector_2" d="M22.8398 12.0117C22.8398 17.9985 17.9868 22.8517 11.9999 22.8517C10.8916 22.8517 9.82172 22.6853 8.81445 22.376C9.27954 22.4368 9.7536 22.4683 10.2355 22.4683C16.2224 22.4683 21.0756 17.6151 21.0756 11.6285C21.0756 6.75018 17.8533 2.625 13.4212 1.26416C18.7364 1.96033 22.8398 6.50702 22.8398 12.0117Z" fill="#00A8B0"/>
<path id="Vector_3" d="M17.6512 17.2637C18.6943 14.7806 18.9688 11.9654 18.3946 9.20618C18.2186 8.35931 17.9681 7.54285 17.6462 6.76117C18.1282 6.66028 18.601 6.54565 19.0635 6.41748C19.5775 6.27502 20.2434 6.07672 20.8835 5.7973C20.7404 5.59332 20.5906 5.39429 20.4335 5.20093C19.8838 5.42706 19.3173 5.59479 18.8698 5.71912C18.3732 5.85681 17.8647 5.97821 17.3447 6.08258C17.0405 5.44592 16.6868 4.8349 16.2836 4.25244C15.4807 3.091 14.5144 2.08942 13.4011 1.26178H13.4008C13.2189 1.23816 13.0362 1.2193 12.8516 1.20483C12.5828 1.18396 12.3107 1.17279 12.0366 1.17242H12.0361C12.0352 1.17188 12.0346 1.17188 12.0337 1.17188H11.967C11.9659 1.17188 11.9656 1.17188 11.9645 1.17242H11.9641C11.69 1.17279 11.4179 1.18396 11.1491 1.20483C10.9645 1.2193 10.7818 1.23816 10.6 1.26178H10.5994C9.48633 2.08942 8.52008 3.091 7.71698 4.25244C7.30573 4.84698 6.94501 5.47119 6.63721 6.12231C5.60376 5.9187 4.5639 5.62537 3.56635 5.20184C3.40961 5.3952 3.25983 5.59387 3.11719 5.79785C4.16528 6.25946 5.25568 6.57953 6.33801 6.80182C6.0238 7.57104 5.77917 8.37433 5.60614 9.20618C5.03485 11.9504 5.30365 14.7497 6.3327 17.2233C5.25183 17.445 4.16364 17.7651 3.11719 18.2258C3.25983 18.4297 3.40961 18.6284 3.56616 18.8218C4.56445 18.3983 5.60468 18.1044 6.63812 17.9013C6.97119 18.5887 7.3656 19.2466 7.82007 19.8664C8.65338 21.0033 9.60846 21.9875 10.6271 22.7657C10.8016 22.7875 10.9775 22.8052 11.1544 22.8193C11.4212 22.8397 11.6915 22.8506 11.9636 22.8512H11.9641C11.965 22.8517 11.9656 22.8517 11.9665 22.8517H12.0342C12.0352 22.8517 12.0357 22.8517 12.0366 22.8512H12.0372C12.3093 22.8508 12.5795 22.8397 12.8463 22.8193C13.0232 22.8052 13.1992 22.7875 13.3737 22.7657C14.3921 21.9873 15.3474 21.0033 16.1807 19.8664C16.6263 19.2583 17.0145 18.614 17.3438 17.9405C17.8638 18.0454 18.3728 18.1668 18.8698 18.3045C19.3173 18.4286 19.8838 18.5966 20.4335 18.8227C20.5906 18.6293 20.7404 18.4303 20.8835 18.2261C20.2436 17.9469 19.5775 17.7486 19.0637 17.606C18.6024 17.4778 18.1317 17.3637 17.6512 17.2637ZM17.6849 9.35413C18.2399 12.0209 17.959 14.74 16.9232 17.1231C16.2458 17.0032 15.5508 16.9098 14.8403 16.8431C15.2265 14.5272 15.327 11.9407 15.1113 9.40155C15.0467 8.63727 14.9544 7.89478 14.8363 7.18085C15.5469 7.1142 16.242 7.02081 16.9193 6.90088C17.2513 7.68256 17.5076 8.50195 17.6849 9.35413ZM12.0004 22.8014C11.4701 22.015 10.9678 20.8958 10.5396 19.5423C10.3367 18.9018 10.1625 18.2173 10.0181 17.4996C10.597 17.4683 11.1535 17.4532 11.677 17.4459C12.4616 17.4353 13.2305 17.4542 13.9823 17.5031C13.8376 18.2194 13.6637 18.9029 13.4612 19.5423C13.0329 20.8958 12.5306 22.015 12.0004 22.8014ZM11.6669 16.7208C11.1061 16.7287 10.5082 16.745 9.88458 16.7809C9.50024 14.5118 9.39935 11.9658 9.61157 9.46289C9.67676 8.69678 9.76959 7.95428 9.88843 7.24274C10.5106 7.27844 11.1075 7.29492 11.6669 7.30261C11.8143 7.30463 11.9612 7.30554 12.1071 7.30554C12.7874 7.30554 13.4559 7.28339 14.1118 7.23889C14.2308 7.95135 14.324 8.69531 14.3893 9.46289C14.6014 11.9672 14.5005 14.5148 14.1152 16.7847C13.3171 16.7305 12.5002 16.7093 11.6669 16.7208ZM12.0004 1.22021C12.8643 2.48273 13.5482 4.33081 13.9808 6.52057C13.2301 6.56927 12.4611 6.58813 11.677 6.57751C11.1539 6.57019 10.5981 6.55536 10.0193 6.52386C10.4517 4.33228 11.1361 2.48328 12.0004 1.22021ZM15.6872 4.66479C16.0309 5.16174 16.3369 5.68048 16.6046 6.21936C15.9869 6.32373 15.3547 6.4054 14.7078 6.46399C14.3868 4.81604 13.9263 3.34424 13.3548 2.14343C14.2432 2.8623 15.0244 3.70587 15.6872 4.66479ZM8.31354 4.66479C8.97638 3.70587 9.75751 2.8623 10.6459 2.14343C10.0732 3.34717 9.61194 4.82281 9.29095 6.47552C8.66931 6.42719 8.02789 6.35669 7.37915 6.25378C7.65088 5.70264 7.96271 5.17236 8.31354 4.66479ZM6.31586 9.35413C6.49036 8.51495 6.74158 7.70782 7.06641 6.93713C7.7785 7.05707 8.48181 7.13782 9.16241 7.19293C9.04541 7.90302 8.95367 8.64166 8.8894 9.40155C8.67426 11.9359 8.77386 14.5186 9.15857 16.8311C8.47797 16.8862 7.77429 16.9669 7.06219 17.0869C6.03882 14.7123 5.76379 12.0073 6.31586 9.35413ZM8.40491 19.4376C8.01782 18.9091 7.67596 18.3508 7.38171 17.7698C8.02881 17.6669 8.6684 17.5963 9.28857 17.5479C9.44183 18.3267 9.62897 19.0688 9.84833 19.7613C10.0426 20.3743 10.3105 21.1251 10.6512 21.8568C9.84247 21.1791 9.08276 20.3622 8.40491 19.4376ZM15.5958 19.4376C14.918 20.3622 14.1583 21.1791 13.3495 21.8568C13.6902 21.1249 13.9581 20.3743 14.1524 19.7613C14.3708 19.0721 14.5569 18.334 14.7101 17.5596C15.355 17.6186 15.9858 17.6997 16.6016 17.8037C16.3112 18.3726 15.9758 18.9194 15.5958 19.4376Z" fill="#00A8B0"/>
<path id="Vector_4" d="M23.4646 14.7502H0.5354C0.239685 14.7502 0 14.5106 0 14.2148V10.9517C0 10.6562 0.239685 10.4165 0.5354 10.4165H23.4646C23.7603 10.4165 24 10.6562 24 10.9517V14.2148C24 14.5106 23.7603 14.7502 23.4646 14.7502Z" fill="#E7E7E7"/>
<g id="Group">
<path id="Vector_5" d="M2.672 13.2461C2.672 13.2979 2.59418 13.3525 2.50317 13.3525C2.40448 13.3525 2.33691 13.2979 2.33691 13.2461V11.5029C2.33691 11.4405 2.40448 11.3989 2.50317 11.3989C2.59399 11.3989 2.672 11.4405 2.672 11.5029V12.3004C2.71887 12.1991 2.83569 12.103 2.99939 12.103C3.23834 12.103 3.44617 12.3419 3.44617 12.6303V13.2459C3.44617 13.316 3.36047 13.3525 3.27734 13.3525C3.19934 13.3525 3.11108 13.316 3.11108 13.2459V12.6303C3.11108 12.5133 3.00708 12.3965 2.88495 12.3965C2.77856 12.3965 2.672 12.4847 2.672 12.6303V13.2461Z" fill="#5A5A5A"/>
<path id="Vector_6" d="M4.18372 12.9318C4.18372 13.0331 4.22015 13.0695 4.32928 13.0695H4.43054C4.52667 13.0695 4.57336 13.1396 4.57336 13.2098C4.57336 13.2825 4.52667 13.3526 4.43054 13.3526H4.32928C4.01746 13.3526 3.84863 13.2253 3.84863 12.9318V11.6719C3.84863 11.6096 3.93707 11.5679 4.01489 11.5679C4.10059 11.5679 4.18372 11.6096 4.18372 11.6719V12.1187H4.49042C4.54498 12.1187 4.57611 12.1811 4.57611 12.2408C4.57611 12.303 4.54498 12.3627 4.49042 12.3627H4.18372V12.9318Z" fill="#5A5A5A"/>
<path id="Vector_7" d="M5.24133 12.9318C5.24133 13.0331 5.27759 13.0695 5.3869 13.0695H5.48816C5.58429 13.0695 5.63098 13.1396 5.63098 13.2098C5.63098 13.2825 5.58429 13.3526 5.48816 13.3526H5.3869C5.07507 13.3526 4.90625 13.2253 4.90625 12.9318V11.6719C4.90625 11.6096 4.99451 11.5679 5.07251 11.5679C5.1582 11.5679 5.24133 11.6096 5.24133 11.6719V12.1187H5.54785C5.60242 12.1187 5.63354 12.1811 5.63354 12.2408C5.63354 12.303 5.60242 12.3627 5.54785 12.3627H5.24133V12.9318Z" fill="#5A5A5A"/>
<path id="Vector_8" d="M6.28314 12.2226V12.3004C6.34283 12.1992 6.46753 12.103 6.63379 12.103C6.89343 12.103 7.09869 12.342 7.09869 12.6304V12.8433C7.09869 13.1213 6.88574 13.376 6.64423 13.376C6.48822 13.376 6.35327 13.2771 6.30383 13.1707V13.8202C6.30383 13.8748 6.22583 13.9266 6.13245 13.9266C6.03632 13.9266 5.96875 13.8748 5.96875 13.8202V12.2224C5.96875 12.1602 6.03888 12.1186 6.12714 12.1186C6.21814 12.1186 6.28314 12.1602 6.28314 12.2226ZM6.76361 12.6304C6.76361 12.5134 6.65723 12.3965 6.52722 12.3965C6.41809 12.3965 6.30383 12.4848 6.30383 12.6304V12.8902C6.30383 12.9448 6.39996 13.0825 6.53235 13.0825C6.65448 13.0825 6.76361 12.9629 6.76361 12.8433V12.6304Z" fill="#5A5A5A"/>
<path id="Vector_9" d="M8.05243 13.0096C8.05243 12.7811 7.43683 12.9239 7.43683 12.4901C7.43683 12.3057 7.55365 12.103 7.90173 12.103C8.11212 12.103 8.31482 12.1757 8.31482 12.2719C8.31482 12.3187 8.27069 12.433 8.19269 12.433C8.13043 12.433 8.04987 12.3577 7.90704 12.3577C7.77704 12.3577 7.72522 12.4225 7.72522 12.4745C7.72522 12.6642 8.34869 12.5342 8.34869 12.9968C8.34869 13.2278 8.17712 13.376 7.87061 13.376C7.60565 13.376 7.40039 13.2668 7.40039 13.1526C7.40039 13.098 7.44727 13.0045 7.51208 13.0045C7.58752 13.0045 7.64465 13.1215 7.86292 13.1215C8.01617 13.1213 8.05243 13.0616 8.05243 13.0096Z" fill="#5A5A5A"/>
<path id="Vector_10" d="M9.03735 12.433C9.03735 12.5264 8.95679 12.6097 8.86322 12.6097C8.76196 12.6097 8.68652 12.5266 8.68652 12.433C8.68652 12.3369 8.76196 12.2563 8.86322 12.2563C8.95679 12.2563 9.03735 12.3369 9.03735 12.433ZM9.03735 13.1917C9.03735 13.285 8.95679 13.3682 8.86322 13.3682C8.76196 13.3682 8.68652 13.285 8.68652 13.1917C8.68652 13.0955 8.76196 13.015 8.86322 13.015C8.95679 13.015 9.03735 13.0955 9.03735 13.1917Z" fill="#5A5A5A"/>
<path id="Vector_11" d="M10.5205 11.4664C10.5205 11.482 10.5179 11.4976 10.5101 11.5131L9.57751 13.3993C9.5592 13.4355 9.51782 13.4564 9.47607 13.4564C9.40082 13.4564 9.35156 13.3967 9.35156 13.3422C9.35156 13.3264 9.35669 13.3109 9.36438 13.2979L10.2971 11.4042C10.3152 11.3677 10.3517 11.3496 10.3905 11.3496C10.4529 11.3496 10.5205 11.3963 10.5205 11.4664Z" fill="#5A5A5A"/>
<path id="Vector_12" d="M11.3057 11.4664C11.3057 11.482 11.3031 11.4976 11.2954 11.5131L10.3627 13.3993C10.3445 13.4355 10.303 13.4564 10.2614 13.4564C10.1862 13.4564 10.1367 13.3967 10.1367 13.3422C10.1367 13.3264 10.1418 13.3109 10.1497 13.2979L11.0823 11.4042C11.1006 11.3677 11.1368 11.3496 11.1758 11.3496C11.2381 11.3496 11.3057 11.3963 11.3057 11.4664Z" fill="#5A5A5A"/>
<path id="Vector_13" d="M12.8066 13.3213C12.7883 13.3654 12.7312 13.381 12.6741 13.381C12.6091 13.381 12.5519 13.3603 12.5364 13.3213L12.3362 12.7549L12.1389 13.3187C12.1233 13.3603 12.061 13.381 11.996 13.381C11.9415 13.381 11.8843 13.3654 11.866 13.3187L11.4661 12.2924C11.4557 12.2717 11.4531 12.2562 11.4531 12.2432C11.4531 12.1626 11.5829 12.1055 11.6714 12.1055C11.7155 12.1055 11.7543 12.1236 11.7675 12.16L12.0272 12.8978L12.222 12.2562C12.2403 12.1963 12.2844 12.1886 12.3362 12.1886C12.3857 12.1886 12.4324 12.1963 12.4507 12.2562L12.6429 12.9003L12.9052 12.16C12.9182 12.1262 12.9546 12.1055 13.0015 12.1055C13.0844 12.1055 13.217 12.1626 13.217 12.2457C13.217 12.2613 13.2144 12.2794 13.2067 12.2924L12.8066 13.3213Z" fill="#5A5A5A"/>
<path id="Vector_14" d="M14.7637 13.3213C14.7454 13.3654 14.6882 13.381 14.6311 13.381C14.5661 13.381 14.5092 13.3603 14.4934 13.3213L14.2935 12.7549L14.0959 13.3187C14.0803 13.3603 14.0181 13.381 13.9531 13.381C13.8985 13.381 13.8414 13.3654 13.8232 13.3187L13.4232 12.2924C13.4127 12.2717 13.4102 12.2562 13.4102 12.2432C13.4102 12.1626 13.54 12.1055 13.6282 12.1055C13.6725 12.1055 13.7114 12.1236 13.7244 12.16L13.9842 12.8978L14.179 12.2562C14.1973 12.1963 14.2415 12.1886 14.2933 12.1886C14.3427 12.1886 14.3894 12.1963 14.4075 12.2562L14.6 12.9003L14.8624 12.16C14.8752 12.1262 14.9116 12.1055 14.9583 12.1055C15.0414 12.1055 15.174 12.1626 15.174 12.2457C15.174 12.2613 15.1714 12.2794 15.1636 12.2924L14.7637 13.3213Z" fill="#5A5A5A"/>
<path id="Vector_15" d="M16.7197 13.3213C16.7016 13.3654 16.6445 13.381 16.5873 13.381C16.5223 13.381 16.4652 13.3603 16.4496 13.3213L16.2495 12.7549L16.0521 13.3187C16.0366 13.3603 15.9741 13.381 15.9091 13.381C15.8546 13.381 15.7974 13.3654 15.7793 13.3187L15.3792 12.2924C15.3688 12.2717 15.3662 12.2562 15.3662 12.2432C15.3662 12.1626 15.4962 12.1055 15.5845 12.1055C15.6286 12.1055 15.6676 12.1236 15.6806 12.16L15.9404 12.8978L16.1353 12.2562C16.1534 12.1963 16.1975 12.1886 16.2495 12.1886C16.299 12.1886 16.3456 12.1963 16.3638 12.2562L16.556 12.9003L16.8184 12.16C16.8314 12.1262 16.8679 12.1055 16.9146 12.1055C16.9977 12.1055 17.1302 12.1626 17.1302 12.2457C17.1302 12.2613 17.1275 12.2794 17.1198 12.2924L16.7197 13.3213Z" fill="#5A5A5A"/>
</g>
<path id="Vector_16" d="M23.4648 14.7671H19.251V10.3682H23.4648C23.7605 10.3682 24.0002 10.6078 24.0002 10.9036V14.2317C24.0002 14.5274 23.7605 14.7671 23.4648 14.7671Z" fill="#C9F0FF"/>
<path id="Vector_17" d="M21.7877 11.5592L22.0046 11.9989C22.0312 12.0523 22.0823 12.0895 22.1412 12.0981L22.6267 12.1686C22.7753 12.1902 22.8348 12.3731 22.7272 12.478L22.376 12.8204C22.3331 12.862 22.3137 12.9221 22.3238 12.981L22.4066 13.4642C22.432 13.6126 22.2766 13.7255 22.1434 13.6556L21.7093 13.4273C21.6564 13.3996 21.5932 13.3996 21.5405 13.4273L21.1063 13.6556C20.9734 13.7255 20.8178 13.6126 20.8432 13.4642L20.9262 12.981C20.9362 12.9221 20.9166 12.862 20.874 12.8204L20.5228 12.478C20.4151 12.3731 20.4744 12.1902 20.6233 12.1686L21.1085 12.0981C21.1677 12.0895 21.2188 12.0523 21.2451 11.9989L21.4621 11.5592C21.5288 11.4243 21.721 11.4243 21.7877 11.5592Z" fill="#FFD86E"/>
<path id="Vector_18" d="M23.4647 14.7502H22.8115V10.4165H23.4647C23.7604 10.4165 24.0001 10.6562 24.0001 10.9517V14.2148C24.0001 14.5106 23.7604 14.7502 23.4647 14.7502Z" fill="#9AE7FD"/>
</g>
<defs>
<clipPath id="clip0_630_10789">
<rect width="24" height="24" fill="white"/>
</clipPath>
</defs>
</svg>
