<svg width="24" height="25" viewBox="0 0 24 25" fill="none" xmlns="http://www.w3.org/2000/svg">
<g id="Flag Of India">
<path id="Vector" d="M23.8153 9.25439H0.18457V15.7436H23.8153V9.25439Z" fill="#F0F5F9"/>
<path id="Vector_2" d="M23.8153 4.99707H0.18457V9.9983H23.8153V4.99707Z" fill="#F28623"/>
<path id="Vector_3" d="M23.8153 15.0015H0.18457V20.0027H23.8153V15.0015Z" fill="#65B54E"/>
<path id="Vector_4" d="M12.4388 14.3651C13.4689 14.122 14.1068 13.0899 13.8637 12.0599C13.6206 11.0298 12.5885 10.3919 11.5584 10.635C10.5284 10.8781 9.89044 11.9102 10.1336 12.9403C10.3767 13.9703 11.4088 14.6082 12.4388 14.3651Z" fill="#00247D"/>
<path id="Vector_5" d="M12.7586 14.0455L12.8232 13.8885C12.8352 13.8602 12.8552 13.836 12.8808 13.8189C12.9064 13.8018 12.9365 13.7926 12.9672 13.7925H13.1371C13.1782 13.7925 13.2176 13.7762 13.2467 13.7471C13.2758 13.718 13.2921 13.6786 13.2921 13.6375V13.4676C13.2923 13.4368 13.3014 13.4068 13.3185 13.3812C13.3356 13.3556 13.3598 13.3356 13.3881 13.3236L13.5451 13.259C13.583 13.2431 13.6132 13.2128 13.6291 13.1748C13.645 13.1368 13.6453 13.0941 13.63 13.0559L13.5635 12.899C13.5522 12.8706 13.5495 12.8396 13.5557 12.8097C13.562 12.7798 13.5769 12.7524 13.5986 12.731L13.7186 12.611C13.7331 12.5966 13.7445 12.5795 13.7524 12.5606C13.7602 12.5418 13.7642 12.5216 13.7642 12.5011C13.7642 12.4807 13.7602 12.4605 13.7524 12.4417C13.7445 12.4228 13.7331 12.4057 13.7186 12.3913L13.5986 12.2713C13.577 12.2494 13.5624 12.2216 13.5565 12.1914C13.5506 12.1612 13.5537 12.1299 13.5654 12.1015L13.63 11.9445C13.6378 11.9256 13.6418 11.9054 13.6418 11.8849C13.6418 11.8644 13.6377 11.8442 13.6298 11.8253C13.6219 11.8064 13.6104 11.7893 13.5958 11.7749C13.5813 11.7605 13.564 11.7491 13.5451 11.7415L13.3881 11.6768C13.3598 11.6649 13.3356 11.6449 13.3185 11.6193C13.3014 11.5937 13.2923 11.5636 13.2921 11.5328V11.363C13.2921 11.3219 13.2758 11.2824 13.2467 11.2533C13.2176 11.2243 13.1782 11.2079 13.1371 11.2079H12.9672C12.9365 11.2078 12.9064 11.1986 12.8808 11.1816C12.8552 11.1645 12.8352 11.1403 12.8232 11.1119L12.7586 10.955C12.7427 10.917 12.7124 10.8868 12.6745 10.871C12.6365 10.8551 12.5938 10.8547 12.5555 10.8701L12.3986 10.9365C12.3703 10.9479 12.3392 10.9506 12.3093 10.9443C12.2794 10.9381 12.252 10.9232 12.2306 10.9015L12.1106 10.7815C12.0962 10.767 12.0791 10.7555 12.0602 10.7477C12.0414 10.7399 12.0212 10.7358 12.0008 10.7358C11.9804 10.7358 11.9601 10.7399 11.9413 10.7477C11.9224 10.7555 11.9053 10.767 11.8909 10.7815L11.7709 10.9015C11.749 10.923 11.7212 10.9377 11.691 10.9436C11.6608 10.9495 11.6295 10.9464 11.6011 10.9347L11.446 10.8701C11.4271 10.8622 11.4068 10.8582 11.3864 10.8582C11.3659 10.8583 11.3457 10.8624 11.3268 10.8703C11.3079 10.8781 11.2908 10.8897 11.2764 10.9042C11.262 10.9188 11.2506 10.936 11.2429 10.955L11.1783 11.1119C11.1664 11.1403 11.1463 11.1645 11.1207 11.1816C11.0951 11.1986 11.0651 11.2078 11.0343 11.2079H10.8645C10.8233 11.2079 10.7839 11.2243 10.7548 11.2533C10.7257 11.2824 10.7094 11.3219 10.7094 11.363V11.5328C10.7093 11.5636 10.7001 11.5937 10.683 11.6193C10.666 11.6449 10.6417 11.6649 10.6134 11.6768L10.4565 11.7415C10.4185 11.7574 10.3883 11.7876 10.3724 11.8256C10.3565 11.8636 10.3562 11.9063 10.3715 11.9445L10.438 12.1015C10.4493 12.1298 10.4521 12.1609 10.4458 12.1907C10.4396 12.2206 10.4247 12.248 10.4029 12.2695L10.2829 12.3895C10.2685 12.4039 10.257 12.421 10.2492 12.4398C10.2413 12.4587 10.2373 12.4789 10.2373 12.4993C10.2373 12.5197 10.2413 12.5399 10.2492 12.5588C10.257 12.5776 10.2685 12.5947 10.2829 12.6091L10.4029 12.7291C10.4245 12.7511 10.4392 12.7789 10.4451 12.8091C10.451 12.8393 10.4479 12.8705 10.4361 12.899L10.3715 13.0559C10.3637 13.0748 10.3597 13.0951 10.3597 13.1155C10.3597 13.136 10.3638 13.1563 10.3717 13.1751C10.3796 13.194 10.3912 13.2111 10.4057 13.2255C10.4202 13.2399 10.4375 13.2513 10.4565 13.259L10.6134 13.3236C10.6417 13.3356 10.666 13.3556 10.683 13.3812C10.7001 13.4068 10.7093 13.4368 10.7094 13.4676V13.6375C10.7094 13.6786 10.7257 13.718 10.7548 13.7471C10.7839 13.7762 10.8233 13.7925 10.8645 13.7925H11.0343C11.0651 13.7926 11.0951 13.8018 11.1207 13.8189C11.1463 13.836 11.1664 13.8602 11.1783 13.8885L11.2429 14.0455C11.2589 14.0834 11.2891 14.1136 11.3271 14.1295C11.3651 14.1454 11.4078 14.1457 11.446 14.1304L11.6029 14.0639C11.6313 14.0526 11.6623 14.0499 11.6922 14.0561C11.7221 14.0623 11.7495 14.0773 11.7709 14.099L11.8909 14.219C11.9053 14.2334 11.9224 14.2449 11.9413 14.2527C11.9601 14.2606 11.9804 14.2646 12.0008 14.2646C12.0212 14.2646 12.0414 14.2606 12.0602 14.2527C12.0791 14.2449 12.0962 14.2334 12.1106 14.219L12.2306 14.099C12.2525 14.0774 12.2803 14.0628 12.3105 14.0568C12.3407 14.0509 12.372 14.054 12.4005 14.0658L12.5574 14.1304C12.5953 14.1456 12.6378 14.1453 12.6755 14.1293C12.7132 14.1134 12.7431 14.0833 12.7586 14.0455Z" fill="#F0F5F9"/>
<path id="Vector_6" d="M12.0108 10.979L11.9997 10.9106L11.9886 10.979C11.9166 11.4482 11.9166 11.9257 11.9886 12.395L11.9997 12.4633L12.0108 12.395C12.0828 11.9257 12.0828 11.4482 12.0108 10.979ZM12.0108 12.6054L11.9997 12.5371L11.9886 12.6054C11.9166 13.0747 11.9166 13.5522 11.9886 14.0214L11.9997 14.0897L12.0108 14.0214C12.0828 13.5522 12.0828 13.0747 12.0108 12.6054ZM13.5209 12.5113L13.5892 12.5002L13.5209 12.4891C13.0517 12.4171 12.5742 12.4171 12.1049 12.4891L12.0366 12.5002L12.1049 12.5113C12.5742 12.5833 13.0517 12.5833 13.5209 12.5113ZM11.8945 12.5113L11.9628 12.5002L11.8945 12.4891C11.4252 12.4171 10.9477 12.4171 10.4785 12.4891L10.4102 12.5002L10.4785 12.5113C10.9477 12.5833 11.4252 12.5833 11.8945 12.5113ZM13.0834 11.4313L13.124 11.3759L13.0686 11.4165C12.6839 11.696 12.3456 12.0343 12.0662 12.419L12.0255 12.4743L12.0809 12.4337C12.4656 12.1542 12.8039 11.8159 13.0834 11.4313ZM11.9332 12.5814L11.9738 12.526L11.9185 12.5666C11.5338 12.8461 11.1955 13.1844 10.916 13.5691L10.8754 13.6245L10.9308 13.5839C11.3155 13.3044 11.6538 12.9661 11.9332 12.5814ZM13.0686 13.5839L13.124 13.6245L13.0834 13.5691C12.8039 13.1844 12.4656 12.8461 12.0809 12.5666L12.0255 12.526L12.0662 12.5814C12.3456 12.9661 12.6839 13.3044 13.0686 13.5839ZM11.9185 12.4337L11.9738 12.4743L11.9332 12.419C11.6538 12.0343 11.3155 11.696 10.9308 11.4165L10.8754 11.3759L10.916 11.4313C11.1955 11.8159 11.5338 12.1542 11.9185 12.4337ZM11.4274 11.0897L11.3905 11.0233L11.4071 11.0916C11.5195 11.5532 11.7026 11.9947 11.9498 12.4005L11.9849 12.4596L11.9702 12.3913C11.857 11.9322 11.6739 11.4932 11.4274 11.0897ZM12.0495 12.5925L12.0145 12.5334L12.0292 12.6017C12.1417 13.0634 12.3248 13.5049 12.572 13.9106L12.6089 13.9697L12.5923 13.9014C12.4798 13.4398 12.2968 12.9983 12.0495 12.5925ZM13.4102 11.9279L13.4692 11.891L13.4009 11.9076C12.9393 12.02 12.4978 12.2031 12.092 12.4503L12.0329 12.4854L12.1012 12.4706C12.5629 12.3582 13.0044 12.1751 13.4102 11.9279ZM11.9074 12.55L11.9665 12.515L11.8982 12.5297C11.4365 12.6422 10.995 12.8253 10.5892 13.0725L10.5302 13.1094L10.5985 13.0928C11.0601 12.9803 11.5016 12.7972 11.9074 12.55ZM12.5923 11.099L12.6089 11.0233L12.572 11.0823C12.3248 11.4881 12.1417 11.9296 12.0292 12.3913L12.0145 12.4596L12.0495 12.4005C12.2961 11.997 12.4791 11.558 12.5923 11.099ZM11.9702 12.6017L11.9849 12.5334L11.9498 12.5925C11.7026 12.9983 11.5195 13.4398 11.4071 13.9014L11.3905 13.9771L11.4274 13.918C11.6753 13.51 11.8584 13.0659 11.9702 12.6017ZM13.4009 13.0928L13.4692 13.1094L13.4102 13.0725C13.0044 12.8253 12.5629 12.6422 12.1012 12.5297L12.0329 12.515L12.092 12.55C12.4978 12.7972 12.9393 12.9803 13.4009 13.0928ZM11.8982 12.4706L11.9665 12.4854L11.9074 12.4503C11.5016 12.2031 11.0601 12.02 10.5985 11.9076L10.5228 11.891L10.5818 11.9279C10.9899 12.1758 11.434 12.3589 11.8982 12.4706Z" fill="#00247D"/>
<path id="Vector_7" d="M12.0004 12.8802C12.2105 12.8802 12.3807 12.71 12.3807 12.4999C12.3807 12.2899 12.2105 12.1196 12.0004 12.1196C11.7904 12.1196 11.6201 12.2899 11.6201 12.4999C11.6201 12.71 11.7904 12.8802 12.0004 12.8802Z" fill="#00247D"/>
</g>
</svg>
