<svg width="36" height="37" viewBox="0 0 36 37" fill="none" xmlns="http://www.w3.org/2000/svg">
<path id="Vector" d="M16.651 24.751C16.5693 24.8413 16.4932 24.9365 16.423 25.036C16.3511 25.1419 16.2936 25.2569 16.252 25.378C16.1972 25.4857 16.1588 25.601 16.138 25.72C16.1287 25.8465 16.1287 25.9735 16.138 26.1C16.1316 26.3492 16.1836 26.5965 16.29 26.822C16.3753 27.0578 16.5115 27.2719 16.6888 27.4492C16.8661 27.6265 17.0802 27.7627 17.316 27.848C17.5434 27.9485 17.7894 28.0004 18.038 28.0004C18.2867 28.0004 18.5326 27.9485 18.76 27.848C18.9958 27.7627 19.2099 27.6265 19.3872 27.4492C19.5645 27.2719 19.7007 27.0578 19.786 26.822C19.8704 26.591 19.9091 26.3458 19.9 26.1C19.9015 25.8499 19.8535 25.6021 19.759 25.3706C19.6644 25.1391 19.5251 24.9285 19.349 24.751C19.1724 24.5729 18.9622 24.4316 18.7307 24.3351C18.4992 24.2386 18.2508 24.189 18 24.189C17.7492 24.189 17.5008 24.2386 17.2693 24.3351C17.0378 24.4316 16.8276 24.5729 16.651 24.751ZM18 -0.5C14.2422 -0.5 10.5687 0.61433 7.44417 2.70208C4.31964 4.78982 1.88436 7.75722 0.446297 11.229C-0.991768 14.7008 -1.36803 18.5211 -0.634912 22.2067C0.0982072 25.8923 1.90778 29.2778 4.56498 31.935C7.22218 34.5922 10.6077 36.4018 14.2933 37.1349C17.9789 37.868 21.7992 37.4918 25.271 36.0537C28.7428 34.6156 31.7102 32.1804 33.7979 29.0558C35.8857 25.9313 37 22.2578 37 18.5C37 16.0049 36.5086 13.5342 35.5537 11.229C34.5989 8.92383 33.1993 6.82928 31.435 5.06497C29.6707 3.30066 27.5762 1.90113 25.271 0.946289C22.9658 -0.00855049 20.4951 -0.5 18 -0.5ZM18 33.7C14.9937 33.7 12.055 32.8085 9.55534 31.1383C7.05571 29.4681 5.10749 27.0942 3.95704 24.3168C2.80659 21.5393 2.50558 18.4831 3.09207 15.5346C3.67857 12.5861 5.12623 9.87773 7.25198 7.75198C9.37774 5.62622 12.0861 4.17856 15.0346 3.59206C17.9831 3.00557 21.0394 3.30658 23.8168 4.45703C26.5942 5.60748 28.9681 7.5557 30.6383 10.0553C32.3085 12.555 33.2 15.4937 33.2 18.5C33.2 22.5313 31.5986 26.3975 28.748 29.248C25.8975 32.0986 22.0313 33.7 18 33.7ZM18 9C16.9988 8.99936 16.0151 9.26243 15.1479 9.76274C14.2807 10.2631 13.5606 10.983 13.06 11.85C12.9225 12.0663 12.8302 12.3081 12.7886 12.5609C12.747 12.8138 12.757 13.0724 12.818 13.3213C12.879 13.5702 12.9896 13.8042 13.1434 14.0092C13.2971 14.2142 13.4907 14.386 13.7126 14.5143C13.9345 14.6425 14.18 14.7245 14.4343 14.7554C14.6887 14.7863 14.9467 14.7655 15.1928 14.6941C15.4389 14.6227 15.668 14.5022 15.8664 14.34C16.0647 14.1777 16.2282 13.9771 16.347 13.75C16.5144 13.46 16.7554 13.2195 17.0457 13.0527C17.336 12.8858 17.6652 12.7987 18 12.8C18.5039 12.8 18.9872 13.0002 19.3435 13.3565C19.6998 13.7128 19.9 14.1961 19.9 14.7C19.9 15.2039 19.6998 15.6872 19.3435 16.0435C18.9872 16.3998 18.5039 16.6 18 16.6C17.4961 16.6 17.0128 16.8002 16.6565 17.1565C16.3002 17.5128 16.1 17.9961 16.1 18.5V20.4C16.1 20.9039 16.3002 21.3872 16.6565 21.7435C17.0128 22.0998 17.4961 22.3 18 22.3C18.5039 22.3 18.9872 22.0998 19.3435 21.7435C19.6998 21.3872 19.9 20.9039 19.9 20.4V20.058C21.1566 19.602 22.213 18.7189 22.8845 17.563C23.556 16.4072 23.7998 15.0521 23.5735 13.7346C23.3471 12.4171 22.6649 11.2211 21.6461 10.3557C20.6273 9.49022 19.3367 9.01037 18 9Z" fill="black"/>
</svg>
