<svg width="24" height="24" viewBox="0 0 24 24" fill="none" xmlns="http://www.w3.org/2000/svg">
<g id="Telegram" clip-path="url(#clip0_630_10786)">
<path id="Vector" d="M12 24C18.6274 24 24 18.6274 24 12C24 5.37258 18.6274 0 12 0C5.37258 0 0 5.37258 0 12C0 18.6274 5.37258 24 12 24Z" fill="#039BE5"/>
<path id="Vector_2" d="M5.49126 11.7402L17.0613 7.27921C17.5983 7.08521 18.0673 7.41021 17.8933 8.22221L17.8943 8.22121L15.9243 17.5022C15.7783 18.1602 15.3873 18.3202 14.8403 18.0102L11.8403 15.7992L10.3933 17.1932C10.2333 17.3532 10.0983 17.4882 9.78826 17.4882L10.0013 14.4352L15.5613 9.41221C15.8033 9.19921 15.5073 9.07921 15.1883 9.29121L8.31726 13.6172L5.35526 12.6932C4.71226 12.4892 4.69826 12.0502 5.49126 11.7402Z" fill="#F7F7F7"/>
</g>
<defs>
<clipPath id="clip0_630_10786">
<rect width="24" height="24" fill="white"/>
</clipPath>
</defs>
</svg>
