<svg width="35" height="39" viewBox="0 0 35 39" fill="none" xmlns="http://www.w3.org/2000/svg">
<path id="Vector" d="M17.4999 38.4996C17.1025 38.4994 16.7163 38.368 16.4012 38.1259C16.4012 38.1259 15.0222 37.087 11.2103 34.998C5.37668 31.8027 2.69342 27.9684 1.94973 21.7648C1.37421 16.9626 1.0005 6.93213 0.985554 6.5061C0.974932 6.2498 1.01917 5.9942 1.11531 5.75638C1.21145 5.51857 1.35728 5.30403 1.54303 5.12712C1.72878 4.95021 1.95018 4.81502 2.1924 4.73059C2.43461 4.64616 2.69207 4.61443 2.94755 4.63753C2.98492 4.63753 6.88648 4.9664 10.2424 4.02464C12.4527 3.38721 14.5214 2.3345 16.3377 0.922829C16.6634 0.649699 17.0749 0.5 17.4999 0.5C17.925 0.5 18.3365 0.649699 18.6622 0.922829C20.4766 2.34341 22.5453 3.40502 24.7574 4.0508C28.1208 4.99256 32.0149 4.66369 32.056 4.66369C32.3113 4.64053 32.5686 4.67225 32.8107 4.75671C33.0527 4.84117 33.2739 4.97643 33.4594 5.1534C33.6448 5.33037 33.7903 5.54497 33.886 5.78279C33.9817 6.02061 34.0255 6.27615 34.0143 6.53226C34.0143 6.95829 33.6406 16.9962 33.0501 21.7909C32.3027 27.9946 29.6231 31.8289 23.7932 35.0204C19.9814 37.1094 18.6098 38.1446 18.5949 38.1558C18.2771 38.3868 17.8926 38.5075 17.4999 38.4996ZM4.66289 8.30739C4.79369 11.5251 5.11882 17.923 5.54111 21.3388C6.06431 25.7037 7.44331 28.813 12.9518 31.8363C15.1941 33.0584 16.6366 33.9478 17.5149 34.5196C18.3931 33.9478 19.8468 33.0584 22.0779 31.8363C27.5902 28.8205 28.9505 25.7037 29.4587 21.3388C29.881 17.923 30.2061 11.5251 30.3369 8.30739C28.1262 8.32823 25.9223 8.05808 23.782 7.50391C21.544 6.85923 19.4232 5.86131 17.4999 4.54784C15.5766 5.86131 13.4558 6.85923 11.2178 7.50391C9.07753 8.05808 6.87364 8.32823 4.66289 8.30739Z" fill="black"/>
</svg>
