<svg width="152" height="82" viewBox="0 0 152 82" fill="none" xmlns="http://www.w3.org/2000/svg">
<g id="Frame 375">
<path id="Vector" d="M17.8434 41L14.9476 43.912L12 41L14.9476 38.036L17.8434 41ZM24.928 33.876L29.944 38.92L32.8916 35.956L24.928 28L17.016 35.956L19.9636 38.92L24.928 33.876ZM34.9083 38.036L32.0125 41L34.9601 43.964L37.8559 41L34.9083 38.036ZM24.928 48.124L19.9119 43.08L16.9643 46.044L24.928 54L32.8399 46.044L29.944 43.08L24.928 48.124ZM24.928 43.912L27.8755 40.948L24.928 38.036L21.9804 41L24.928 43.912ZM55.7482 44.224C55.7482 42.248 54.714 41.312 53.1109 40.688C54.1451 40.116 54.9725 39.232 54.9725 37.62V37.568C54.9725 35.332 53.1626 33.876 50.3185 33.876H43.6994V48.124H50.4219C53.628 48.124 55.7482 46.824 55.7482 44.224ZM51.8181 38.14C51.8181 39.232 50.939 39.648 49.5945 39.648H46.6986V36.632H49.8013C51.0941 36.632 51.8181 37.152 51.8181 38.14ZM52.6455 43.808C52.6455 44.848 51.8181 45.368 50.4736 45.368H46.7503V42.248H50.3702C51.9215 42.248 52.6455 42.82 52.6455 43.808ZM62.2639 48.124V33.876H59.1095V48.124H62.2639ZM79.0185 48.124V33.876H75.9158V42.664L69.2967 33.876H66.4008V48.124H69.5036V39.076L76.3812 48.124H79.0185ZM96.2903 48.124L90.1883 33.772H87.2924L81.1904 48.124H84.3966L85.6894 44.9H91.6879L92.9807 48.124H96.2903ZM90.602 42.144H86.827L88.7403 37.516L90.602 42.144ZM111.183 48.124V33.876H108.081V42.664L101.461 33.876H98.5656V48.124H101.668V39.076L108.546 48.124H111.183ZM127.266 45.836L125.249 43.808C124.111 44.848 123.129 45.472 121.526 45.472C119.095 45.472 117.389 43.444 117.389 41V40.948C117.389 38.504 119.095 36.528 121.526 36.528C122.922 36.528 124.06 37.152 125.145 38.14L127.162 35.852C125.869 34.552 124.266 33.668 121.577 33.668C117.234 33.668 114.183 36.996 114.183 41.052V41C114.183 45.108 117.285 48.332 121.474 48.332C124.163 48.384 125.818 47.396 127.266 45.836ZM140.556 48.124V45.316H132.851V42.3H139.521V39.492H132.851V36.58H140.452V33.772H129.748V48.02L140.556 48.124Z" fill="#F0B90B"/>
<rect x="1.5" y="1.5" width="149" height="79" stroke="#0E122E" stroke-opacity="0.3" stroke-width="3"/>
</g>
</svg>
