<svg width="24" height="24" viewBox="0 0 24 24" fill="none" xmlns="http://www.w3.org/2000/svg">
<g id="calendar 1" clip-path="url(#clip0_645_14426)">
<g id="Group">
<path id="Vector" d="M14.1088 7.78125H4.26465V21.8444C4.26465 22.2327 4.57948 22.5475 4.96781 22.5475H14.1088H23.2968C23.6851 22.5475 23.9999 22.2327 23.9999 21.8444V7.78125H14.1088Z" fill="#D5E8FE"/>
<path id="Vector_2" d="M24.0004 21.8444V7.78125H14.1094V22.5475H23.2973C23.6856 22.5475 24.0004 22.2327 24.0004 21.8444Z" fill="#B5DBFF"/>
<path id="Vector_3" d="M23.2968 2.85889H14.1088H4.96781C4.57948 2.85889 4.26465 3.17371 4.26465 3.56204V7.07783L5.67096 8.48414H14.1088H22.5936L23.9999 7.07783V3.56204C23.9999 3.17376 23.685 2.85889 23.2968 2.85889Z" fill="#FF7B4A"/>
<path id="Vector_4" d="M24.0004 7.07783V3.56204C24.0004 3.17371 23.6856 2.85889 23.2973 2.85889H14.1094V8.48414H22.5941L24.0004 7.07783Z" fill="#FF435B"/>
<g id="Group_2">
<path id="Vector_5" d="M9.18656 5.67158C8.7979 5.67158 8.4834 5.35708 8.4834 4.96842V2.15579C8.4834 1.76714 8.7979 1.45264 9.18656 1.45264C9.57521 1.45264 9.88971 1.76714 9.88971 2.15579V4.96842C9.88971 5.35708 9.57521 5.67158 9.18656 5.67158Z" fill="#47568C"/>
</g>
<g id="Group_3">
<path id="Vector_6" d="M19.0313 5.67158C18.6426 5.67158 18.3281 5.35708 18.3281 4.96842V2.15579C18.3281 1.76714 18.6426 1.45264 19.0313 1.45264C19.4199 1.45264 19.7344 1.76714 19.7344 2.15579V4.96842C19.7344 5.35708 19.4199 5.67158 19.0313 5.67158Z" fill="#29376D"/>
</g>
<path id="Vector_7" d="M14.1089 7.07812H4.26474V7.78128C4.26474 15.0594 0.290077 18.4598 0.250232 18.4927C0.0243312 18.6836 -0.0587819 18.9954 0.0428476 19.2728C0.143774 19.5495 0.406801 19.7349 0.70208 19.7349H14.1089H19.031C19.1958 19.7349 19.3551 19.6773 19.4815 19.5722C19.6634 19.4197 24 15.7536 24 7.78128V7.07812H14.1089Z" fill="#EDF5FF"/>
<path id="Vector_8" d="M19.4819 19.5722C19.6639 19.4197 24.0004 15.7536 24.0004 7.78128V7.07812H14.1094V19.7349H19.0315C19.1962 19.7349 19.3556 19.6772 19.4819 19.5722Z" fill="#D5E8FE"/>
<path id="Vector_9" d="M14.1094 1.45264C13.7207 1.45264 13.4062 1.76714 13.4062 2.15579V4.96842C13.4062 5.35708 13.7207 5.67158 14.1094 5.67158C14.4981 5.67158 14.8126 5.35708 14.8126 4.96842V2.15579C14.8126 1.76714 14.4981 1.45264 14.1094 1.45264Z" fill="#47568C"/>
<path id="Vector_10" d="M14.8125 4.96842V2.15579C14.8125 1.76714 14.498 1.45264 14.1094 1.45264V5.67158C14.498 5.67158 14.8125 5.35708 14.8125 4.96842Z" fill="#29376D"/>
</g>
</g>
<defs>
<clipPath id="clip0_645_14426">
<rect width="24" height="24" fill="white"/>
</clipPath>
</defs>
</svg>
