<svg width="18" height="18" viewBox="0 0 18 18" fill="none" xmlns="http://www.w3.org/2000/svg">
<g id="Case Report">
<path id="Vector" d="M12.7599 5.19748C11.5168 3.95436 9.48898 3.95436 8.24305 5.19748C6.99711 6.44342 6.99711 8.47123 8.24305 9.71717C8.86461 10.3387 9.68305 10.6509 10.5015 10.6509C11.3199 10.6509 12.1384 10.3387 12.7599 9.71717C14.0059 8.47123 14.0059 6.44342 12.7599 5.19748ZM12.3746 9.32904C11.3396 10.364 9.66055 10.364 8.62836 9.32904C7.59617 8.29685 7.59617 6.61498 8.62836 5.58561C8.87433 5.33978 9.16641 5.14492 9.48784 5.0122C9.80927 4.87948 10.1537 4.8115 10.5015 4.81217C11.1793 4.81217 11.8599 5.06811 12.3746 5.58561C13.4096 6.61498 13.4096 8.29967 12.3746 9.32904Z" fill="#2A2F64"/>
<path id="Vector_2" d="M17.8116 12.9627L15.4378 10.5917C15.3451 10.4997 15.2266 10.438 15.098 10.4149C14.9694 10.3918 14.8368 10.4084 14.7178 10.4624L14.1666 9.91111C15.3141 8.19549 15.1341 5.84705 13.6209 4.33674C12.4537 3.16674 10.7888 2.79549 9.30375 3.21174C9.315 2.67455 9.44719 2.1458 9.70875 1.60861H9.87187C10.0209 1.60861 10.1447 1.48486 10.1447 1.3358C10.1447 1.18674 10.0209 1.06299 9.87187 1.06299H1.85625C0.8325 1.06299 0.0028125 1.89549 0.0028125 2.91924V3.70955C0.0028125 4.38174 0.36 4.96674 0.894375 5.29299C0.62241 5.45826 0.397544 5.69074 0.241403 5.96805C0.0852613 6.24536 0.00309742 6.55818 0.0028125 6.87643V7.66674C0.0028125 8.6933 0.835312 9.52299 1.85625 9.52299H2.92781C2.68313 9.80424 2.53125 10.1699 2.53125 10.5692V11.3708C2.53125 11.773 2.68031 12.1386 2.92781 12.4171H1.85625C0.8325 12.4171 0 13.2524 0 14.2733V15.0664C0 16.0902 0.835312 16.9199 1.85625 16.9199H9.87469C10.0238 16.9199 10.1475 16.7989 10.1475 16.6471C10.1475 16.498 10.0238 16.3742 9.87469 16.3742H9.71719C9.16875 15.2042 9.16875 14.0821 9.71438 12.9599H11.1572C11.3062 12.9599 11.43 12.8389 11.43 12.6871C11.43 12.538 11.3062 12.4142 11.1572 12.4142H11.0391C10.9491 12.223 10.8759 12.0317 10.8197 11.8377C11.5836 11.7835 12.3202 11.5315 12.9572 11.1064L13.5056 11.6577C13.3988 11.8939 13.4409 12.1836 13.6378 12.3805L16.0087 14.7514C16.1353 14.878 16.3013 14.9399 16.4644 14.9399C16.6303 14.9399 16.7962 14.878 16.9228 14.7514L17.8116 13.8627C18.0619 13.6264 18.0619 13.2158 17.8116 12.9627ZM0.548438 3.71518V2.92486C0.548438 2.20205 1.13344 1.61424 1.85625 1.61424H9.1125C9.00281 1.8758 8.91562 2.13736 8.85938 2.39893H1.88156C1.7325 2.39893 1.60875 2.52268 1.60875 2.67174C1.60875 2.8208 1.7325 2.94455 1.88156 2.94455H8.77219C8.75813 3.09924 8.75531 3.25674 8.75813 3.40861C8.56969 3.49018 8.38688 3.5858 8.20969 3.69549H1.88156C1.7325 3.69549 1.60875 3.81924 1.60875 3.9683C1.60875 4.11736 1.7325 4.24111 1.88156 4.24111H7.49531C7.45594 4.27768 7.41937 4.3058 7.38281 4.34236C7.16906 4.55611 6.98063 4.78674 6.82031 5.02861H1.85625C1.5089 5.02705 1.17631 4.88799 0.931225 4.64185C0.686139 4.39571 0.548508 4.06253 0.548438 3.71518ZM1.85625 8.9858C1.13344 8.9858 0.548438 8.39799 0.548438 7.67518V6.88486C0.548438 6.16205 1.13344 5.57424 1.85625 5.57424H6.51937C6.39844 5.82736 6.30281 6.08893 6.23531 6.35893H1.88156C1.7325 6.35893 1.60875 6.48268 1.60875 6.63174C1.60875 6.7808 1.7325 6.90455 1.88156 6.90455H6.13406C6.10031 7.15205 6.09188 7.40236 6.10313 7.65549H1.88156C1.7325 7.65549 1.60875 7.77924 1.60875 7.9283C1.60875 8.07736 1.7325 8.20111 1.88156 8.20111H6.15656C6.20156 8.4683 6.27469 8.73268 6.37031 8.98861H1.85625V8.9858ZM1.85625 16.3883C1.13344 16.3883 0.545625 15.8033 0.545625 15.0805V14.2874C0.545625 13.5646 1.13344 12.9767 1.85625 12.9767H9.1125C9 13.2383 8.91562 13.4999 8.85938 13.7642H1.88156C1.80921 13.7642 1.73982 13.793 1.68865 13.8441C1.63749 13.8953 1.60875 13.9647 1.60875 14.0371C1.60875 14.1861 1.7325 14.3099 1.88156 14.3099H8.77219C8.74969 14.5574 8.7525 14.8077 8.77781 15.0608H1.88156C1.7325 15.0608 1.60875 15.1846 1.60875 15.3336C1.60875 15.4827 1.7325 15.6064 1.88156 15.6064H8.865C8.92406 15.868 9.00562 16.1296 9.11531 16.3911H1.85625V16.3883ZM4.12594 12.4283C3.84845 12.4283 3.58234 12.3181 3.38613 12.1219C3.18992 11.9257 3.07969 11.6595 3.07969 11.3821V10.5805C3.07969 10.303 3.18992 10.0369 3.38613 9.84068C3.58234 9.64447 3.84845 9.53424 4.12594 9.53424H6.60938C6.72188 9.74799 6.85406 9.94768 7.00594 10.1446H4.20469C4.05562 10.1446 3.93187 10.2683 3.93187 10.4174C3.93187 10.5664 4.05562 10.6902 4.20469 10.6902H7.50375C7.74844 10.9152 8.01 11.1092 8.28844 11.2724H4.20469C4.05562 11.2724 3.93187 11.3961 3.93187 11.5452C3.93187 11.6971 4.05562 11.818 4.20469 11.818H9.84375C9.98156 11.8377 10.1222 11.8517 10.26 11.8602C10.305 12.0514 10.3697 12.2455 10.4456 12.4339H4.12594V12.4283ZM7.77094 10.1924C6.26344 8.68486 6.26344 6.23236 7.77094 4.72486C8.52469 3.97111 9.51469 3.59424 10.5047 3.59424C11.4947 3.59424 12.4847 3.97393 13.2413 4.72486C14.7488 6.23236 14.7488 8.68486 13.2413 10.1924C11.7309 11.6999 9.27844 11.6999 7.77094 10.1924ZM13.3931 10.7858C13.4691 10.7183 13.5478 10.6508 13.6209 10.5749C13.6941 10.5017 13.7616 10.4258 13.8291 10.3471L14.3016 10.8196L13.8656 11.2555L13.3931 10.7858ZM17.4234 13.4914L16.5347 14.3802C16.4953 14.4196 16.4334 14.4196 16.3969 14.3802L14.0231 12.0064C14.0138 11.9975 14.0063 11.9869 14.0013 11.975C13.9962 11.9632 13.9936 11.9504 13.9936 11.9375C13.9936 11.9246 13.9962 11.9119 14.0013 11.9C14.0063 11.8882 14.0138 11.8775 14.0231 11.8686L14.9119 10.9799C14.9206 10.9698 14.9314 10.9619 14.9436 10.9565C14.9557 10.9512 14.9689 10.9486 14.9822 10.9489C15.0103 10.9489 15.0328 10.9574 15.0525 10.9799L17.4234 13.3508C17.4656 13.3874 17.4656 13.4521 17.4234 13.4914Z" fill="#2A2F64"/>
<path id="Vector_3" d="M14.302 10.8197L13.8661 11.2556L13.3936 10.7859C13.4695 10.7184 13.5482 10.6509 13.6214 10.575C13.6945 10.5019 13.762 10.4259 13.8295 10.3472L14.302 10.8197Z" fill="#EDECED"/>
<path id="Vector_4" d="M17.4231 13.4918L16.5343 14.3805C16.4949 14.4199 16.4331 14.4199 16.3965 14.3805L14.0227 12.0067C14.0134 11.9979 14.006 11.9872 14.0009 11.9753C13.9958 11.9635 13.9932 11.9507 13.9932 11.9378C13.9932 11.925 13.9958 11.9122 14.0009 11.9004C14.006 11.8885 14.0134 11.8778 14.0227 11.8689L14.9115 10.9802C14.9202 10.9702 14.931 10.9622 14.9432 10.9568C14.9553 10.9515 14.9685 10.9489 14.9818 10.9493C15.0099 10.9493 15.0324 10.9577 15.0521 10.9802L17.4231 13.3511C17.4652 13.3877 17.4652 13.4524 17.4231 13.4918Z" fill="#F16E61"/>
<path id="Vector_5" d="M16.8127 14.1019L16.5343 14.3803C16.4949 14.4197 16.4331 14.4197 16.3965 14.3803L14.0227 12.0066C14.0134 11.9977 14.006 11.987 14.0009 11.9752C13.9958 11.9633 13.9932 11.9506 13.9932 11.9377C13.9932 11.9248 13.9958 11.912 14.0009 11.9002C14.006 11.8883 14.0134 11.8777 14.0227 11.8688L14.3012 11.5903C14.2618 11.6297 14.2618 11.6916 14.3012 11.7281L16.6749 14.1019C16.7115 14.1413 16.7762 14.1413 16.8127 14.1019Z" fill="#E25E5A"/>
<path id="Vector_6" d="M13.2386 4.72486C12.4821 3.97111 11.4921 3.59424 10.5021 3.59424C9.51207 3.59424 8.52207 3.97393 7.76832 4.72486C6.26082 6.23236 6.26082 8.68486 7.76832 10.1924C9.27582 11.6999 11.7283 11.6999 13.2358 10.1924C14.7461 8.68486 14.7461 6.23236 13.2386 4.72486ZM12.7605 9.71705C12.4641 10.0137 12.112 10.2489 11.7244 10.4091C11.3368 10.5694 10.9214 10.6515 10.5021 10.6508C9.68363 10.6508 8.8652 10.3386 8.24363 9.71705C6.99769 8.47111 6.99769 6.4433 8.24363 5.19736C9.48957 3.95424 11.5174 3.95424 12.7605 5.19736C14.0064 6.4433 14.0064 8.47111 12.7605 9.71705Z" fill="#F16E61"/>
<path id="Vector_7" d="M13.2386 4.72486C12.4821 3.97111 11.4921 3.59424 10.5021 3.59424C9.51207 3.59424 8.52207 3.97393 7.76832 4.72486C6.26082 6.23236 6.26082 8.68486 7.76832 10.1924C9.27582 11.6999 11.7283 11.6999 13.2358 10.1924C14.7461 8.68486 14.7461 6.23236 13.2386 4.72486ZM12.9968 9.94768C11.6214 11.323 9.38832 11.323 8.01301 9.94768C6.6377 8.57236 6.6377 6.33924 8.01301 4.96393C8.69644 4.27768 9.59926 3.93174 10.5021 3.93174C11.4049 3.93174 12.3077 4.27486 12.9939 4.96393C14.3693 6.34205 14.3693 8.57518 12.9968 9.94768Z" fill="#E25E5A"/>
<path id="Vector_8" d="M12.3749 9.32889C11.3399 10.3639 9.66082 10.3639 8.62863 9.32889C7.59645 8.2967 7.59645 6.61483 8.62863 5.58545C8.87461 5.33963 9.16668 5.14477 9.48811 5.01205C9.80954 4.87933 10.154 4.81135 10.5018 4.81202C11.1796 4.81202 11.8602 5.06795 12.3749 5.58545C13.4099 6.61483 13.4099 8.29952 12.3749 9.32889Z" fill="#FFDB7C"/>
<path id="Vector_9" d="M12.3749 5.58545C11.8602 5.06795 11.1796 4.81201 10.5018 4.81201C9.82676 4.81201 9.14613 5.06795 8.62863 5.58545C7.59645 6.61764 7.59645 8.29951 8.62863 9.32889C9.66363 10.3639 11.3427 10.3639 12.3749 9.32889C13.4099 8.29951 13.4099 6.61482 12.3749 5.58545ZM12.0036 8.95482C11.1768 9.7817 9.83238 9.7817 9.00269 8.95482C8.17863 8.12795 8.17863 6.78357 9.00269 5.9567C9.19963 5.76009 9.43339 5.60424 9.69062 5.49806C9.94784 5.39189 10.2235 5.33748 10.5018 5.33795C11.0446 5.33795 11.5902 5.54326 12.0008 5.9567C12.8277 6.78639 12.8277 8.13076 12.0036 8.95482Z" fill="#EBC15C"/>
<path id="Vector_10" d="M9.1184 16.3886H1.85652C1.13371 16.3886 0.545898 15.8036 0.545898 15.0808V14.2877C0.545898 13.5649 1.13371 12.9771 1.85652 12.9771H9.11277C9.00027 13.2386 8.9159 13.5002 8.85965 13.7646H1.88184C1.80948 13.7646 1.74009 13.7933 1.68893 13.8445C1.63777 13.8956 1.60902 13.965 1.60902 14.0374C1.60902 14.1864 1.73277 14.3102 1.88184 14.3102H8.77246C8.74996 14.5577 8.75277 14.808 8.77809 15.0611H1.88184C1.73277 15.0611 1.60902 15.1849 1.60902 15.3339C1.60902 15.483 1.73277 15.6067 1.88184 15.6067H8.86527C8.92715 15.8655 9.00871 16.1271 9.1184 16.3886Z" fill="#EDECED"/>
<path id="Vector_11" d="M9.1184 16.3886H1.85652C1.13371 16.3886 0.545898 15.8036 0.545898 15.0808V14.2877C0.545898 13.5649 1.13371 12.9771 1.85652 12.9771H9.11277C9.06777 13.0867 9.02559 13.1964 8.98621 13.3033H2.17715C1.48809 13.3033 0.925586 13.7814 0.925586 14.3636V15.0021C0.925586 15.5871 1.48809 16.0624 2.17715 16.0624H8.99465C9.03121 16.1692 9.07059 16.2789 9.1184 16.3886Z" fill="#D5D6D5"/>
<path id="Vector_12" d="M10.446 12.4282H4.12633C3.84885 12.4282 3.58273 12.318 3.38652 12.1218C3.19031 11.9256 3.08008 11.6595 3.08008 11.382V10.5804C3.08008 10.3029 3.19031 10.0368 3.38652 9.84062C3.58273 9.64441 3.84885 9.53418 4.12633 9.53418H6.60977C6.72227 9.74793 6.85445 9.94762 7.00633 10.1445H4.20508C4.05602 10.1445 3.93227 10.2682 3.93227 10.4173C3.93227 10.5664 4.05602 10.6901 4.20508 10.6901H7.50414C7.74883 10.9151 8.01039 11.1092 8.28883 11.2723H4.20508C4.05602 11.2723 3.93227 11.3961 3.93227 11.5451C3.93227 11.697 4.05602 11.8179 4.20508 11.8179H9.84414C9.98195 11.8376 10.1226 11.8517 10.2604 11.8601C10.3054 12.0457 10.3701 12.2398 10.446 12.4282Z" fill="#D6E9F2"/>
<path id="Vector_13" d="M10.446 12.4282H4.12633C3.84885 12.4282 3.58273 12.318 3.38652 12.1218C3.19031 11.9256 3.08008 11.6595 3.08008 11.382V10.5804C3.08008 10.3029 3.19031 10.0368 3.38652 9.84062C3.58273 9.64441 3.84885 9.53418 4.12633 9.53418H6.60977C6.67445 9.66074 6.74758 9.77887 6.82914 9.89699H4.5257C3.98008 9.89699 3.53852 10.2711 3.53852 10.7323V11.2329C3.53852 11.6942 3.98008 12.0682 4.5257 12.0682H10.3195C10.3532 12.1892 10.3954 12.3073 10.446 12.4282Z" fill="#B6DAE7"/>
<path id="Vector_14" d="M6.15977 8.19828C6.20477 8.46547 6.27789 8.72984 6.37352 8.98578H1.85664C1.13383 8.98578 0.548828 8.39797 0.548828 7.67516V6.88484C0.548828 6.16203 1.13383 5.57422 1.85664 5.57422H6.51977C6.39883 5.82734 6.3032 6.08891 6.2357 6.35891H1.88195C1.73289 6.35891 1.60914 6.48266 1.60914 6.63172C1.60914 6.78078 1.73289 6.90453 1.88195 6.90453H6.13445C6.1007 7.15203 6.09227 7.40234 6.10352 7.65547H1.88195C1.73289 7.65547 1.60914 7.77922 1.60914 7.92828C1.60914 8.07734 1.73289 8.20109 1.88195 8.20109H6.15977V8.19828Z" fill="#EDECED"/>
<path id="Vector_15" d="M1.60914 2.66895C1.60914 2.81801 1.73289 2.94176 1.88195 2.94176H8.77258C8.75852 3.09645 8.7557 3.25395 8.75852 3.40582C8.57008 3.48738 8.38727 3.58301 8.21008 3.6927H1.88195C1.73289 3.6927 1.60914 3.81645 1.60914 3.96551C1.60914 4.11457 1.73289 4.23832 1.88195 4.23832H7.4957C7.45633 4.27488 7.41977 4.30301 7.3832 4.33957C7.16945 4.55332 6.98102 4.78395 6.8207 5.02582H1.85664C1.13383 5.02582 0.548828 4.43801 0.548828 3.7152V2.92488C0.548828 2.20207 1.13383 1.61426 1.85664 1.61426H9.11289C9.0032 1.87582 8.91602 2.13738 8.85977 2.39895H1.88195C1.84628 2.39865 1.8109 2.40541 1.77785 2.41884C1.7448 2.43227 1.71474 2.4521 1.68938 2.47719C1.66402 2.50229 1.64388 2.53215 1.63011 2.56506C1.61634 2.59796 1.60921 2.63327 1.60914 2.66895Z" fill="#D6E9F2"/>
<path id="Vector_16" d="M0.925703 6.96078V7.59922C0.925703 8.18422 1.4882 8.65953 2.17727 8.65953H6.26664C6.29758 8.76922 6.33133 8.88172 6.37352 8.98578H1.85664C1.13383 8.98578 0.548828 8.39797 0.548828 7.67516V6.88484C0.548828 6.16203 1.13383 5.57422 1.85664 5.57422H6.51977C6.46914 5.68109 6.42133 5.79078 6.38477 5.90047H2.17727C1.48539 5.89766 0.925703 6.37578 0.925703 6.96078Z" fill="#D5D6D5"/>
<path id="Vector_17" d="M0.925703 3.00082V3.63926C0.925703 4.22426 1.4882 4.69957 2.17727 4.69957H7.06258C6.9782 4.80645 6.89664 4.91613 6.82352 5.02582H1.85664C1.13383 5.02582 0.548828 4.43801 0.548828 3.7152V2.92488C0.548828 2.20207 1.13383 1.61426 1.85664 1.61426H9.11289C9.06789 1.72395 9.0257 1.83363 8.98914 1.94051H2.17727C1.48539 1.9377 0.925703 2.41582 0.925703 3.00082Z" fill="#B6DAE7"/>
</g>
</svg>
