<svg width="17" height="17" viewBox="0 0 17 17" fill="none" xmlns="http://www.w3.org/2000/svg">
<g id="Layer 2">
<path id="Vector" d="M11.8455 4.66175C11.7295 4.64888 11.6194 4.60512 11.527 4.53508C11.4346 4.46503 11.3633 4.3713 11.3205 4.26376C10.831 2.97768 10.4057 2.74196 10.1504 2.67547C9.89503 2.60898 9.41252 2.60829 8.32737 3.48436C8.23452 3.55572 8.12459 3.6016 8.00876 3.61733C7.89292 3.63306 7.77534 3.61808 7.66797 3.57391C6.28463 2.99408 5.80386 3.11122 5.56432 3.24952C5.32477 3.38782 4.98294 3.74561 4.79342 5.23354C4.77799 5.3486 4.73217 5.45792 4.66063 5.55037C4.58909 5.64282 4.49439 5.71509 4.38617 5.75982C3.0849 6.26155 2.84682 6.68421 2.77416 6.93413C2.7015 7.18404 2.69553 7.67472 3.5646 8.74161C3.63634 8.83244 3.68183 8.94111 3.69629 9.05616C3.71074 9.17121 3.69362 9.28838 3.64674 9.39533C3.04584 10.7761 3.16246 11.2495 3.29883 11.4857C3.43519 11.7219 3.78684 12.0596 5.2831 12.2296C5.39916 12.2425 5.50919 12.2862 5.6016 12.3563C5.69401 12.4263 5.76537 12.52 5.80817 12.6276C6.32081 13.9121 6.72294 14.1494 6.97827 14.2159C7.23361 14.2824 7.69678 14.2704 8.80126 13.407C8.89362 13.3346 9.00362 13.2881 9.11967 13.2724C9.23572 13.2566 9.35352 13.2722 9.46066 13.3174C10.844 13.8973 11.3248 13.7801 11.5643 13.6418C11.8039 13.5035 12.1457 13.1457 12.3352 11.6578C12.3496 11.5424 12.395 11.4326 12.4667 11.34C12.5384 11.2474 12.6336 11.1753 12.7425 11.1315C14.047 10.6041 14.2818 10.2071 14.3545 9.95722C14.4271 9.7073 14.4202 9.23598 13.564 8.14974C13.4923 8.0589 13.4468 7.95023 13.4324 7.83518C13.4179 7.72013 13.435 7.60296 13.4819 7.49602C14.0828 6.11521 13.9662 5.64183 13.8298 5.40564C13.6934 5.16945 13.3418 4.83177 11.8455 4.66175Z" fill="white"/>
<path id="Vector_2" d="M9.13152 10.1117C9.07223 10.1464 9.00677 10.1692 8.9389 10.1788C8.87103 10.1885 8.80208 10.1847 8.736 10.1678L7.31747 9.7984C7.18392 9.76362 7.07039 9.67741 7.00188 9.55874C6.93336 9.44007 6.91546 9.29865 6.95212 9.16559C6.98878 9.03254 7.077 8.91875 7.19736 8.84926C7.31772 8.77977 7.46037 8.76027 7.59392 8.79505L8.51145 9.03776L9.14938 6.70863C9.16728 6.64261 9.19813 6.58059 9.24015 6.52617C9.28216 6.47175 9.33451 6.42599 9.39418 6.39154C9.45384 6.35709 9.51964 6.33464 9.58778 6.32546C9.65592 6.31629 9.72505 6.32058 9.79118 6.33809C9.85747 6.35506 9.91955 6.38493 9.97385 6.42599C10.0281 6.46705 10.0736 6.51848 10.1076 6.57731C10.1415 6.63613 10.1633 6.7012 10.1717 6.76876C10.1801 6.83631 10.175 6.90501 10.1565 6.9709L9.3778 9.79724C9.35942 9.86293 9.3282 9.92452 9.28593 9.97849C9.24367 10.0325 9.19119 10.0777 9.13152 10.1117Z" fill="#01D972"/>
</g>
</svg>
