<svg width="18" height="18" viewBox="0 0 18 18" fill="none" xmlns="http://www.w3.org/2000/svg">
<g id="File">
<path id="Vector" d="M13.875 6.27755V15C13.8748 15.4973 13.6772 15.9741 13.3256 16.3257C12.974 16.6773 12.4972 16.8749 12 16.875H3C2.50277 16.8749 2.02597 16.6773 1.67437 16.3257C1.32278 15.9741 1.12518 15.4973 1.125 15V3.00005C1.12518 2.50282 1.32278 2.02601 1.67437 1.67442C2.02597 1.32283 2.50277 1.12523 3 1.12505H8.7975C8.8653 1.12444 8.93303 1.12946 9 1.14005C9.43069 1.18557 9.83227 1.37906 10.1363 1.68755L13.3425 4.96505C13.618 5.24718 13.7966 5.60967 13.8525 6.00005C13.8676 6.09178 13.8751 6.18459 13.875 6.27755Z" fill="#F7F6F5"/>
<path id="Vector_2" d="M6.75 4.875H3.75C3.65054 4.875 3.55516 4.83549 3.48484 4.76516C3.41451 4.69484 3.375 4.59946 3.375 4.5C3.375 4.40054 3.41451 4.30516 3.48484 4.23484C3.55516 4.16451 3.65054 4.125 3.75 4.125H6.75C6.84946 4.125 6.94484 4.16451 7.01517 4.23484C7.08549 4.30516 7.125 4.40054 7.125 4.5C7.125 4.59946 7.08549 4.69484 7.01517 4.76516C6.94484 4.83549 6.84946 4.875 6.75 4.875ZM9 7.125H3.75C3.65054 7.125 3.55516 7.08549 3.48484 7.01517C3.41451 6.94484 3.375 6.84946 3.375 6.75C3.375 6.65054 3.41451 6.55516 3.48484 6.48483C3.55516 6.41451 3.65054 6.375 3.75 6.375H9C9.09946 6.375 9.19484 6.41451 9.26517 6.48483C9.33549 6.55516 9.375 6.65054 9.375 6.75C9.375 6.84946 9.33549 6.94484 9.26517 7.01517C9.19484 7.08549 9.09946 7.125 9 7.125ZM9.75 9.375H3.75C3.65054 9.375 3.55516 9.33549 3.48484 9.26517C3.41451 9.19484 3.375 9.09946 3.375 9C3.375 8.90054 3.41451 8.80516 3.48484 8.73483C3.55516 8.66451 3.65054 8.625 3.75 8.625H9.75C9.84946 8.625 9.94484 8.66451 10.0152 8.73483C10.0855 8.80516 10.125 8.90054 10.125 9C10.125 9.09946 10.0855 9.19484 10.0152 9.26517C9.94484 9.33549 9.84946 9.375 9.75 9.375ZM7.5 11.625H3.75C3.65054 11.625 3.55516 11.5855 3.48484 11.5152C3.41451 11.4448 3.375 11.3495 3.375 11.25C3.375 11.1505 3.41451 11.0552 3.48484 10.9848C3.55516 10.9145 3.65054 10.875 3.75 10.875H7.5C7.59946 10.875 7.69484 10.9145 7.76517 10.9848C7.83549 11.0552 7.875 11.1505 7.875 11.25C7.875 11.3495 7.83549 11.4448 7.76517 11.5152C7.69484 11.5855 7.59946 11.625 7.5 11.625ZM7.5 13.875H3.75C3.65054 13.875 3.55516 13.8355 3.48484 13.7652C3.41451 13.6948 3.375 13.5995 3.375 13.5C3.375 13.4005 3.41451 13.3052 3.48484 13.2348C3.55516 13.1645 3.65054 13.125 3.75 13.125H7.5C7.59946 13.125 7.69484 13.1645 7.76517 13.2348C7.83549 13.3052 7.875 13.4005 7.875 13.5C7.875 13.5995 7.83549 13.6948 7.76517 13.7652C7.69484 13.8355 7.59946 13.875 7.5 13.875Z" fill="#007DA1"/>
<path id="Vector_3" d="M13.8525 6.00014H10.875C10.3778 5.99996 9.90097 5.80235 9.54938 5.45076C9.19779 5.09917 9.00018 4.62236 9 4.12514V1.14014C9.4307 1.18565 9.83227 1.37915 10.1363 1.68764L13.3425 4.96514C13.618 5.24727 13.7966 5.60976 13.8525 6.00014ZM16.2971 9.84169C15.1834 9.53374 14.124 9.0557 13.1561 8.42445C13.035 8.34651 12.894 8.30472 12.7499 8.30479C12.6059 8.30486 12.4649 8.3464 12.3439 8.42445C11.3762 9.05564 10.3168 9.53357 9.20325 9.84132C9.03901 9.88042 8.89268 9.97362 8.7878 10.1059C8.68292 10.2382 8.62558 10.402 8.625 10.5708V11.2113C8.62401 12.1375 8.85222 13.0496 9.28928 13.8662C9.72633 14.6828 10.3587 15.3786 11.1299 15.8915L12.3336 16.6939C12.4566 16.7767 12.6015 16.8209 12.7498 16.821C12.898 16.821 13.043 16.7769 13.166 16.6943L14.3701 15.8915C15.1413 15.3786 15.7737 14.6828 16.2107 13.8662C16.6478 13.0496 16.876 12.1375 16.875 11.2113V10.5708C16.8745 10.4021 16.8172 10.2384 16.7124 10.1061C16.6076 9.97385 16.4613 9.88071 16.2971 9.84169Z" fill="#13E4EA"/>
<path id="Vector_4" d="M12.3755 13.5002C12.3262 13.5002 12.2775 13.4906 12.232 13.4717C12.1865 13.4528 12.1451 13.4252 12.1104 13.3903L11.3604 12.6403C11.2911 12.5698 11.2525 12.4747 11.2529 12.3759C11.2534 12.277 11.2929 12.1823 11.3628 12.1124C11.4327 12.0425 11.5273 12.0031 11.6262 12.0026C11.725 12.0022 11.8201 12.0408 11.8906 12.11L12.3755 12.5949L13.6104 11.36C13.6451 11.3248 13.6865 11.2969 13.732 11.2778C13.7776 11.2586 13.8265 11.2487 13.876 11.2485C13.9254 11.2484 13.9744 11.258 14.0201 11.2769C14.0658 11.2957 14.1073 11.3234 14.1423 11.3584C14.1773 11.3933 14.205 11.4349 14.2238 11.4806C14.2426 11.5263 14.2523 11.5752 14.2521 11.6247C14.252 11.6741 14.242 11.723 14.2229 11.7686C14.2038 11.8142 14.1758 11.8556 14.1406 11.8903L12.6406 13.3903C12.6058 13.4252 12.5645 13.4528 12.519 13.4717C12.4735 13.4906 12.4247 13.5002 12.3755 13.5002Z" fill="#F7F6F5"/>
<path id="Vector_5" d="M12 16.875H3C2.5029 16.8744 2.02632 16.6767 1.67482 16.3252C1.32332 15.9737 1.12558 15.4971 1.125 15V3C1.12558 2.5029 1.32332 2.02632 1.67482 1.67482C2.02632 1.32332 2.5029 1.12558 3 1.125H8.7975C9.04732 1.12516 9.2946 1.17508 9.52491 1.27185C9.75523 1.36861 9.96396 1.51029 10.1389 1.6886L13.3407 4.96545C13.6839 5.31592 13.8757 5.7871 13.875 6.27759V9.07141C13.875 9.17087 13.8355 9.26625 13.7652 9.33658C13.6948 9.4069 13.5995 9.44641 13.5 9.44641C13.4005 9.44641 13.3052 9.4069 13.2348 9.33658C13.1645 9.26625 13.125 9.17087 13.125 9.07141V6.27759C13.1254 5.98283 13.0101 5.6997 12.8038 5.48914L9.60205 2.21228C9.49709 2.10542 9.37188 2.02055 9.23373 1.96264C9.09559 1.90472 8.94729 1.87493 8.7975 1.875H3C2.70173 1.87533 2.41577 1.99396 2.20486 2.20486C1.99396 2.41577 1.87533 2.70173 1.875 3V15C1.87533 15.2983 1.99396 15.5842 2.20486 15.7951C2.41577 16.006 2.70173 16.1247 3 16.125H12C12.1413 16.1256 12.2812 16.0983 12.412 16.0448C12.4575 16.026 12.5063 16.0163 12.5555 16.0163C12.6047 16.0163 12.6535 16.026 12.699 16.0449C12.7445 16.0638 12.7858 16.0914 12.8206 16.1263C12.8554 16.1611 12.883 16.2025 12.9018 16.248C12.9206 16.2935 12.9303 16.3422 12.9302 16.3915C12.9302 16.4407 12.9204 16.4895 12.9015 16.535C12.8826 16.5804 12.855 16.6218 12.8201 16.6565C12.7853 16.6913 12.7439 16.7189 12.6984 16.7377C12.4769 16.829 12.2396 16.8757 12 16.875Z" fill="#007DA1"/>
<path id="Vector_6" d="M11.8462 6.00012H10.875C10.3779 5.99954 9.90133 5.80181 9.54982 5.4503C9.19832 5.0988 9.00059 4.62222 9 4.12512V1.61621C9 1.51675 9.03951 1.42137 9.10984 1.35105C9.18016 1.28072 9.27555 1.24121 9.375 1.24121C9.47446 1.24121 9.56984 1.28072 9.64017 1.35105C9.71049 1.42137 9.75 1.51675 9.75 1.61621V4.12512C9.75033 4.42339 9.86896 4.70935 10.0799 4.92026C10.2908 5.13117 10.5767 5.2498 10.875 5.25012H11.8462C11.9456 5.25012 12.041 5.28963 12.1114 5.35996C12.1817 5.43028 12.2212 5.52567 12.2212 5.62512C12.2212 5.72458 12.1817 5.81996 12.1114 5.89029C12.041 5.96061 11.9456 6.00012 11.8462 6.00012ZM12.75 16.8209C12.6017 16.8208 12.4567 16.7766 12.3336 16.6938L11.1299 15.8915C10.3587 15.3786 9.72633 14.6828 9.28927 13.8662C8.85222 13.0496 8.62401 12.1375 8.625 11.2113V10.5708C8.62558 10.402 8.68292 10.2382 8.7878 10.1059C8.89268 9.97361 9.03901 9.88041 9.20325 9.84131C10.3168 9.53355 11.3762 9.05563 12.3439 8.42444C12.4649 8.34638 12.6059 8.30484 12.7499 8.30477C12.894 8.30471 13.035 8.34612 13.1561 8.42406C14.124 9.05531 15.1834 9.53373 16.2971 9.84167C16.4613 9.8807 16.6076 9.97383 16.7124 10.1061C16.8172 10.2384 16.8745 10.402 16.875 10.5708V11.2113C16.876 12.1375 16.6478 13.0496 16.2107 13.8662C15.7737 14.6828 15.1413 15.3786 14.3701 15.8915L13.166 16.6942C13.0429 16.7767 12.8982 16.8208 12.75 16.8209ZM12.7489 9.05395C11.7121 9.73068 10.5763 10.242 9.38233 10.5697L9.375 11.2113C9.37412 12.014 9.57188 12.8045 9.95067 13.5122C10.3295 14.22 10.8775 14.823 11.5459 15.2675L12.75 16.0702L13.9541 15.2675C14.6225 14.823 15.1706 14.22 15.5493 13.5122C15.9281 12.8045 16.1259 12.014 16.125 11.2113V10.5708C14.9282 10.243 13.7896 9.73157 12.7496 9.05468L12.7489 9.05395Z" fill="#007DA1"/>
</g>
</svg>
