<svg width="16" height="18" viewBox="0 0 16 18" fill="none" xmlns="http://www.w3.org/2000/svg">
<g id="Layer 13">
<path id="Vector" d="M14.875 15.75H5.3125V16.3125C5.3125 16.6109 5.19397 16.897 4.983 17.108C4.77202 17.319 4.48587 17.4375 4.1875 17.4375C3.88913 17.4375 3.60298 17.319 3.392 17.108C3.18103 16.897 3.0625 16.6109 3.0625 16.3125V1.6875C3.0625 1.38913 2.94397 1.10298 2.733 0.892005C2.52202 0.681026 2.23587 0.5625 1.9375 0.5625H13.1875C13.6351 0.5625 14.0643 0.74029 14.3807 1.05676C14.6972 1.37322 14.875 1.80245 14.875 2.25V15.75Z" fill="#C7E2FC"/>
<path id="Vector_2" d="M12.9062 3.23438C12.9065 2.3331 12.7931 1.4354 12.5687 0.5625H1.9375C2.23587 0.5625 2.52202 0.681026 2.733 0.892005C2.94397 1.10298 3.0625 1.38913 3.0625 1.6875V14.0062C5.74594 13.7486 8.23828 12.5042 10.0568 10.5142C11.8754 8.52419 12.8907 5.93012 12.9062 3.23438Z" fill="#DBEDFD"/>
<path id="Vector_3" d="M14.875 15.75H5.3125V16.3125C5.3125 16.6109 5.19397 16.897 4.983 17.108C4.77202 17.319 4.48587 17.4375 4.1875 17.4375H14.875C15.1734 17.4375 15.4595 17.319 15.6705 17.108C15.8815 16.897 16 16.6109 16 16.3125V15.75H14.875ZM1.9375 0.5625C2.23587 0.5625 2.52202 0.681026 2.733 0.892005C2.94397 1.10298 3.0625 1.38913 3.0625 1.6875V3.9375H0.8125V1.6875C0.8125 1.38913 0.931026 1.10298 1.142 0.892005C1.35298 0.681026 1.63913 0.5625 1.9375 0.5625Z" fill="#95AABD"/>
<path id="Vector_4" d="M5.3125 5.34375H7V12.0938H5.3125V5.34375Z" fill="#78B75B"/>
<path id="Vector_5" d="M8.125 8.15625H9.8125V12.0938H8.125V8.15625Z" fill="#E0747C"/>
<path id="Vector_6" d="M10.9375 7.03125H12.625V12.0938H10.9375V7.03125Z" fill="#F2C351"/>
<path id="Vector_7" d="M12.2102 7.03125H10.9375V9.42328C11.4608 8.68277 11.8885 7.87905 12.2102 7.03125Z" fill="#F5CF74"/>
<path id="Vector_8" d="M9.8125 8.15625H8.125V12.0938H8.24397C8.80711 11.702 9.33225 11.2583 9.8125 10.7685V8.15625Z" fill="#E69096"/>
</g>
</svg>
