<svg width="24" height="25" viewBox="0 0 24 25" fill="none" xmlns="http://www.w3.org/2000/svg">
<g id="vuesax/outline/user-edit">
<g id="user-edit">
<path id="Vector" d="M12 13.25C8.83 13.25 6.25 10.67 6.25 7.5C6.25 4.33 8.83 1.75 12 1.75C15.17 1.75 17.75 4.33 17.75 7.5C17.75 10.67 15.17 13.25 12 13.25ZM12 3.25C9.66 3.25 7.75 5.16 7.75 7.5C7.75 9.84 9.66 11.75 12 11.75C14.34 11.75 16.25 9.84 16.25 7.5C16.25 5.16 14.34 3.25 12 3.25Z" fill="#856D6D"/>
<path id="Vector_2" d="M15.8196 23.2499C15.4396 23.2499 15.0796 23.1099 14.8196 22.8499C14.5096 22.5399 14.3696 22.0899 14.4396 21.6199L14.6296 20.2699C14.6796 19.9199 14.8896 19.5099 15.1396 19.2499L18.6796 15.7099C20.0996 14.2899 21.3496 15.0999 21.9596 15.7099C22.4796 16.2299 22.7496 16.7899 22.7496 17.3499C22.7496 17.9199 22.4896 18.4499 21.9596 18.9799L18.4195 22.5199C18.1695 22.7699 17.7496 22.9799 17.3996 23.0299L16.0495 23.2198C15.9695 23.2398 15.8996 23.2499 15.8196 23.2499ZM20.3096 16.4199C20.1296 16.4199 19.9696 16.5399 19.7396 16.7699L16.1996 20.3099C16.1696 20.3399 16.1196 20.4399 16.1196 20.4799L15.9396 21.7299L17.1896 21.5499C17.2296 21.5399 17.3295 21.4899 17.3595 21.4599L20.8996 17.9199C21.0596 17.7599 21.2496 17.5299 21.2496 17.3499C21.2496 17.1999 21.1296 16.9899 20.8996 16.7699C20.6596 16.5299 20.4796 16.4199 20.3096 16.4199Z" fill="#856D6D"/>
<path id="Vector_3" d="M20.9206 19.7198C20.8506 19.7198 20.7806 19.7099 20.7206 19.6899C19.4006 19.3199 18.3506 18.2699 17.9806 16.9499C17.8706 16.5499 18.1006 16.1399 18.5006 16.0299C18.9006 15.9199 19.3106 16.1499 19.4206 16.5499C19.6506 17.3699 20.3006 18.0199 21.1206 18.2499C21.5206 18.3599 21.7506 18.7799 21.6406 19.1699C21.5506 19.4999 21.2506 19.7198 20.9206 19.7198Z" fill="#856D6D"/>
<path id="Vector_4" d="M3.41016 23.25C3.00016 23.25 2.66016 22.91 2.66016 22.5C2.66016 18.23 6.85018 14.75 12.0002 14.75C13.0902 14.75 14.1702 14.91 15.1802 15.21C15.5802 15.33 15.8002 15.75 15.6802 16.14C15.5602 16.54 15.1402 16.76 14.7502 16.64C13.8702 16.38 12.9502 16.24 12.0002 16.24C7.68018 16.24 4.16016 19.04 4.16016 22.49C4.16016 22.91 3.82016 23.25 3.41016 23.25Z" fill="#856D6D"/>
</g>
</g>
</svg>
