<svg width="247" height="50" viewBox="0 0 247 50" fill="none" xmlns="http://www.w3.org/2000/svg">
<g id="Frame 112">
<g id="Group">
<path id="Vector" d="M11.2121 25L5.65567 30.6L0 25L5.65567 19.3L11.2121 25ZM24.8056 11.3L34.4301 21L40.0858 15.3L24.8056 0L9.62457 15.3L15.2802 21L24.8056 11.3ZM43.9555 19.3L38.399 25L44.0547 30.7L49.6112 25L43.9555 19.3ZM24.8056 38.7L15.181 29L9.52534 34.7L24.8056 50L39.9866 34.7L34.4301 29L24.8056 38.7ZM24.8056 30.6L30.4613 24.9L24.8056 19.3L19.1499 25L24.8056 30.6ZM83.9421 31.2C83.9421 27.4 81.9576 25.6 78.8818 24.4C80.8662 23.3 82.4538 21.6 82.4538 18.5V18.4C82.4538 14.1 78.981 11.3 73.5238 11.3H60.8233V38.7H73.7222C79.874 38.7 83.9421 36.2 83.9421 31.2ZM76.4012 19.5C76.4012 21.6 74.7144 22.4 72.1346 22.4H66.5782V16.6H72.5315C75.0121 16.6 76.4012 17.6 76.4012 19.5ZM77.9888 30.4C77.9888 32.4 76.4012 33.4 73.8214 33.4H66.6774V27.4H73.623C76.5996 27.4 77.9888 28.5 77.9888 30.4ZM96.4441 38.7V11.3H90.3915V38.7H96.4441ZM128.592 38.7V11.3H122.639V28.2L109.938 11.3H104.382V38.7H110.335V21.3L123.532 38.7H128.592ZM161.732 38.7L150.024 11.1H144.468L132.759 38.7H138.911L141.392 32.5H152.902L155.382 38.7H161.732ZM150.818 27.2H143.575L147.246 18.3L150.818 27.2ZM190.308 38.7V11.3H184.355V28.2L171.655 11.3H166.098V38.7H172.052V21.3L185.248 38.7H190.308ZM221.167 34.3L217.297 30.4C215.114 32.4 213.229 33.6 210.153 33.6C205.489 33.6 202.215 29.7 202.215 25V24.9C202.215 20.2 205.489 16.4 210.153 16.4C212.832 16.4 215.015 17.6 217.098 19.5L220.968 15.1C218.488 12.6 215.412 10.9 210.252 10.9C201.917 10.9 196.063 17.3 196.063 25.1V25C196.063 32.9 202.017 39.1 210.054 39.1C215.213 39.2 218.388 37.3 221.167 34.3ZM246.667 38.7V33.3H231.883V27.5H244.682V22.1H231.883V16.5H246.468V11.1H225.929V38.5L246.667 38.7Z" fill="#F0B90B"/>
</g>
</g>
</svg>
