<svg width="24" height="24" viewBox="0 0 24 24" fill="none" xmlns="http://www.w3.org/2000/svg">
<g id="united-kingdom 1">
<path id="Vector" d="M24 4H0V20.0002H24V4Z" fill="#F0F0F0"/>
<path id="Vector_2" d="M13.5 4H10.5V10.5H0V13.5H10.5V19.9999H13.5V13.5H24V10.5H13.5V4Z" fill="#D80027"/>
<g id="Group">
<path id="Vector_3" d="M18.458 14.7822L23.9993 17.8608V14.7822H18.458Z" fill="#0052B4"/>
<path id="Vector_4" d="M14.6084 14.7822L23.9997 19.9996V18.5243L17.2641 14.7822H14.6084Z" fill="#0052B4"/>
<path id="Vector_5" d="M21.4982 19.9994L14.6084 16.1714V19.9994H21.4982Z" fill="#0052B4"/>
</g>
<path id="Vector_6" d="M14.6084 14.7822L23.9997 19.9996V18.5243L17.2641 14.7822H14.6084Z" fill="#F0F0F0"/>
<path id="Vector_7" d="M14.6084 14.7822L23.9997 19.9996V18.5243L17.2641 14.7822H14.6084Z" fill="#D80027"/>
<g id="Group_2">
<path id="Vector_8" d="M4.23473 14.7822L0 17.1349V14.7822H4.23473Z" fill="#0052B4"/>
<path id="Vector_9" d="M9.39174 15.4458V19.9998H1.19531L9.39174 15.4458Z" fill="#0052B4"/>
</g>
<path id="Vector_10" d="M6.73561 14.7822L0 18.5243V19.9996L9.39131 14.7822H6.73561Z" fill="#D80027"/>
<g id="Group_3">
<path id="Vector_11" d="M5.54133 9.21723L0 6.13867V9.21723H5.54133Z" fill="#0052B4"/>
<path id="Vector_12" d="M9.39131 9.21737L0 4V5.47534L6.73561 9.21737H9.39131Z" fill="#0052B4"/>
<path id="Vector_13" d="M2.50195 4L9.39174 7.828V4H2.50195Z" fill="#0052B4"/>
</g>
<path id="Vector_14" d="M9.39131 9.21737L0 4V5.47534L6.73561 9.21737H9.39131Z" fill="#F0F0F0"/>
<path id="Vector_15" d="M9.39131 9.21737L0 4V5.47534L6.73561 9.21737H9.39131Z" fill="#D80027"/>
<g id="Group_4">
<path id="Vector_16" d="M19.7646 9.2174L23.9994 6.86475V9.2174H19.7646Z" fill="#0052B4"/>
<path id="Vector_17" d="M14.6084 8.55395V4H22.8048L14.6084 8.55395Z" fill="#0052B4"/>
</g>
<path id="Vector_18" d="M17.2641 9.21737L23.9997 5.47534V4L14.6084 9.21737H17.2641Z" fill="#D80027"/>
</g>
</svg>
