<svg width="32" height="32" viewBox="0 0 32 32" fill="none" xmlns="http://www.w3.org/2000/svg">
<g id="Warning" clip-path="url(#clip0_645_14694)">
<g id="Clip path group">
<mask id="mask0_645_14694" style="mask-type:luminance" maskUnits="userSpaceOnUse" x="0" y="0" width="32" height="32">
<g id="a">
<path id="Vector" d="M0 0H32V32H0V0Z" fill="white"/>
</g>
</mask>
<g mask="url(#mask0_645_14694)">
<g id="Group">
<path id="Vector_2" d="M3.07645 30.3159C1.5253 30.3159 0.841506 29.1892 1.55561 27.8123L14.7 2.50287C15.4141 1.12602 16.5847 1.12602 17.2996 2.50287L30.444 27.8123C31.1598 29.1892 30.4752 30.3159 28.9232 30.3159H3.07645Z" fill="#D50900"/>
<path id="Vector_3" d="M14.1213 9.81906C14.1213 8.72264 14.9306 8.0439 16.0009 8.0439C17.046 8.0439 17.8813 8.74874 17.8813 9.81906V19.8721C17.8813 20.9424 17.046 21.6473 16.0009 21.6473C14.9306 21.6473 14.1213 20.9677 14.1213 19.8721V9.81906ZM13.9639 25.2237C13.9648 24.6838 14.1797 24.1663 14.5615 23.7846C14.9434 23.4029 15.461 23.1881 16.0009 23.1875C16.5408 23.1881 17.0584 23.4029 17.4403 23.7846C17.8222 24.1663 18.0371 24.6838 18.038 25.2237C18.0373 25.7637 17.8225 26.2815 17.4406 26.6634C17.0587 27.0452 16.541 27.2601 16.0009 27.2607C15.4609 27.2601 14.9431 27.0452 14.5612 26.6634C14.1794 26.2815 13.9645 25.7637 13.9639 25.2237Z" fill="white"/>
</g>
</g>
</g>
</g>
<defs>
<clipPath id="clip0_645_14694">
<rect width="32" height="32" fill="white"/>
</clipPath>
</defs>
</svg>
