<svg width="34" height="34" viewBox="0 0 34 34" fill="none" xmlns="http://www.w3.org/2000/svg">
<g id="withdraw-option 1">
<g id="_x31_9_Recieve_Money">
<path id="Vector" d="M26.3719 19.1221H7.63971C5.77088 19.1221 4.25586 17.6071 4.25586 15.7383V7.63385C4.25575 5.76502 5.77077 4.25 7.63971 4.25H26.3719C28.2407 4.25 29.7558 5.76502 29.7558 7.63385V15.7383C29.7558 17.6071 28.2407 19.1221 26.3719 19.1221Z" fill="#F9F6C1"/>
<path id="Vector_2" d="M10.622 12.77H9.59375C9.00651 12.77 8.53125 12.2942 8.53125 11.7075C8.53125 11.1208 9.00651 10.645 9.59375 10.645H10.622C11.2093 10.645 11.6845 11.1208 11.6845 11.7075C11.6845 12.2942 11.2093 12.77 10.622 12.77Z" fill="#728B69"/>
<path id="Vector_3" d="M24.4511 12.77H23.4229C22.8356 12.77 22.3604 12.2942 22.3604 11.7075C22.3604 11.1208 22.8356 10.645 23.4229 10.645H24.4511C25.0384 10.645 25.5136 11.1208 25.5136 11.7075C25.5136 12.2942 25.0384 12.77 24.4511 12.77Z" fill="#728B69"/>
<path id="Vector_4" d="M17.0219 14.8515C15.2694 14.8515 13.8438 13.4258 13.8438 11.6733C13.8438 9.92082 15.2694 8.49463 17.0219 8.49463C18.7744 8.49463 20.2001 9.92082 20.2001 11.6733C20.2001 13.4258 18.7744 14.8515 17.0219 14.8515ZM17.0219 10.6196C16.4408 10.6196 15.9688 11.0922 15.9688 11.6733C15.9688 12.2539 16.4408 12.7265 17.0219 12.7265C17.603 12.7265 18.0751 12.2539 18.0751 11.6733C18.0751 11.0922 17.603 10.6196 17.0219 10.6196Z" fill="#728B69"/>
<path id="Vector_5" d="M26.634 19.122H21.2644C20.6772 19.122 20.2019 18.6462 20.2019 18.0595C20.2019 17.4728 20.6772 16.997 21.2644 16.997H26.634C27.1942 16.997 27.6498 16.5415 27.6498 15.9817V7.38788C27.6498 6.82805 27.1943 6.37256 26.634 6.37256H7.40941C6.84915 6.37256 6.39355 6.82805 6.39355 7.38788V15.9818C6.39355 16.5416 6.84905 16.9971 7.40941 16.9971H12.7552C13.3424 16.9971 13.8177 17.4729 13.8177 18.0596C13.8177 18.6463 13.3424 19.1221 12.7552 19.1221H7.40941C5.67764 19.1221 4.26855 17.7136 4.26855 15.9818V7.38788C4.26855 5.65611 5.67764 4.24756 7.40941 4.24756H26.6341C28.3658 4.24756 29.7749 5.65611 29.7749 7.38788V15.9818C29.7748 17.7135 28.3657 19.122 26.634 19.122Z" fill="#728B69"/>
<path id="Vector_6" d="M13.0852 22.6077L16.2727 19.4414C16.3259 19.3883 16.4559 19.2895 16.6234 19.2077C16.7509 19.1652 16.8784 19.1333 17.0165 19.1333C17.1546 19.1333 17.2927 19.1652 17.4096 19.2077C17.4202 19.2077 17.6646 19.3458 17.7602 19.4414L20.9477 22.6183C21.3621 23.0327 21.3621 23.7021 20.9477 24.1164C20.5227 24.5308 19.8534 24.5308 19.439 24.1164L18.079 22.7564V28.6852C18.079 29.2802 17.6115 29.7477 17.0165 29.7477C16.4321 29.7477 15.954 29.2802 15.954 28.6852V22.7564L14.594 24.1164C14.1796 24.5308 13.4996 24.5308 13.0852 24.1164C12.6709 23.7021 12.6708 23.0222 13.0852 22.6077Z" fill="#93C841"/>
</g>
</g>
</svg>
