<?xml version="1.0" encoding="UTF-8"?> <svg xmlns="http://www.w3.org/2000/svg" id="Layer_2" viewBox="0 0 823.65 657.69"><defs><style>.cls-1{fill:#216023;}.cls-2{fill:#fcd10a;}.cls-3{fill:#1d5d1f;}.cls-4{fill:#fdfdfa;}.cls-5{fill:#d3dfd3;}.cls-6{fill:#f9fbf9;}.cls-7{fill:#1b5c1c;}.cls-8{fill:#fbd731;}.cls-9{fill:#fdfefd;}.cls-10{fill:#fcd009;}.cls-11{fill:#c3b723;}.cls-12{fill:#215f1b;}.cls-13{fill:#f8d010;}.cls-14{fill:#fffef9;}.cls-15{fill:#fbd006;}.cls-16{fill:#fbd009;}.cls-17{fill:#1d5d1c;}.cls-18{fill:#f9cf06;}.cls-19{fill:#fbcf06;}.cls-20{fill:#fefefc;}.cls-21{fill:#f8ce06;}.cls-22{fill:#fcfdfc;}.cls-23{fill:#fcd109;}.cls-24{fill:#fffefd;}.cls-25{fill:#1e5d1c;}.cls-26{fill:#f7f9f7;}.cls-27{fill:#1c5d1e;}.cls-28{fill:#e7eee7;}.cls-29{fill:#26611b;}.cls-30{fill:#eff3ef;}.cls-31{fill:#215f1e;}.cls-32{fill:#22601f;}.cls-33{fill:#efcb11;}.cls-34{fill:#225f1b;}.cls-35{fill:#235f1b;}.cls-36{fill:#fefefd;}.cls-37{fill:#facf06;}.cls-38{fill:#fffefc;}.cls-39{fill:#fbfcfb;}.cls-40{fill:#fcd008;}.cls-41{fill:#f8faf8;}.cls-42{fill:#fefefe;}</style></defs><g id="Layer_1-2"><path class="cls-42" d="M115.06,187.11c-4.99-7.92-9.86-15.74-14.74-23.55-5.85-9.36-11.7-18.72-17.59-28.06-4.59-7.28-9.26-14.51-13.86-21.79-6.19-9.79-12.33-19.61-18.52-29.41-9.34-14.78-18.79-29.49-28.04-44.32C15.21,28.6,8.13,17.21,.85,5.94c-.39-.6-.6-1.31-.85-1.89,16.59-.84,33.12-.2,49.64-.68,14.35-.42,28.71,.2,43.04-.41,11.97-.51,23.94,.07,35.89-.37,15.68-.57,31.36-.19,47.04-.47,2.97-.05,5.96-.25,8.95-.35,.77-.03,1.18,.19,1.6,.88,5.3,8.59,10.68,17.13,15.98,25.72,5.08,8.24,10.09,16.52,15.14,24.78,.06,.1,.2,.16,.51,.39,.03-.7,.08-1.27,.09-1.83,0-7.51-.1-15.01,.03-22.52,.12-6.92,1.47-13.49,5.8-19.21,3.8-5.03,8.74-8.25,14.85-9.4,8-1.51,15.51-.09,22.17,4.79,.8,.58,1.09,.56,1.85-.02,5.75-4.29,12.32-5.78,19.36-5.21,4.94,.4,9.51,2.08,13.54,5.02,.68,.5,.92,.74,1.76,.1,5.79-4.41,12.5-5.58,19.58-5.15,.95,.06,1.95,.11,2.82,.44,2.53,.97,5.11,.36,7.65,.37,24.2,.04,48.41-.01,72.61,.06,3.48,.01,6.81-1.13,10.31-.9,28.11,1.83,56.27,.2,84.39,.96,14.5,.39,28.98,.07,43.47,.32,5.51,.1,10.9,.73,15.76,3.62,.71,.43,1.15,.34,1.88-.2,4.04-2.98,8.63-4.48,13.64-4.68,4.56-.18,9.02,.2,13.29,2.08,7.17,3.17,11.72,8.44,13.24,16.17,1.67,8.5,.53,17.11,.84,25.67,.01,.34-.06,.98-.13,.99-2.87,.19-.83,1.92-.62,2.59,1.84,5.86,2.03,11.89,2.05,18.28,3.61-5.86,7.05-11.47,10.51-17.07,4.17-6.74,8.35-13.47,12.53-20.21,5.07-8.18,10.19-16.32,15.16-24.55,.95-1.57,1.79-2.39,3.78-2.31,16.37,.68,32.77,.09,49.14,.58,13.09,.39,26.18-.18,39.26,.37,14.56,.61,29.13-.14,43.67,.46,11.48,.47,22.95,.21,34.42,.27,5.65,.03,11.26,.78,17.16,.44-4.44,6.99-8.78,13.76-13.06,20.56-6.2,9.86-12.34,19.75-18.55,29.61-9.52,15.14-19.06,30.27-28.62,45.39-9.34,14.78-18.77,29.49-28.03,44.32-8.79,14.08-17.61,28.14-26.55,42.12-3.76,5.88-7.35,11.86-11.09,17.74-.62,.97-.39,1.53,.19,2.38,5.89,8.7,11.14,17.78,16.28,26.93,.96,1.72,.71,3.06-.19,4.5-4.72,7.6-9.34,15.27-14.5,22.59-4.75,6.75-9.58,13.44-14.81,19.83-4.55,5.55-9.25,10.97-14.09,16.28-4.25,4.66-8.62,9.19-13.23,13.44-9.18,8.47-18.73,16.51-28.98,23.71-6.61,4.65-13.33,9.12-20.27,13.25-1.2,.72-1.69,1.96-2.33,3-4.02,6.52-8.05,13.02-12.27,19.41-.25,.38-.88,.93-.47,1.42,.44,.53,.99-.03,1.48-.23,14.69-5.95,28.88-12.96,42.93-20.25,6.6-3.43,12.96-7.31,19.41-11.03,7.62-4.4,15.12-8.99,22.68-13.5,5.23-3.12,10.46-6.25,15.69-9.36,.16-.1,.38-.09,.59-.14,.39,.69,.2,1.39,.2,2.06,.01,21.61,.76,43.25-.2,64.81-.94,20.85-.1,41.66-.6,62.48-.03,1.17-.37,1.69-1.5,1.98-2.95,.74-5.83,1.85-8.81,2.32-2.47,.39-2.65,1.58-2.19,3.46,2.88-.39,5.71-.81,8.55-1.17,1.64-.21,3.34-.14,4.92-.56,1.2-.32,1.52-.07,1.53,1.03,0,.42,0,.84,0,1.26,0,20.06-.02,40.13,.04,60.19,0,1.89-.4,2.56-2.43,2.52-19.89-.37-39.78,.72-59.67,.31-3.7-.08-6.95,1.16-10.38,1.97-7.74,1.83-15.39,1.39-22.79-1.57-1.25-.5-2.09,.17-3.14,.14-4.56-.13-9.12,.06-13.68-.08-5.52-.17-11.01,.71-16.53,.44-1.22-.06-2.22,.64-3.31,.96-5.94,1.73-11.75,1.45-17.54-.53-.99-.34-1.99-.43-3.03-.43-10.8,.01-21.61-.14-32.41,.09-3.96,.09-7.93,.33-11.9,.33-1.07,0-1.49,.62-2.01,1.44-7.1,11.3-14.27,22.57-21.38,33.86-8.87,14.1-17.67,28.25-26.57,42.33-9.34,14.79-18.77,29.51-28.12,44.29-3.73,5.89-7.34,11.86-11.07,17.91-1.9-1.62-2.75-3.82-3.97-5.71-4.93-7.62-9.65-15.36-14.48-23.05-6.16-9.81-12.32-19.62-18.52-29.41-9.34-14.77-18.74-29.52-28.07-44.3-7.63-12.09-15.23-24.19-22.77-36.34-.87-1.41-1.69-1.36-3.18-1.21-4.1,.42-8.24,.38-12.35,0-.74-.07-1.5-.21-2.25-.21-11.93-.01-23.85,.06-35.78-.07-2.5-.03-4.65,.99-6.97,1.47-7.79,1.61-15.03,.32-21.89-3.55-2.95-1.67-5.52-3.82-7.97-6.25-5.32,5.66-12.04,8.73-19.56,10.03-7.04,1.22-13.95,.31-20.59-2.29-1.07-.42-1.96-.15-2.92-.16-12.07-.04-24.15,.34-36.2-.13-12.39-.48-24.77-.09-37.15-.29-1.16-.02-1.69-.11-1.69-1.54,.04-67.49,.04-134.98,.04-202.47,0-.14,.04-.28,.08-.55,1.93,.35,3.33,1.73,4.86,2.68,10.77,6.67,21.38,13.6,32.18,20.23,10.62,6.51,21.2,13.13,32.59,18.26,9.98,4.5,19.65,9.69,29.75,13.93,5.76,2.42,11.54,4.8,17.63,6.89-1.56-2.38-3.16-4.74-4.68-7.16-3-4.75-6.04-9.48-8.88-14.33-1.47-2.52-4.03-3.44-6.27-4.73-10.03-5.77-19.55-12.29-28.69-19.34-6.1-4.71-12-9.7-17.68-14.94-5.92-5.46-11.63-11.13-17.16-16.96-6.25-6.58-11.99-13.62-17.6-20.77-7.11-9.06-13.63-18.53-20-28.1-2.29-3.44-4.44-6.98-6.64-10.48-.62-.98-.72-1.87-.09-3.07,5.52-10.51,11.72-20.6,18.47-30.36,.93-1.34,.61-2.21,0-3.19-2.73-4.36-5.54-8.68-8.43-13.13Z"></path><path class="cls-27" d="M754.9,97.67c-22.26,35.33-44.42,70.54-66.63,105.73-.83,1.32-.89,2.14,.06,3.44,6.18,8.51,11.65,17.48,16.71,26.7,.49,.9,.77,1.57,.12,2.63-15.23,25.13-32.96,48.26-54.51,68.35-14.15,13.19-29.51,24.77-46.17,34.61-1.86,1.1-3.28,2.44-4.43,4.29-8.96,14.35-18,28.66-27.01,42.98-.4,.63-.77,1.29-1.24,2.08,5.08,.62,9.24,2.77,13.29,6.48,0-2.32,.24-4.25-.05-6.09-.69-4.4,.95-6.52,5.26-8.14,17.84-6.69,34.94-15.07,51.75-23.99,14.97-7.94,29.43-16.79,43.9-25.59,.54-.33,1.08-.63,1.61-.94,.68,.42,.37,1.05,.37,1.54,.02,15.29,0,30.59,.05,45.88,0,1.38-.35,2.09-1.67,2.68-3.58,1.58-7.07,3.38-10.6,5.08-.72,.35-1.26,.72-1.24,1.7,.06,3.78,.02,7.57,.02,11.66,4.27-1.57,8.35-3.07,12.65-4.66,0,.83,0,1.44,0,2.04,0,14.17-.02,28.34,.03,42.51,0,1.43-.32,2.08-1.82,2.4-3.15,.66-6.23,1.63-9.35,2.39-1.13,.28-1.56,.75-1.54,1.99,.08,5.05,.1,10.1,0,15.15-.03,1.66,.51,1.75,1.94,1.52,3.66-.59,7.37-.95,11.04-1.47,1.34-.19,1.94-.03,1.94,1.61-.07,14.73-.06,29.46,0,44.2,0,1.4-.41,1.72-1.76,1.73-15.5,.12-31,.27-46.5,.51-1.63,.02-2.01-.43-1.93-1.97,.13-2.36,.03-4.74,.03-7.88-5.67,8.63-13.27,12.68-22.89,12.61-9.42-.07-17.23-3.87-23.73-11.49,0,2.62-.11,4.74,.04,6.85,.12,1.75-.26,2.37-2.22,2.34-7.29-.09-14.59,.07-21.88,.13-.77,0-1.51,.07-2.25,.38-7.45,3.13-14.5,2.07-21.26-2.05-.4-.25-.81-.48-1.56-.92,.89,3.04-.85,2.79-2.66,2.79-14.31,.02-28.62,.13-42.93,.12-1.81,0-2.87,.58-3.85,2.14-27.04,43.05-54.13,86.06-81.22,129.07-.33,.53-.69,1.05-1.05,1.61-1.01-.67-1.29-1.82-1.87-2.74-27.09-42.96-54.17-85.92-81.16-128.94-1.16-1.84-2.42-1.34-3.88-1.33-10.73,.05-21.47,.1-32.2,.1-8.21,0-16.41-.08-24.62-.11-.76,0-1.52-.08-2.27,.25-9.74,4.25-20.39,.59-27.06-7.26-1.96-2.3-3.5-4.87-4.93-7.78-4.94,9.91-12.48,15.82-23.46,16.69-10.8,.85-19.52-3.17-26.41-12.26,0,3.12-.06,5.62,.03,8.11,.04,1.2-.35,1.53-1.53,1.51-19.01-.27-38.01-.52-57.02-.73-1.25-.01-1.88-.31-1.66-1.64,.03-.21,0-.42,0-.63,0-59.14,0-118.28,0-177.42v-1.63c.32-.21,.56-.17,.83,0,12.94,8.09,25.93,16.11,38.82,24.3,5.12,3.26,9.57,7.32,12.66,12.91,.66-.86,.39-1.71,.4-2.47,.04-3.87,.02-3.88,3.56-2.11,8.33,4.15,16.68,8.25,25.15,12.1,10.19,4.64,20.56,8.83,30.98,12.92,1.3,.51,1.66,1.12,1.62,2.42-.09,2.87-.03,5.75-.03,8.92,2.28-1.61,4.26-3.34,6.68-4.34,2.41-1,4.95-1.46,7.55-1.74,.01-.95-.61-1.48-1-2.1-8.73-13.88-17.48-27.74-26.2-41.61-.57-.91-1.19-1.67-2.16-2.21-40.79-22.72-73-54.56-98.85-93.12-3.08-4.6-6-9.3-9.07-13.91-.72-1.08-.75-1.86-.12-3.01,5.63-10.27,11.79-20.21,18.79-29.6,.94-1.26,.79-2.06,.02-3.28C94.17,138.57,55.06,76.45,15.94,14.33c-.44-.7-.87-1.42-1.32-2.15,.54-.62,1.2-.32,1.77-.33,44.19-.48,88.38-.94,132.57-1.4,10.03-.1,20.06-.15,30.09-.31,1.52-.02,2.33,.45,3.13,1.75,20.83,33.81,41.74,67.58,62.54,101.4,1.14,1.85,2.02,1.96,3.85,1.17,23.98-10.41,48.95-17.62,74.61-22.45,19.72-3.72,39.63-5.92,59.68-6.97,19.29-1.01,38.57-.95,57.84,.19,34.76,2.06,68.87,7.78,102.06,18.49,10.72,3.46,21.27,7.4,31.52,12.1,1.75,.8,2.35,.26,3.2-1.12,21.16-34.28,42.36-68.53,63.51-102.81,.79-1.29,1.58-1.8,3.12-1.79,25.67,.27,51.35,.44,77.02,.7,28.76,.29,57.51,.65,86.27,.98,.41,0,.82,.05,1.52,.09-18.05,28.68-35.98,57.17-54.01,85.8Z"></path><path class="cls-32" d="M437.61,9.31c2.39,0,4.57,.11,6.73-.04,1.58-.1,2,.37,1.99,1.97-.07,11.43,.01,22.87-.09,34.3-.02,2.03,.37,2.79,2.57,2.72,3.16-.11,3.18,.06,3.61-3.09,1.55-11.32,3.11-22.63,4.6-33.96,.19-1.47,.68-1.92,2.21-1.9,6.66,.1,13.33,.1,19.99,0,1.55-.02,1.99,.47,2.19,1.94,1.23,8.94,2.55,17.86,4.16,26.78,0-4.78,0-9.56,0-14.34,0-4.28,.02-8.56-.01-12.84,0-.97,.07-1.52,1.31-1.5,4.42,.08,8.84,.07,13.26,.01,1.06-.01,1.47,.41,1.72,1.35,.47,1.72,1.04,3.42,1.96,5.08,0-1.71,.02-3.42-.01-5.13-.02-.83,.16-1.31,1.15-1.28,12.62,.32,25.25-.48,37.85,.71,5.86,.55,9.94,3.46,12.01,9.04,.18-.11,.37-.16,.4-.26,3.39-12.15,20.81-13.57,28.66-6.15,2.75,2.6,3.97,5.89,4.4,9.52,.5,4.26,.4,8.54,.45,12.82,.01,1.2-.45,1.39-1.49,1.3-3.21-.29-6.43-.51-9.65-.75-.22,.65,.34,.87,.66,1.14,8.91,7.24,12.19,16.79,11.56,27.97-.15,2.59-.14,5.18-.59,7.75-1.27,7.23-6.99,11.45-14.29,10.37-9.25-1.36-16.01-5.96-19.23-15.06-.01-.03-.13-.03-.2-.04-3.61,6.24-6.57,7.72-13.21,6.62-1.31-.22-2.63-.39-3.94-.64-10.81-2.02-21.67-3.76-32.59-5.06-1.16-.14-1.95-.44-2.12-1.8-.14-1.08-.58-2.13-1.25-3.19,0,1.04-.06,2.08,.02,3.12,.09,1.18-.35,1.35-1.47,1.24-9.41-1-18.83-1.97-28.25-2.82-1.88-.17-2.84-.7-2.6-2.71,.07-.61-.08-1.25-.13-2.01-.77,1.46,.26,3.6-1.17,4.25-1.17,.54-2.87-.09-4.34-.2-11.75-.88-23.53-1.26-35.31-1.64-1.31-.04-1.71-.41-1.6-1.69,.11-1.31,.02-2.64,.02-4.33-4.4,5.62-10.31,6.9-16.62,6.7-6.38-.2-12.17-1.91-15.86-8.6,0,2.47-.06,4.39,.02,6.3,.04,1.11-.35,1.45-1.44,1.47-5.33,.09-10.66,.2-15.99,.4-1.47,.06-1.35-.77-1.35-1.72,0-5.82,0-11.65,0-17.47,0-10.87,.04-21.75-.04-32.62-.01-1.7,.49-2.09,2.11-2.06,4.98,.1,9.96,.09,14.94,0,1.37-.02,1.89,.34,1.76,1.74-.12,1.3-.03,2.63-.03,4.46,4.33-6.22,10.37-7.46,16.87-7.12,6.48,.34,12.52,1.82,15.62,9.14,0-2.46,.07-4.46-.03-6.44-.07-1.32,.25-1.85,1.7-1.78,2.73,.12,5.47,.03,8.42,.03Z"></path><path class="cls-31" d="M296.2,20.54c.71,.48,.55-.23,.6-.42,2.26-7.92,8.8-11.93,17.09-11.84,7.75,.08,13.9,2.98,17.19,10.71,0-2.73,.06-5.45-.03-8.18-.04-1.2,.32-1.54,1.52-1.52,5.19,.06,10.38,.06,15.57,0,1.28-.02,2.01,.22,1.69,1.93,.47-1.95,1.7-1.93,3.11-1.91,5.25,.06,10.51,.03,16.02,.03-1.61,4.77-3.16,9.38-4.7,13.99-1.22,3.64-3.3,7.28-3.37,10.95-.07,3.59,1.92,7.22,3.03,10.83,1.83,6,3.68,12,5.58,18.19-3.45,.2-6.73,.36-10,.59-8.93,.63-17.85,1.27-26.77,1.98-1.29,.1-1.72-.12-1.66-1.48,.11-2.51,.03-5.02,.03-7.51-.49-.12-.53,.26-.6,.46-3.54,9.84-15.73,13.22-23.97,11.15-4.4-1.11-7.37-3.85-9.14-7.97-.24-.56-.48-1.12-.89-2.08-1.31,5.25-3.8,9.32-8.03,12.12-4.6,3.04-9.65,4.4-15.16,3.69-5.03-.65-8.47-3.39-10.44-8.03-.32-.76-.62-1.53-.99-2.44-2.5,10.5-9.81,17.03-20.33,18.31-7.31,.89-12.77-2.96-14.41-10.12-.79-3.44-1.1-6.94-1.11-10.43-.06-11.85-.44-23.7,.27-35.54,.52-8.77,6.2-15.94,13.89-17.39,10.51-1.98,19.58,3.89,21.28,12.44,.05,.26,.25,.48,.41,.79,2.56-8.94,8.03-13.3,16.95-13.58,8.4-.26,14.59,4.07,17.39,12.29Z"></path><path class="cls-42" d="M193.89,153.06c6.96-2.54,13.39-5.95,20.06-8.86,17.64-7.7,35.8-13.66,54.81-16.95,18.8-3.25,37.73-4.48,56.77-3.73,4.84,.19,9.25-1.2,13.81-2.17,14.9-3.15,30-4.06,45.17-3.8,46.47,.8,91.42,9.47,134.7,26.52,10.1,3.98,19.88,8.67,29.37,13.94,1.22,.68,1.56,1.11,.69,2.44-2.83,4.34-5.48,8.8-8.21,13.2-.25,.4-.41,.91-.98,1.1-8.52-8.5-17.97-15.78-28.65-21.45-16.12-8.56-33.26-14.3-50.96-18.49-30.05-7.11-60.53-10.1-91.38-9.16-6.93,.21-13.85,.75-20.78,2.05,2.74,.35,5.48,.7,8.21,1.06,22.19,2.91,44.04,7.38,65.42,14.06,22.88,7.15,44.77,16.49,64.72,29.97,12.88,8.7,24.38,18.87,33.33,31.72,.71,1.01,.95,1.72,.2,2.93-16.92,27.25-33.78,54.55-50.65,81.83-.29,.46-.63,.89-1.04,1.48-4.65-6.47-5.07-13.36-2.71-20.52,2.34-7.11,7.1-12.04,14.68-14.73-6.84-1.95-13.01-1.24-19.02,.94-11.43,4.15-19.49,11.93-22.27,23.83-3.33,14.28-.97,27.58,9.85,38.44,1.06,1.06,1.29,1.75,.42,3.12-4.98,7.87-9.86,15.81-14.73,23.75-.62,1.01-1.18,1.5-2.48,1.27-20.57-3.64-40.84-8.46-60.54-15.48-19.85-7.08-38.86-15.88-56.14-28.11-12.57-8.9-23.84-19.14-32.16-32.27-7.01-11.04-11.39-22.93-11.19-36.2,.09-5.72,1.16-11.26,3.67-16.48,3.31-6.87,6.08-14.09,11.39-19.75,9.25-9.86,20.59-15.95,34.13-17.1,11.79-1,20.08,7.57,19.16,19.38-.78,9.95-5.3,17.41-14.94,21.18-.19,.08-.37,.21-.53,.33-.05,.03-.05,.13-.1,.31,7.06,1.92,13.91,1.01,20.45-1.82,13.81-5.99,21.02-16.81,21.85-31.7,1-18.03-8-30.33-23.19-38.74-10.89-6.02-22.76-8.95-35-10.48-18.75-2.33-37.36-1.46-55.8,2.78-18.46,4.25-35.3,12.04-50.63,23.15-10.09,7.31-19.63,15.2-27.19,25.23-7.97,10.57-12.8,22.6-16.47,35.17-2.5,8.54-4.41,17.22-6.29,25.91-.24,1.09,.14,1.83,.73,2.68,19.71,28.52,46.03,49.31,76.27,65.59,34.08,18.35,70.34,30.68,107.99,39.14,20.05,4.51,40.31,7.76,60.77,9.69,6.7,.63,13.41,1.16,20.11,1.73-.99,3.73-2.23,4.71-5.95,4.75-20.01,.22-39.97-.62-59.87-2.75-39.46-4.23-77.65-13.26-113.61-30.55-34.98-16.81-64.66-40.39-89.55-70.09-10.33-12.32-19.67-25.35-28.28-38.93-.71-1.13-.64-1.9-.02-3.01,19.44-34.72,45.96-62.92,78.69-85.38,28.33-19.44,59.37-33,92.39-42.19,16.14-4.5,32.54-7.81,49.12-10.16,28.97-4.1,58.09-5.31,87.3-4.15,36.42,1.44,72.23,6.68,107.1,17.62,12.16,3.82,24.05,8.34,35.73,13.45,1.98,.86,1.99,1.49,.91,3.19-5.03,7.92-9.95,15.92-14.83,23.94-.74,1.21-1.27,1.38-2.59,.77-33.35-15.2-68.21-25.6-104.18-32.37-21.17-3.99-42.51-6.54-64.02-7.82-18.38-1.09-36.73-1.15-55.09,.14-33.87,2.38-66.95,8.45-98.36,21.88-14.16,6.05-27.48,13.59-39.62,23.33-.06,.21-.08,.3,.03,.36Z"></path><path class="cls-24" d="M473.56,411.28c-7.71,1.25-15.34,1.88-22.97,2.63-3.26,.32-6.52,.58-9.97,.94-.39,2.51-.26,4.95-.27,7.4-.02,13.99,0,27.98-.06,42.18-.05,.41-.07,.63-.1,1-1.15,.95-1.69,.37-1.91-.72-.11-.54-.03-1.12-.03-1.68,0-14.84,0-29.68,0-44.52q0-3.58-3.7-3.48c-10.01,.25-19.83,.5-29.64,.59-1.73,.02-2.05,.55-2.05,2.13,.05,20.55-.05,41.1,.11,61.65,.03,3.39-1.67,6.18-2.06,9.35-.08,.67-.65,.64-1.14,.64-1.05,0-2.1,0-3.29,0,.12,1.23,.95,2.02,1.5,2.93,1.16,1.92,2.26,3.89,3.6,5.67,1.5,1.98,1.42,4.1,1.15,6.63-1.5-1.05-2.81-1.94-4.1-2.87-4.89-3.52-9.75-7.09-14.67-10.56-1.08-.76-1.58-1.52-1.55-2.89,.11-4.13,.04-8.26,.04-12.63,2.16,.86,4.46,.35,6.28,1.86,.55,.46,1.15-.15,1.66-.43,6.75-3.69,9.45-9.59,9.4-17.33-2.91,1.59-5.55,3.26-8.54,4.18-1.6,.49-3.23,.89-4.86,1.29-.82,.2-1.36,.11-1.03-1.01,1.08-3.62,2.1-7.26,3.18-10.88,.08-.28,.18-.56,.67-.78,5.12-2.3,8.42-6.29,10.3-11.52,.17-.48,.29-.95,.13-1.43-1.31-4.17-1.67-8.47-1.61-12.99l-1.92,.85c1.08-3.58,2.02-6.86,3.07-10.1,.45-1.38,.12-1.74-1.34-1.79-14.72-.5-29.41-1.28-44.05-2.97-2.04-.24-3.36-.91-4.46-2.75-4.04-6.8-8.23-13.52-12.48-20.19-.86-1.35-1.02-2.16,.31-3.24,1.01-.83,2-1.88,2.54-3.04,.89-1.94,2.11-2.33,4.11-1.96,2.82,.52,5.69,.77,8.55,1.03,1.36,.13,1.64,.56,1.31,1.94-2.62,10.79,4.02,21.24,14.91,23.39,5.56,1.1,10.65-.32,15.52-3.59-2.14-1.23-4.16-2.26-6.03-3.5-5.63-3.73-10.02-8.47-12.15-15.07-.53-1.64-.17-1.98,1.41-1.74,.96,.15,1.96,.06,2.94,.14,3.21,.28,6.15,.39,9,2.9,5.18,4.56,11.41,7.33,18.65,6.79,1.55-.11,3.08-.3,4.53-.84,1.15-.43,1.72-.08,2.33,.93,2.08,3.49,4.26,6.91,6.54,10.42,1.09-.04,1.25-.93,1.63-1.54,1.67-2.68,3.35-5.35,4.98-8.06,.79-1.31,1.84-2.05,3.49-1.67,7.02,1.62,13.32-.06,19.52-3.61,4.08-2.34,5.52-5.53,5.78-9.86,.4-6.9-.76-13.29-5.53-18.63-1-1.12-1.01-2.17-.23-3.42,3.78-6.08,7.52-12.17,11.31-18.24,.87-1.39,2.07-1.78,3.61-1.4,8.79,2.16,16.1-1.06,22.84-6.31,.63-.49,1.11-1.08,1.26-1.88,1.17-6.07,1.58-12.1-.88-17.99-.85-2.03-2.01-3.86-3.44-5.51-1.11-1.29-1.28-2.57-.38-4.03,3.79-6.15,7.57-12.31,11.34-18.47,.67-1.1,1.51-1.51,2.82-1.14,9.01,2.5,16.5-.85,23.45-6.18,.7-.54,1.17-1.23,1.32-2.09,1.02-6.01,1.43-11.98-.95-17.81-.81-1.97-1.94-3.75-3.37-5.3-1.29-1.42-1.4-2.77-.39-4.36,3.7-5.8,7.2-11.71,10.81-17.56,1.05-1.7,2.12-2.23,4.11-1.71,8.91,2.32,16.16-1.34,22.91-6.62,.51-.4,.8-.99,.93-1.62,1.71-8.47,1.73-16.63-4.51-23.57-1.05-1.17-1.11-2.33-.31-3.64,3.75-6.17,7.51-12.34,11.35-18.46,.8-1.28,1.8-1.76,3.37-1.33,8.97,2.43,16.33-1.07,23.17-6.4,.63-.49,1.01-1.17,1.17-1.95,1.73-8.29,1.43-16.21-4.32-23.09-1.25-1.49-1.39-2.87-.3-4.56,3.77-5.83,7.31-11.81,10.98-17.7,.86-1.38,1.84-1.89,3.5-1.42,6.26,1.78,12.13,.42,17.62-2.68,6.64-3.74,7.28-4.84,7.6-12.44,.25-5.92-1.09-11.4-4.92-16.13-2.01-2.48-1.96-2.53-.24-5.31,3.4-5.49,6.78-10.98,10.17-16.47,1.58-2.56,1.64-2.57,4.55-1.92,8.67,1.92,15.81-1.34,22.39-6.54,.88-.69,1.21-1.68,1.42-2.74,1.67-8.43,1.01-16.36-4.96-23.15-.66-.75-1-1.61-.46-2.5,1.79-3,3.35-6.15,5.86-8.86,5.79-.08,11.45-.07,17.3-.04,.85,0,1.5,0,2.4,0,.25,0,.33,.14,.39,.08,.64-.06,1.22-.05,2.09-.04,.29,0,.38,.12,.44,.07,.99-.04,1.92-.03,3.08-.02,.61,.01,1,.02,1.58,.03,1.41,.34,2.49,.98,3.63,1.51,5.81,2.68,11.56,2.68,17.23-.42,.56-.3,1.15-.47,1.89-.77,5.06-.02,9.96,.01,15.07,.05,.39,.84-.06,1.5-.47,2.15-2.95,4.61-5.75,9.31-8.69,13.92-1.31,2.05-1.81,2.27-4.17,1.45-3.02-1.05-6.15-1.22-9.13-.44-7.78,2.03-8.59,9.49-5.67,15.18,.8,1.56,1.92,2.92,3.17,4.17,1.77,1.78,1.82,2.12,.57,4.16-6.28,10.3-12.63,20.55-19.04,30.78-.88,1.4-1.92,1.83-3.54,1.37-2.69-.76-5.36-1.45-8.26-.91-7.97,1.48-10.78,8.56-6.89,15.76,.87,1.61,2.01,3.04,3.38,4.28,1.26,1.14,1.27,2.29,.38,3.71-6.21,9.93-12.43,19.86-18.53,29.85-1.83,3-1.9,3.03-5.41,2.05-4.48-1.25-8.73-1.25-12.55,1.86-2.72,2.22-3.48,5.23-3.06,8.49,.42,3.29,2.06,6.07,4.37,8.46,2.24,2.32,2.2,2.32,.6,4.96-6.06,9.94-12.31,19.76-18.34,29.73-1.53,2.53-1.84,2.62-4.77,1.72-1.82-.56-3.66-.95-5.58-.93-8.6,.08-13.23,8.03-9.02,15.53,.93,1.65,1.98,3.25,3.41,4.51,1.39,1.23,1.54,2.47,.54,4.06-6.38,10.07-12.6,20.25-18.87,30.38-1.46,2.36-1.61,2.36-4.25,1.54-2.72-.84-5.51-1.26-8.3-.68-7.29,1.5-10.37,8.68-6.61,15.33,.93,1.65,2.07,3.18,3.42,4.52,1.31,1.31,1.32,2.57,.35,4.13-6.31,10.2-12.73,20.33-18.91,30.61-.9,1.5-1.89,2.09-3.61,1.39-2.03-.82-4.18-1.09-6.39-1.06-8.66,.1-13.22,7.84-9.02,15.45,.88,1.6,1.95,3.07,3.22,4.4,1.65,1.72,1.72,2.34,.48,4.44-2.86,4.83-5.92,9.53-8.85,14.32-3.27,5.32-6.63,10.58-9.9,15.89-1.03,1.67-2.24,2.21-4.03,1.55-2.28-.85-4.65-.96-7.05-.88-6.49,.2-10.66,5.63-9.23,11.98,.71,3.12,2.37,5.68,4.58,7.9,1.29,1.3,1.49,2.52,.5,4.11-4.17,6.65-8.27,13.36-12.45,20.01-.31,.49-.66,.9-1.31,1.25Z"></path><path class="cls-40" d="M473.59,411.39c4.34-7.29,8.81-14.57,13.37-21.8,.8-1.28,.88-2.04-.32-3.15-2.45-2.27-4.23-5.01-4.97-8.36-1.41-6.36,2.55-11.92,9.02-12.61,2.98-.32,5.89,.03,8.67,1.15,1.15,.46,1.72,.15,2.35-.87,6.51-10.56,13.06-21.09,19.65-31.6,.7-1.11,.59-1.73-.36-2.61-2.45-2.28-4.33-4.95-5.12-8.28-1.6-6.75,2.58-12.42,9.51-12.94,2.85-.21,5.6,.17,8.24,1.24,1.03,.42,1.56,.24,2.15-.73,6.57-10.69,13.17-21.35,19.81-31.99,.62-1,.45-1.53-.34-2.27-2.28-2.13-4.11-4.6-5.05-7.63-2.18-7.02,2.23-13.32,9.58-13.74,2.7-.15,5.32,.23,7.83,1.22,1.05,.42,1.66,.43,2.35-.7,6.55-10.7,13.16-21.36,19.81-31.99,.64-1.02,.42-1.52-.37-2.24-2.05-1.85-3.69-4.05-4.72-6.63-2.98-7.48,1.6-14.46,9.65-14.78,2.56-.1,5.03,.36,7.4,1.27,1.08,.42,1.67,.4,2.36-.72,6.55-10.7,13.16-21.36,19.81-31.99,.64-1.02,.43-1.53-.37-2.24-1.69-1.5-3.08-3.27-4.09-5.3-1.92-3.89-2.39-7.9,.22-11.57,2.73-3.83,6.8-4.95,11.36-4.44,1.74,.2,3.47,.56,5.09,1.25,1,.43,1.48,.17,2.02-.71,6.62-10.74,13.27-21.46,19.95-32.15,.59-.94,.36-1.42-.35-2.09-1.95-1.84-3.63-3.9-4.64-6.43-3.51-8.81,2.48-15.51,11.35-15.02,1.96,.11,3.91,.5,5.72,1.29,1.11,.48,1.63,.12,2.19-.79,6.59-10.67,13.18-21.34,19.83-31.98,.65-1.05,.3-1.55-.43-2.26-2.98-2.9-5.29-6.17-5.48-10.54-.24-5.64,3.49-10,9.13-10.64,3.05-.35,6.03-.03,8.88,1.12,1.04,.42,1.61,.24,2.2-.74,3.3-5.46,6.66-10.87,10.12-16.44,2.91-.11,5.69-.07,8.66,0,.73,.52,.28,.97,.06,1.32-2.37,3.77-4.59,7.63-7.29,11.34-.18,.25-.41,.24-.45,.43-.01,.04,.05,.07,.1,.07,.28-.01-.08,.06,.14-.28,5.43-4.26,11.07-8.01,16.5-12.05,.39-.29,.87-.44,1.48-.6,12.03-.21,23.93-.13,36.03,.25,.74,.9,.54,1.81,.39,2.7-2.23,12.71-4.57,25.41-6.84,38.11-.06,.35-.12,.69-.23,1.03-.18,.55-.45,1.14-1.09,1.09-.54-.04-.67-.65-.84-1.11-.15-.39-.24-.81-.35-1.21-2.18-8.64-4.32-17.29-6.48-25.93-.21-.86-.57-1.72-.15-2.79-3.37,19.69-7.03,39.16-10.47,58.67-.16,.9-.3,1.8-.55,2.68-.18,.63-.15,1.63-.98,1.61-.77-.02-.86-.99-1.08-1.63-.23-.66-.36-1.35-.54-2.03-2.19-8.7-4.34-17.41-6.56-26.18-2.45,13.72-4.89,27.35-7.35,40.98-1.07,5.94-2.06,11.89-3.22,17.81-.09,.48-.16,.97-.3,1.44-.15,.48-.31,1-.91,1-.58,0-.77-.53-.96-.98-.11-.26-.19-.53-.26-.8-2.29-9.19-4.64-18.36-6.87-27.57-.05-.19-.09-.39,.01-.66-2.42,13.52-4.88,26.96-7.25,40.41-1.11,6.29-2.32,12.55-3.4,18.84-.16,.95-.17,2.4-1.17,2.48-1.11,.09-1.15-1.38-1.38-2.28-2.3-8.97-4.5-17.95-6.82-27.18-1.25,6.76-2.45,13.3-3.61,19.85-2.3,12.98-4.72,25.95-6.98,38.94-.15,.85-.08,2.21-1.07,2.28-1.21,.09-1.26-1.31-1.49-2.22-2.14-8.65-4.41-17.26-6.61-25.9-.19-.74-.25-1.5-.34-2.03,.11,1.41-.36,2.97-.64,4.53-3.2,17.88-6.47,35.75-9.63,53.64-.09,.48-.16,.97-.29,1.44-.25,.92-.17,2.4-1.16,2.47-1.09,.07-1.08-1.41-1.36-2.31-.34-1.07-.56-2.17-.84-3.26-1.97-7.88-3.91-15.76-6-23.96-1.7,9.19-3.29,18.07-4.89,26.95-1.92,10.7-3.85,21.4-5.79,32.1-.14,.77,0,2.01-.98,2.08-1.13,.08-1.2-1.19-1.42-2.03-2.27-8.83-4.44-17.69-6.66-26.54-.14-.54-.27-1.09-.19-1.66-1.85,11.19-3.98,22.33-5.97,33.49-1.45,8.15-2.91,16.3-4.39,24.44-.2,1.1-.3,2.23-.81,3.25-.46,.91-.98,.91-1.47,.02-.41-.75-.56-1.58-.77-2.4-2.18-8.64-4.31-17.29-6.6-26.32-.99,4.75-1.66,9.17-2.46,13.56-2.77,15.11-5.39,30.25-8.23,45.34-.16,.86,.1,2.37-1.11,2.36-1.04,0-1.1-1.46-1.34-2.38-2.2-8.63-4.33-17.28-6.5-25.92-.17-.68-.4-1.35-.26-2.07-2.7,15.26-5.46,30.5-8.2,45.75-.82,4.56-1.58,9.12-2.48,13.67-.05,.28-.07,.56-.14,.83-.18,.73-.24,1.74-1.16,1.76-.8,.01-.87-.98-1.04-1.62-.97-3.66-1.87-7.34-2.78-11.02-1.39-5.65-2.84-11.27-4.29-17.15-3.74,20.77-7.35,41.35-11.17,62.16-1.33-.65-1.52-1.47-1.72-2.24-2.34-9.03-4.42-18.13-6.9-27.12-.16-.57-.09-1.17-.16-1.63-.81,5.44-1.88,10.94-2.86,16.45-1.56,8.7-3.12,17.4-4.7,26.09-.24,1.31-.39,2.64-1.14,3.98-2,1.73-3.94,3.27-5.73,5.17-.46-.09-.67-.38-.76-.72-1.79-6.45-3.48-12.92-4.86-18.91-.35,3.68-1.36,7.8-2.07,11.97-.68,4-1.39,8-2.13,11.99-.13,.69-.28,1.38-.89,2.03-.38-1.28-.82-2.65-.78-4.02,.05-2.04-.75-2.22-2.49-1.82-11.57,2.71-23.2,5.14-34.89,7.31-3.58,.66-7.15,1.34-10.96,1.59-.23-1.2,.74-1.55,1.43-2.05,14.87-10.68,29.7-21.41,44.63-32.11-9.26,1.75-18.41,3.81-27.62,5.57-.86,.16-2.08,.75-2.5-.22-.48-1.1,.85-1.58,1.6-2.12,16.12-11.66,32.24-23.31,48.52-34.99-9.35,1.85-18.53,3.84-27.74,5.65-.89,.17-2.21,.92-2.65-.21-.4-1.02,.96-1.53,1.73-2.09,15.65-11.27,31.26-22.6,46.95-33.82,.45-.32,.9-.65,1.52-1.14-9.08,1.73-17.89,3.59-26.72,5.37-.89,.18-1.77,.46-2.85,.24-.24-.1-.33-.15-.51-.32-.08-.96,.58-1.3,1.14-1.7,15.85-11.48,31.79-22.86,47.67-34.31,.68-.49,1.39-.95,2.29-1.34,.35-.24,.57-.39,.87-.32-.3-.09-.53,.07-.88,.31-9.79,2.19-19.49,4.06-29.16,6.06-.34,.07-.69,.12-1.04,.08-.41-.05-.87-.08-1.03-.56-.13-.39,.19-.64,.43-.89,.53-.56,1.19-.98,1.81-1.43,15.9-11.51,31.87-22.92,48.01-34.64-9.22,1.77-18.11,3.73-27.05,5.42-1.12,.21-2.78,1.12-3.3,0-.56-1.22,1.27-1.75,2.17-2.4,16.08-11.62,32.19-23.2,48.41-34.82-8.49,1.92-16.97,3.35-25.36,5.22-1.36,.3-2.71,.77-4.3,.49-.24-.11-.33-.16-.5-.36,.04-1.29,1.04-1.68,1.82-2.24,15.26-11.09,30.59-22.1,45.94-33.07,.56-.4,1.19-.73,1.74-1.53-6.83,1.39-13.48,2.65-20.1,4.06-2.54,.54-5.1,.95-7.64,1.47-.67,.14-1.55,.39-1.87-.41-.3-.77,.49-1.24,1.04-1.63,4.99-3.63,9.99-7.25,15.02-10.83,10.63-7.56,21.16-15.26,31.78-22.83,.79-.57,1.59-1.12,2.37-1.64-9.43,1.89-18.89,3.79-28.35,5.66-.14,.03-.28,.06-.41,.07-.61,.05-1.4,.35-1.67-.39-.25-.68,.44-1.11,.92-1.51,.54-.45,1.1-.87,1.68-1.27,15.72-11.18,31.29-22.56,46.98-33.77,.17-.12,.36-.22,.53-.51-9.3,1.92-18.53,3.8-27.76,5.67-.34,.07-.68,.17-1.03,.23-.55,.09-1.23,.31-1.53-.28-.37-.72,.3-1.16,.78-1.52,2.31-1.71,4.65-3.38,6.99-5.06,13.96-10.02,27.9-20.07,41.83-30.13,.52-.38,1.06-.68,1.8-.93,.21-.32,.58-.11,.65-.38-.18,.06-.34,.16-.63,.35-8.57,2.14-17.14,3.59-25.64,5.37-1.1,.23-2.18,.53-3.28,.71-.68,.11-1.54,.29-1.87-.48-.31-.76,.41-1.27,.94-1.7,1.04-.83,2.15-1.56,3.23-2.35,14.4-10.45,28.86-20.8,43.28-31.22,.85-.61,1.71-1.22,2.56-1.69-9.24,1.85-18.52,3.86-27.85,5.61-.93,.17-1.9,.66-2.89-.2,1.77-2.44,4.38-3.76,6.69-5.44,14.56-10.62,29.27-21.03,43.94-31.73-9.32,2.03-18.58,3.87-27.83,5.68-2.33,.46-3.8,1.58-5.05,3.59-5.24,8.47-10.65,16.83-15.97,25.25-.45,.71-.89,1.43-1.59,2.15-2.04,4.01-4.61,7.53-6.93,11.2-10.74,16.94-21.53,33.84-32.29,50.76-14.04,22.06-28.07,44.14-42.12,66.2-16.87,26.5-33.67,53.05-50.56,79.55-12.33,19.34-24.63,38.69-36.93,58.05-14.86,23.38-29.75,46.74-44.6,70.12-2.36,3.72-4.39,7.67-7.41,11.11-1.02,.48-1.98,.44-3.08,.49Z"></path><path class="cls-42" d="M259.46,190.28c-9.49,10.89-16.56,22.92-19.71,37-4.32,19.32-.9,37.49,8.96,54.42,11.42,19.6,27.66,34.22,47.77,44.56,18.31,9.41,37.87,15.22,57.95,19.35,22.93,4.71,46.11,7.11,69.53,7.27,2.06,.01,4.08-.87,6.36-.19-1.56,2.55-3.1,5.03-4.6,7.53-.52,.87-1.33,.62-2.06,.62-11.37-.03-22.72-.63-34.02-1.78-16.88-1.72-33.6-4.45-50.14-8.29-26.96-6.26-53.08-14.86-77.62-27.83-16.27-8.6-31.33-18.87-43.68-32.72-9.48-10.64-16.48-22.62-19.26-36.77-3.68-18.75,.2-36.11,10.36-52.04,12.8-20.08,31.13-32.21,54.54-36.57,7.74-1.44,18.91-1.38,25.72-.03-11.12,7.4-21.36,15.45-30.1,25.47Z"></path><path class="cls-20" d="M547.6,395.72c1.01-6.59,2.13-13.22,3.31-19.83,1.67-9.37,3.39-18.74,5.41-28.18,2.67,10.53,5.33,21.05,8,31.58h.32l11.3-63.12h.42c2.63,10.44,5.26,20.89,7.89,31.34l.37,.02c3.79-21.06,7.58-42.13,11.37-63.19l.32-.08c2.65,10.54,5.3,21.08,7.95,31.62l.35-.07c3.76-20.9,7.52-41.8,11.28-62.7l.53-.04c2.59,10.31,5.18,20.62,7.77,30.93l.38,.04c3.79-21.01,7.57-42.01,11.36-63.02l.34-.06c2.63,10.45,5.26,20.91,7.9,31.36l.39-.05c3.76-20.88,7.52-41.75,11.28-62.63l.5-.04c2.61,10.39,5.22,20.78,7.82,31.17h.33c3.8-21.08,7.6-42.17,11.4-63.25l.31-.03c2.65,10.46,5.3,20.92,7.95,31.38l.43-.05c3.76-20.88,7.52-41.76,11.28-62.64l.47-.03c2.61,10.4,5.22,20.79,7.83,31.19h.34c3.8-21.07,7.59-42.15,11.39-63.22h.33c2.61,10.42,5.22,20.84,7.84,31.26h.47c3.76-20.88,7.52-41.77,11.28-62.66l.42-.1c2.64,10.5,5.28,20.99,7.92,31.49l.29-.04c3.8-21.13,7.61-42.27,11.41-63.4l.32,.03,7.87,31.44h.44c2.51-14.09,5.03-28.19,7.57-42.47,7.36-.18,14.7-.18,22.05-.18,.1,1.18-.55,1.71-.93,2.32-76.82,121.98-153.65,243.95-230.45,365.94-.73,1.16-1.59,1.8-2.88,2.16-4.34,1.23-8.37,3.17-12.19,5.81Z"></path><path class="cls-19" d="M176.46,500.04c-.06,1.29-.89,1.09-1.55,1.08-5.26-.03-10.52-.15-15.78-.08-1.8,.03-1.46-1.04-1.46-2.04-.01-16.83,0-33.66-.04-50.49,0-3.22-.18-6.44-.75-9.63-.18-.99-.55-1.9-1.22-2.64-1.01-1.11-2.32-2.41-3.7-2.01-1.14,.33-.47,2.12-.47,3.23-.04,20.2-.02,40.4-.04,60.59,0,2.83,.59,2.86-2.77,2.75-5.12-.17-10.24-.2-15.36-.16-1.57,.01-2.14-.29-2.14-2.04,.05-52.18,.04-104.36,.09-156.53,0-.51-.88-2.73,1.18-1.41,9.68,6.19,19.8,11.68,29.15,18.39,7.83,5.61,11.38,13.72,13.07,22.73,2.35,12.49,2.34,25.09,.63,37.67-.45,3.27-1.55,6.29-5.14,7.57-1.35,.48-2.75,.35-4.13,.51-.19,.69,.43,.84,.76,1.1,6.53,5.11,9.11,12.13,9.35,20.08,.51,17.04,.3,34.08,.31,51.32Z"></path><path class="cls-16" d="M651.35,18.24c-1.59,2.96-3.38,5.88-5.16,8.81-.39,.64-.91,1.17-.11,2,6.21,6.48,6.97,14.35,5.74,22.75-.35,2.39-1.35,4.06-3.37,5.43-5.27,3.57-10.75,6.35-17.34,6-1.39-.07-2.88-.11-4.14-.62-2.04-.83-2.88-.01-3.88,1.66-3.55,5.96-7.27,11.82-10.93,17.71-.48,.77-1.05,1.37-.13,2.35,6.05,6.47,6.86,14.23,5.62,22.58-.39,2.6-1.58,4.24-3.69,5.67-5.1,3.45-10.44,6-16.77,5.82-1.91-.05-3.78-.35-5.58-.94-.91-.3-1.38-.12-1.87,.68-3.99,6.51-8.01,13.01-12.05,19.5-.45,.73-.41,1.21,.17,1.83,6.64,7.17,7.03,15.68,5.19,24.64-.14,.67-.26,1.33-.89,1.82-5.77,4.46-11.9,7.94-19.54,7.61-1.48-.07-2.96-.24-4.34-.73-1.47-.53-2.31-.28-3.17,1.16-3.7,6.2-7.53,12.32-11.33,18.45-.52,.83-.84,1.47,.02,2.37,5.81,6.15,6.58,13.59,5.66,21.57-.37,3.22-1.81,5.26-4.47,7-6.75,4.41-13.8,6.83-21.86,4.37-.88-.27-1.25-.02-1.67,.67-3.99,6.51-7.99,13.02-12.03,19.51-.49,.79-.44,1.32,.2,2.01,6.84,7.32,6.77,16.04,5.01,25.09-.1,.53-.35,.89-.75,1.21-5.87,4.56-12.11,8.15-19.93,7.63-1.62-.11-3.21-.36-4.73-.9-1.01-.35-1.49-.06-2.01,.79-3.94,6.46-7.92,12.9-11.9,19.34-.39,.63-.65,1.13,.02,1.83,6.52,6.84,6.92,15.1,5.5,23.81-.28,1.74-1.1,2.87-2.49,3.86-5.61,3.96-11.5,7.03-18.66,6.43-.84-.07-1.67-.17-2.49-.34-3.49-.7-3.5-.72-5.44,2.42-3.5,5.67-6.99,11.34-10.48,17.01-.39,.63-.94,1.14-.13,1.98,6.35,6.62,6.94,14.64,5.66,23.17-.34,2.29-1.44,3.71-3.28,4.98-5.56,3.84-11.41,6.59-18.39,5.94-.83-.08-1.74-.08-2.47-.41-2.48-1.12-3.73-.05-4.88,2.12-1.61,3.02-3.55,5.88-5.37,8.79-.28,.44-.74,1.48-.93-.22-.61-4.48,1.07-8.01,3.32-11.65,71.39-115.29,142.7-230.62,214.02-345.95,5.38-8.69,10.83-17.34,16.07-26.11,1.21-2.03,2.51-2.97,4.8-2.55,.48,.09,.98,.02,1.67,.06Z"></path><path class="cls-38" d="M597.96,222.88c5.79-.73,11.35-2.2,16.98-3.27,4.19-.79,8.36-1.72,12.54-2.57,.57-.12,1.17-.35,1.99,.08-17.38,12.49-34.64,24.9-51.9,37.31l.12,.34c10.48-2.12,20.96-4.24,31.44-6.35l.24,.42c-17.19,12.4-34.39,24.81-51.58,37.21l.13,.38c10.29-2.04,20.59-4.08,31.06-6.05-2.48,2.66-5.69,4.54-8.67,6.7-14.11,10.23-28.26,20.39-42.47,30.69,4.21-.11,8.31-1.33,12.49-2.14,5.84-1.13,11.66-2.37,17.49-3.54,.44-.09,.92-.31,1.57,.18-17.31,12.47-34.54,24.89-51.78,37.31l.18,.33,31.51-6.42,.17,.43c-17.19,12.39-34.38,24.78-51.58,37.16l.16,.47,31.44-6.36,.2,.33c-15.91,11.45-31.83,22.9-47.8,34.48-.06,.13-.06,.1-.04,.11-.06,.06-.14,.12-.34,.23-1.61,.25-3.09,.45-4.76,.63,4.47-7.43,9.1-14.86,13.79-22.24,68.35-107.49,136.72-214.98,205.08-322.47,.45-.71,.92-1.41,1.58-2.12,.77,.8,1.46,.26,2.09,.13,10-2.01,20-4.04,30.18-5.76-17.18,12.39-34.35,24.77-51.53,37.16l.21,.5c10.22-2.03,20.45-4.06,30.83-6.04-2.77,2.86-6.27,4.93-9.54,7.3-13.62,9.87-27.3,19.67-40.96,29.5-.33,.24-.63,.52-1.46,1.21,11.1-2.26,21.58-4.39,32.06-6.53l.22,.43c-17.22,12.41-34.44,24.82-51.67,37.23l.16,.39c10.51-2.11,21.03-4.22,31.54-6.33l.19,.34-51.7,37.19,.17,.46c10.28-2.06,20.57-4.12,30.85-6.18l.25,.51c-17.01,12.27-34.03,24.54-51.08,36.94-.04,.14-.12,.31-.03,.29Z"></path><path class="cls-9" d="M176.4,30.62c-5.71,7.31-5.55,15.42-3.89,23.78,.1,.5,.35,.91,.75,1.23,5.48,4.33,11.34,7.75,18.64,7.7,1.62-.01,3.32,.03,4.77-.6,2.27-.99,3.14,.12,4.17,1.85,3.53,5.88,7.21,11.68,10.82,17.52,.4,.64,1.18,1.2,.27,2.16-6.12,6.42-7,14.19-5.81,22.53,.36,2.52,1.35,4.32,3.54,5.78,5.48,3.65,11.18,6.44,18,5.83,1.32-.12,2.63-.38,3.93-.67,1.67-.38,3.22,.58,3.58,2.29,.21,.99-.67,.96-1.13,1.18-6.45,3.22-12.83,6.58-19.06,10.2-6.85,3.98-13.48,8.3-20.01,12.76-2.45,1.67-5.57,1.2-8.16,2.48-.52,.26-.75-.49-.99-.88-6.69-10.77-13.36-21.55-20.07-32.31-.51-.82-.42-1.28,.29-1.92,1.84-1.65,3.36-3.56,4.43-5.81,3.95-8.33-1.49-16.31-10.7-15.72-2.04,.13-4.06,.47-5.94,1.25-1.14,.47-1.7,.27-2.33-.77-6.52-10.62-13.08-21.23-19.68-31.8-.64-1.02-.64-1.56,.28-2.44,2.94-2.81,5.24-6.05,5.48-10.32,.33-5.96-3.54-10.38-9.51-10.91-2.99-.26-5.86,.15-8.66,1.23-.52,.2-1.08,.69-1.6-.17-3.42-5.59-6.88-11.16-10.65-17.26,5.1,0,9.69-.01,14.28,.02,.45,0,.94,.26,1.34,.52,7.16,4.59,14.3,4.04,21.41-.09,.88-.51,1.74-.76,2.76-.76,7.65-.07,15.29-.14,22.93-.32,1.57-.04,2.58,.31,3.36,1.79,1.07,2.04,2.23,4.08,3.67,5.87,1.49,1.85,1.4,3.25-.49,4.78Z"></path><path class="cls-19" d="M638.88,410.95c-.02,19.5-.03,38.79-.08,58.07-.02,7.25-.64,14.39-3.54,21.2-3.4,7.96-8.67,13.47-17.84,13.69-9.76,.24-16.98-4.11-21.41-12.82-2.4-4.72-2.95-9.88-3.07-15.11-.46-18.86-.25-37.73-.29-56.6-.02-9.75,.03-19.5-.04-29.25,0-1.47,.39-2.23,1.81-2.8,5.51-2.23,10.99-4.56,16.43-6.98,1.72-.76,2.07-.4,2.06,1.4-.04,28.76-.04,57.51-.02,86.27,0,3.51,.14,7.01,.27,10.51,.03,.9,.21,1.81,.4,2.69,.2,.94,.65,1.73,1.75,1.82,1.19,.09,2.03-.45,2.49-1.54,.62-1.45,.7-3,.74-4.53,.09-3.43,.1-6.87,.1-10.31,0-29.25,.02-58.49-.03-87.74,0-1.56,.46-2.35,1.86-3.01,5.51-2.6,10.99-5.26,16.41-8.03,1.64-.84,2.03-.74,2.02,1.19-.06,13.89-.03,27.77-.03,41.87Z"></path><path class="cls-18" d="M202.69,378.61c1.74,.45,1.57,1.69,1.57,2.9,0,29.11-.01,58.21,0,87.32,0,3.3,.08,6.59,.2,9.89,.04,1.04,.25,2.09,.53,3.1,.31,1.13,1.11,1.73,2.35,1.68,1.2-.05,1.78-.83,2.02-1.82,.44-1.77,.54-3.6,.54-5.43,.02-30.37,.05-60.74,.07-91.11q0-3.18,2.89-2.01c5.25,2.13,10.49,4.3,15.77,6.37,1.16,.46,1.55,1.06,1.55,2.31-.06,27.91-.07,55.83-.13,83.74-.01,5.42-.56,10.74-2.97,15.76-3.87,8.08-9.97,12.65-19.11,12.67-9.43,.02-15.92-4.64-19.98-12.88-2.98-6.04-3.71-12.59-3.77-19.23-.13-14.8-.25-29.6-.29-44.39-.05-18.38-.01-36.75-.01-55.13,0-2.59,0-2.57,2.27-1.5,5.44,2.57,10.89,5.13,16.49,7.76Z"></path><path class="cls-15" d="M671.32,470.37c3.11-.4,6.04-.7,8.94-1.18,1.26-.21,1.57,.12,1.56,1.34-.04,9.54-.04,19.08,0,28.62,0,1.23-.42,1.5-1.57,1.51-10.59,.09-21.18,.22-31.77,.41-1.4,.02-1.74-.41-1.74-1.77,.03-44.97,.03-89.94,.01-134.91,0-.99,.18-1.68,1.14-2.21,10.74-5.93,21.32-12.11,31.84-18.41,.11-.07,.26-.06,.41-.1,.58,.3,.32,.86,.32,1.29,.02,9.4-.01,18.8,.04,28.2,0,1.23-.37,1.87-1.5,2.39-3.5,1.61-6.92,3.38-10.42,4.99-1.16,.53-1.65,1.17-1.64,2.52,.07,8.21,.07,16.42,0,24.62-.01,1.65,.4,1.88,1.9,1.28,3.49-1.4,7.04-2.63,10.77-4.01,0,9.74-.02,19.21,.02,28.67,0,1.02-.47,1.28-1.31,1.49-3.06,.76-6.08,1.64-9.15,2.34-1.57,.36-2.27,.88-2.25,2.74,.13,9.33,.06,18.66,.06,27.99q0,2.85,2.9,2.43c.42-.06,.83-.15,1.43-.25Z"></path><path class="cls-19" d="M585.08,426.94q.01,4.84-4.53,5.88c-4.64,1.06-9.3,2.04-13.92,3.18-1.46,.36-1.82,.04-1.81-1.43,.04-4.91-.03-9.82-.09-14.73-.01-.98-.12-1.96-.24-2.93-.15-1.14-.38-2.38-1.8-2.48-1.32-.1-2.48,.48-3.14,1.72-.95,1.79-1.09,3.77-1.1,5.72-.06,14.94-.11,29.87-.07,44.81,.01,5.46-.38,10.94,.38,16.38,.24,1.71,.59,3.54,2.81,3.55,2.14,.01,2.93-1.57,3.3-3.45,.84-4.23,.66-8.51,.68-12.78,.01-2.31-.07-4.63,.03-6.94,.06-1.39-.38-1.64-1.69-1.39-2.49,.48-2.5,.4-2.5-2.13,0-3.86,.03-7.71-.02-11.57-.02-1.09,.24-1.58,1.41-1.8,6.88-1.28,13.75-2.63,20.62-3.99,1.28-.25,1.71,.09,1.71,1.45-.04,18.65-.03,37.31,0,55.96,0,1.09-.21,1.66-1.48,1.65-3.22-.02-6.45,.03-9.67,.18-1.26,.06-1.74-.44-1.98-1.57-.39-1.83-.88-3.63-1.4-5.77-.63,1.11-1.06,1.9-1.51,2.68-3.55,6.03-9.13,8.27-15.79,6.05-8.2-2.73-12.42-8.95-14.18-17.07-.89-4.13-.89-8.35-.89-12.56,0-12.9,0-25.81,.02-38.71,0-4.56,.04-9.17,1.04-13.61,2.47-10.94,9.11-18.56,19.4-22.96,3.89-1.66,7.97-2.82,12.25-2.37,6.53,.69,11.3,5.36,12.75,12.17,1.31,6.15,1.35,12.39,1.42,18.83Z"></path><path class="cls-19" d="M268.46,439.54c-4.25-.94-4.21-.94-4.26-5.08-.06-4.9,.27-9.82-.41-14.71-.22-1.61-.71-3.01-2.34-3.7-1.67-.71-2.72-.24-3.17,1.52-.25,1.01-.39,2.07-.4,3.12-.21,19.99-.2,39.98,0,59.97,.01,1.18,.22,2.37,.41,3.54,.28,1.64,1.15,2.67,2.95,2.68,1.81,0,2.6-1.08,2.98-2.68,.55-2.34,.59-4.73,.65-7.11,.1-3.86-.06-7.72,.1-11.57,.07-1.72-.66-2.33-2.11-2.27-1.81,.08-2.17-.74-2.12-2.39,.12-3.92,.06-7.86,.02-11.78-.01-1.08,.19-1.41,1.41-1.2,6.84,1.13,13.7,2.15,20.56,3.17,1.2,.18,1.74,.58,1.73,1.97-.06,15.71-.05,31.43,0,47.14,0,1.43-.33,1.97-1.85,1.9-3.08-.14-6.17-.16-9.26-.11-1.19,.02-1.78-.32-2.04-1.51-.37-1.7-.9-3.36-1.36-5.06-.74,.27-.82,.97-1.12,1.5-3.87,6.75-11.03,9.07-18.06,5.68-5.63-2.72-8.96-7.44-10.98-13.23-1.4-4.02-1.99-8.17-2.07-12.39-.36-19.15-.37-38.3,.02-57.45,.07-3.35,.34-6.72,1.05-10.02,1.86-8.64,8.4-13.55,17.07-11.93,12.85,2.39,22.2,9.58,26.55,22.15,2.38,6.89,2.05,14.24,2.01,21.47,0,1.75-1.25,.98-1.93,.87-4.63-.77-9.24-1.64-14.04-2.49Z"></path><path class="cls-19" d="M292.33,479.14c0-22.45,0-44.68,0-66.92,0-2.69,0-2.68,2.5-2.12,8.2,1.83,16.43,3.52,24.59,5.5,12.28,2.99,17.56,9.39,18.34,22,.2,3.14,.16,6.29-.14,9.45-.46,4.96-3.3,7.49-7.9,8.49-.54,.12-1.06,.29-1.87,.51,.59,.28,.92,.46,1.26,.59,6,2.22,9.37,6.53,9.89,12.87,.58,7,.74,14.03-.26,20.99-1.08,7.57-4.56,10.68-12.27,11.29-10.93,.86-21.87,.21-32.81,.35-1.43,.02-1.34-.8-1.34-1.76,.01-7.01,0-14.03,0-21.25Z"></path><path class="cls-22" d="M80.47,101.74C63.28,74.44,46.17,47.26,28.7,19.51c8.22,0,15.85,.02,23.48-.02,1.21,0,1.1,.78,1.24,1.5,1.5,8.27,3,16.54,4.49,24.8,1.01,5.58,2.01,11.16,3.29,16.76l7.91-31.51,.42,.02c3.76,20.87,7.51,41.73,11.27,62.6l.5,.07,7.91-31.31,.29-.03c3.81,21.15,7.61,42.29,11.42,63.44l.31,.02c2.62-10.46,5.25-20.92,7.87-31.38l.45,.04c3.75,20.87,7.51,41.74,11.26,62.61l.47,.06c2.63-10.44,5.25-20.88,7.88-31.33h.28c3.8,21.13,7.61,42.24,11.41,63.36l.31,.02,7.86-31.29,.41-.03c.46,2.42,.94,4.84,1.38,7.27,.83,4.55,1.62,9.1,2.46,13.65,.12,.65,.2,1.18-.33,1.73-4.61,4.78-8.86,9.88-13.29,15.14-19.77-31.39-39.42-62.61-59.17-93.95Z"></path><path class="cls-19" d="M501.92,414.66c6.88-1.47,13.59-2.88,20.29-4.36,1.06-.23,1.52-.11,1.67,1.06,1.38,11.05,2.82,22.09,4.22,33.13,1.65,13.06,3.28,26.12,4.92,39.18,.71,5.63,1.37,11.26,2.13,16.88,.17,1.23-.29,1.4-1.34,1.4-5.89,0-11.78,0-17.67,.1-1.35,.02-1.68-.56-1.74-1.71-.22-4.06-.53-8.11-.68-12.17-.07-1.79-.64-2.37-2.52-2.2-5.03,.47-5.03,.38-5.34,5.47-.18,3.01-.45,6.01-.58,9.02-.07,1.47-.73,1.8-2.11,1.79-5.68-.07-11.36-.09-17.03,.03-1.73,.04-1.96-.59-1.78-2.07,1.21-9.66,2.37-19.32,3.53-28.98,1.35-11.19,2.68-22.39,4.03-33.58,.8-6.67,1.65-13.34,2.35-20.03,.14-1.36,.76-1.75,1.89-1.93,1.87-.3,3.72-.66,5.76-1.02Z"></path><path class="cls-37" d="M447.81,485.88c0-20.76,.02-41.3-.04-61.85,0-1.64,.35-2.36,2.1-2.49,10.13-.75,20.22-1.94,30.28-3.34,1.24-.17,1.59,.18,1.57,1.4-.06,4.63-.05,9.26,0,13.88,.01,1.07-.33,1.43-1.41,1.53-3.56,.32-7.1,.84-10.66,1.13-1.3,.11-1.64,.58-1.63,1.8,.06,4.14,.06,8.27,0,12.41-.02,1.23,.4,1.59,1.59,1.48,3-.3,6.01-.45,9-.78,1.42-.16,2.17-.08,2.11,1.72-.14,4.13-.09,8.27-.02,12.41,.03,1.33-.33,1.82-1.73,1.85-3.15,.08-6.3,.37-9.45,.52-1.15,.05-1.54,.5-1.53,1.68,.06,4.98,.06,9.96,0,14.94-.02,1.31,.43,1.69,1.71,1.63,3.78-.18,7.57-.21,11.35-.4,1.38-.07,1.99,.2,1.96,1.78-.1,4.49-.08,8.98,0,13.46,.02,1.32-.43,1.64-1.69,1.64-10.59-.03-21.18-.03-31.77,.06-1.58,.01-1.82-.58-1.8-1.95,.07-4.77,.03-9.54,.03-14.52Z"></path><path class="cls-19" d="M368.86,432.68c.66-3.26,1.32-6.34,1.88-9.44,.21-1.17,.81-1.4,1.89-1.33,5.25,.33,10.49,.65,15.74,.85,1.79,.07,1.02,1.07,.81,1.8-2.12,7.25-4.29,14.49-6.41,21.75-2.51,8.6-4.96,17.21-7.46,25.81-.28,.96-.37,1.91-.37,2.9,.01,8.48-.03,16.97,.04,25.45,.01,1.46-.36,1.9-1.86,1.87-5.05-.1-10.1-.09-15.14-.02-1.39,.02-1.77-.4-1.76-1.77,.06-8.34-.03-16.69,.05-25.03,.04-4.31-1.62-8.21-2.66-12.25-3.79-14.7-7.7-29.37-11.6-44.16,2-.4,3.76,.23,5.54,.38,3.77,.3,7.52,.83,11.28,1.19,1.2,.12,1.88,.5,2.09,1.8,1.58,9.74,3.39,19.45,4.63,29.31,1.09-6.31,2.18-12.63,3.31-19.12Z"></path><path class="cls-42" d="M614.73,320.42c4.05-6.63,8.09-13.18,12.18-19.69,18.45-29.33,36.92-58.66,55.39-87.98,.33-.52,.69-1.02,1.19-1.74,.45,.62,.81,1.09,1.14,1.58,3.95,5.87,7.68,11.87,11.12,18.06,.47,.84,.75,1.46,.14,2.44-20.94,34.06-46.76,63.62-79.63,86.73-.34,.24-.7,.46-1.2,.71-.14,.02-.33,0-.34-.1Z"></path><path class="cls-19" d="M410.57,499.33c0-24.76,.02-49.3-.04-73.85,0-1.77,.32-2.39,2.26-2.37,5.33,.04,10.66-.11,15.98-.35,1.74-.08,2.07,.49,2.07,2.1-.05,19.71,0,39.42-.07,59.12,0,1.87,.39,2.58,2.39,2.44,2.79-.2,5.61-.06,8.41-.14,1.06-.03,1.49,.27,1.47,1.41-.05,4.42-.06,8.84,0,13.25,.01,1.16-.45,1.4-1.49,1.39-9.82-.02-19.64-.04-29.46,.02-2.5,.01-1.18-1.79-1.52-3.02Z"></path><path class="cls-22" d="M386.27,548.21c.42-1.13,.34-2.25,1.1-3.29,7.15,25.79,14.27,51.44,21.39,77.1l-.41,.16c-.6-.92-1.22-1.83-1.81-2.76-23.18-36.8-46.34-73.6-69.56-110.37-.95-1.5-1.11-2.36,.71-3.01,.38-.14,.68-.49,1.04-.71,.83-.51,1.95-2.4,2.01,1.3,1.12-5.43,4.81-8.88,5.29-13.68,.22-2.15,.74-4.29,.69-6.47-.08-3.48,.8-6.77,2.02-10.05v3.78c0,9.19,.03,18.38-.03,27.56-.01,1.49,.24,2.06,1.92,2.04,4.96-.08,4.93,0,5.78,4.87,1.37,7.72,2.79,15.43,4.22,23.31,.59-.69,.64-1.4,.8-2.06,2.02-8.08,4.02-16.16,6.08-24.23,.19-.75-.07-1.95,1.41-1.92,1.53,.03,1.11,1.29,1.24,2,3.46,19.08,6.87,38.18,10.29,57.27,.02,.1,.13,.19,.43,.59,1.83-7.26,3.59-14.26,5.38-21.44Z"></path><path class="cls-40" d="M411.62,537.28c-.1-2.89-.1-5.66-.09-8.61,1.35-.63,2.56-1.27,3.7-2.1,7.04-5.17,14.14-10.26,21.25-15.33,.69-.49,1.38-.94,2.33-1.25,5.48-.09,10.82-.12,16.36-.11,.85,.86,.56,1.77,.4,2.66-3.33,18.2-6.52,36.43-9.86,54.63-.16,.88-.16,2.26-1.06,2.32-1.15,.07-1.15-1.37-1.38-2.26-1.84-7.2-3.62-14.41-5.44-21.62-.16-.65-.18-1.37-.72-2.05-2.75,9.01-5.35,17.95-8.01,26.88-5.18,17.4-10.33,34.8-15.52,52.2-.26,.86-.42,1.8-1.55,2.15-.43-.84-.29-1.61-.29-2.37,0-15.65,0-31.31,0-47.14-.21-1.66,.67-2.71,1.44-3.78,6.97-9.73,13.86-19.52,21-29.13,1.98-2.67,1.92-5.03,.96-7.79-.31-.88-.81-1.25-1.73-1.08-3.43,.63-6.83,1.36-10.4,2.06,1.02,1.07,2.15,1.66,3.08,2.5,.5,.45,1.3,.89,.9,1.68-.37,.7-1.23,.56-1.91,.46-1.18-.17-2.32-.51-3.49-.76-3.28-.71-6.6-1.19-9.95-2.13Z"></path><path class="cls-20" d="M412.21,624.92c5.44-18.13,10.8-36.1,16.14-54.07,2.71-9.12,5.4-18.25,8.11-27.37,.16-.53,.37-1.03,1-1.62,2.31,9.2,4.62,18.4,6.93,27.59h.35c3.53-19.73,7.07-39.46,10.62-59.36,.58-.2,1.15-.22,1.89-.21,1.09,.74,1.22,1.82,1.47,2.83,1.9,7.6,3.78,15.2,5.81,23.19,1.2-7.18,2.52-13.93,3.69-20.71,.3-1.71,.4-3.48,1.36-5.18,5.36-.11,10.6-.11,16.14-.11-24.43,38.78-48.76,77.42-73.22,116.12-.42-.22-.47-.56-.28-1.09Z"></path><path class="cls-36" d="M411.38,537.23c4.58,.16,8.8,1.52,13.13,2.27,.81,.14,1.61,.27,2.62,.01-1.75-1.31-3.49-2.63-5.61-4.21,4.5-.92,8.67-1.78,12.84-2.63,.78-.16,.93,.43,1.08,.98,.42,1.62,.8,3.26,1.25,4.87,.31,1.09-.45,1.71-.96,2.41-7.89,11.04-15.79,22.07-23.74,33.24-.1,.19-.16,.24-.32,.27-6.61-9.15-12.83-18.48-19.71-27.3-3.32-4.26-4.42-8.16-2.33-13.08,.45-1.07,.67-1.56,2-1.24,3.86,.91,7.76,1.63,12.03,2.5-2.03,1.5-3.81,2.82-5.62,4.27-.05,.21-.08,.28,0,.32,4.52-.61,8.83-1.69,13.34-2.67Z"></path><path class="cls-22" d="M251.77,373.7c-4.56-7.23-9.02-14.33-13.48-21.42,.52-.43,.86-.07,1.22,.09,5.36,2.55,10.8,4.95,16.34,7.08,1.07,.41,1.47,.99,1.65,2.1,.92,5.52,1.94,11.02,2.93,16.53,.07,.4,.05,.86,.65,1.18,1.19-4.81,2.43-9.57,3.53-14.36,.34-1.49,.81-1.61,2.33-1.33,4.5,.82,6.14,3.29,6.72,7.81,1.16,9.01,3.11,17.91,4.72,26.86,.1,.54,.11,1.1,.18,1.95-2.41-1.83-4.52-3.65-6.99-4.94-1.55-.81-3.03-1.85-4.67-2.34-3.16-.93-5.12-2.94-6.72-5.74-2.6-4.55-5.53-8.91-8.42-13.48Z"></path><path class="cls-36" d="M438.74,509.89c-8.27,6.19-16.74,12.34-25.2,18.51-.58,.43-1.1,.56-1.85,.1-7.84-5.63-15.53-11.24-23.23-16.84-1.64-1.19-3.31-2.35-4.95-3.55-.43-.32-.91-.57-1.05-1.23-.6-2.67,.07-3.45,2.67-2.92,5.48,1.11,10.96,2.25,16.45,3.36,.55,.11,1.34,.07,1.26,.79-.23,2.14,1.24,1.7,2.42,1.71,1.96,.02,3.93,0,6.08,.05,.49,.33,.59,.71,.65,1.15,.56-.14,.63-.78,1.21-1.05,8.53-.08,16.93-.1,25.53-.09Z"></path><path class="cls-22" d="M302.04,376.45c7.72,1.56,15.25,3.14,22.8,4.61,2.24,.44,3.74,1.43,4.98,3.46,5.15,8.42,10.51,16.71,15.78,25.06,.39,.61,1.01,1.14,1.01,2.68-17.3-12.43-34.24-24.6-51.18-36.77l.14-.31c2.1,.42,4.19,.83,6.47,1.27Z"></path><path class="cls-22" d="M165.58,125.84c-9.47-6.6-18.8-13.25-28.11-19.93-7.15-5.13-14.29-10.3-21.46-15.57,3.48-.11,6.81,1.02,10.22,1.66,6.59,1.24,13.13,2.72,19.72,3.99,1.17,.23,1.84,.73,2.44,1.68,5.76,9.17,11.55,18.33,17.37,27.63,.02,.25,0,.36-.18,.55Z"></path><path class="cls-39" d="M113.7,54.19c-12.66-9.13-25.19-18.17-37.73-27.21l.17-.44c1.52,.3,3.04,.59,4.56,.9,8.44,1.71,16.88,3.41,25.31,5.12,.76,.15,1.45,.33,1.93,1.08,6.06,9.66,12.15,19.31,17.95,29.3-4.02-2.89-8.05-5.77-12.19-8.75Z"></path><path class="cls-22" d="M145.95,94.36c-5.12-3.07-9.77-6.78-14.6-10.23-11.17-7.97-22.29-16-33.42-24.01-.73-.53-1.45-1.07-2.08-1.93,3,.6,6.01,1.18,9.01,1.79,6.72,1.36,13.42,2.8,20.15,4.06,1.81,.34,2.91,1.16,3.87,2.71,5.65,9.09,11.4,18.12,17.17,27.3,.05,.13-.03,.27-.09,.32Z"></path><path class="cls-22" d="M169.95,131.81c4.15,6.58,8.23,13.01,12.3,19.47,.4,.63,1.3,1.28,.1,2.06-.79,.52-1.34,1.26-2.51,.41-14.61-10.59-29.26-21.12-43.82-32.03,1.22,.19,2.45,.33,3.66,.57,8.77,1.79,17.52,3.68,26.3,5.37,2.41,.47,2.67,2.61,3.97,4.14Z"></path><path class="cls-4" d="M530.98,407.42c1.67-9.36,3.34-18.54,5.02-27.72l.43-.03c1.73,6.95,3.47,13.9,5.24,21.01-1.87,2.66-3.92,5.05-5.54,7.76-1.58,2.64-2.77,5.45-4.12,8.33-.34-3.06-.68-6.11-1.02-9.35Z"></path><path class="cls-2" d="M469.5,509.86c-1.42,9.22-3.05,18.41-4.67,27.6l-.49,.03c-2.3-9.09-4.6-18.18-6.91-27.43,3.94-.19,7.91-.22,12.07-.21Z"></path><path class="cls-26" d="M291.03,389.16c.75,4.23,1.46,8.28,2.23,12.64-2.39-.54-4.63-.93-6.78-1.59-1.55-.47-1.78,.05-1.71,1.42,.09,1.71,.02,3.43,.02,5.42-1.65-1.35-2.23-2.53-1.69-4.49,1.95-7.15,3.67-14.36,5.47-21.54,.13-.53,.1-1.13,.71-1.48,.58,3.17,1.16,6.31,1.77,9.63Z"></path><path class="cls-41" d="M174.12,160.08c-1.52,1.24-2.87,3.24-4.33,3.32-1.43,.08-2.98-1.77-4.44-2.81-3.23-2.3-6.44-4.63-9.51-7.31,6.94,1.41,13.87,2.83,21.23,4.33-1.11,.93-1.97,1.66-2.95,2.47Z"></path><path class="cls-14" d="M717.71,32.12c2.14-4.49,5.12-8.53,7.7-12.97,3.38-.13,6.76-.11,10.31-.07-5.82,4.38-11.82,8.73-18.01,13.04Z"></path><path class="cls-13" d="M701.4,18.68c-4.67,3.91-10.14,4.57-16,3.04-2.31-.6-4.47-1.56-6.46-3.13,7.38-.08,14.82-.01,22.45,.09Z"></path><path class="cls-6" d="M105.93,30.68c-.37,.39-.63,.09-.9-.1-5.17-3.71-10.33-7.42-15.47-11.59,2.87,0,5.74,0,8.6,0,.69,0,.85,.65,1.14,1.1,2.21,3.48,4.41,6.97,6.63,10.58Z"></path><path class="cls-11" d="M434.54,415.12q3.92-.84,3.92,3.19c0,15.03,0,30.07,0,45.1,0,1-.33,2.24,1.55,2.18,.55,.74,.4,1.54,.29,2.46-.63,1.04-.72,2.26-1.96,2.86-.19-2.13-.27-4.3-.28-6.47-.01-15.35,0-30.7,0-46.05q0-3.28-3.52-3.28Z"></path><path class="cls-8" d="M411.53,574.59c.03-.18,.22-.23,.32-.26,.09,16.22,.09,32.48,.09,48.73,0,.48,.08,.97,.25,1.58,.1,.46,.08,.8,.12,1.29,.06,.16,.05,.13,.07,.13-.12,.08-.18,.2-.18,.46-.21,.25-.28,.95-.62,.38-.22-.37-.07-.96-.07-1.44,0-16.9,0-33.79,.03-50.87Z"></path><path class="cls-11" d="M440.33,464.49c-.11-4.49-.17-9.1-.17-13.71,0-11.89,.04-23.78,.17-35.77,.1,16.38,.09,32.87,0,49.48Z"></path><path class="cls-30" d="M438.16,471.12c.62-1.06,1.21-1.94,1.93-2.89,.13,2,.13,4.05,.08,6.28-.35,.89-.91,1.24-1.81,1.31-.18-1.53-.2-3.03-.2-4.71Z"></path><path class="cls-30" d="M385.7,472.96c.67,1.07,1.25,2.02,1.86,3.01-3.94-1.22-5.07-2.94-3.64-5.79,.6,.95,1.15,1.81,1.78,2.78Z"></path><path class="cls-28" d="M324.95,409.09c2.1-.23,4.22,.53,6.4,.94,1.36,.26,.88,1.51,1.54,2.68-2.83-1.42-5.23-2.63-7.95-3.63Z"></path><path class="cls-33" d="M476.42,474.83c.41-.21,.78-.36,1.09-.27,.79,.22,2.22-.94,2.24,1.06,.02,1.55-.29,2.61-2.34,2.25-1.03-.8-1.23-1.78-.98-3.03Z"></path><path class="cls-5" d="M480.57,443.38c-1.78-.04-3.34,.54-5.01,.26,1.09-.98,5-1.63,8.25-1.38-.73,1.37-2.04,.85-3.24,1.12Z"></path><path class="cls-30" d="M440.04,476.13c.15,.38,.25,.66,.22,.92-.1,.7,.49,1.73-.98,1.77-1.58,.04-1.08-1.03-1.1-2.01,.49-.73,1.03-.99,1.86-.68Z"></path><path class="cls-30" d="M476.41,474.67c.31,.95,.55,1.9,.8,3.01-.58,.11-1.41,.75-1.61-.57,.24-.86,.03-1.59,.3-2.35,.23-.1,.33-.11,.51-.1Z"></path><path class="cls-5" d="M326.99,380.66c-1.06-.6-2.01-1.23-3.14-1.96,1.76-.5,2.65,.16,3.26,1.6,.04,.2,.01,.27-.12,.36Z"></path><path class="cls-13" d="M413.16,509.89c-.27,.8-.72,1.57-1.5,2.89-.06-1.26-.08-1.9-.11-2.7,.48-.18,.96-.2,1.62-.19Z"></path><path class="cls-8" d="M440.19,476.05c-.58,.32-1.13,.44-1.82,.58-.16-.17-.19-.36-.18-.68,.58-.48,1.12-.82,1.8-1.21,.17,.34,.2,.73,.2,1.31Z"></path><path class="cls-5" d="M324.71,408.8c.08,.11,.11,.22,.11,.28-.52-.09-1.03-.24-1.56-.4,.47-.41,.92-.21,1.45,.12Z"></path><path class="cls-33" d="M475.89,474.74c.06,.63-.03,1.31-.2,2.09-.15-.62-.3-1.35,.2-2.09Z"></path><path class="cls-13" d="M674.07,18.36c-.09,.04-.18,.04-.24,.03,.05-.02,.23-.06,.24-.03Z"></path><path class="cls-13" d="M671.54,18.32c-.08,.03-.18,.03-.23,.02,.05-.01,.22-.05,.23-.02Z"></path><path class="cls-22" d="M116.02,90.18c-.15-.06-.31-.12-.47-.17,.18-.26,.36-.12,.49,.1-.05,.1-.02,.08-.01,.07Z"></path><path class="cls-22" d="M165.7,125.55c.44,.12,.6,.46,.45,.96-.3-.08-.44-.25-.66-.51-.01-.17,.05-.25,.2-.45Z"></path><path class="cls-13" d="M668.91,18.32s0,.05,.02,.03,0-.04-.02-.03Z"></path><path class="cls-22" d="M166,126.64c.05-.1,.11-.2,.16-.31l.25,.16c-.06,.03-.12,.07-.29,.11-.12,0-.11,.03-.12,.04Z"></path><path class="cls-42" d="M614.88,320.49c-.08,.13-.21,.22-.35,.3,0-.11-.02-.22,.08-.4,.11-.06,.21,.05,.26,.1Z"></path><path class="cls-40" d="M481.47,410.42c-.07-.16,.02-.26,.27-.3,.02,.1-.07,.21-.27,.3Z"></path><path class="cls-22" d="M146.05,94.23c.1,.09,.16,.25,.21,.4-.1,0-.2,0-.33-.11-.03-.11,.07-.23,.12-.29Z"></path><path class="cls-6" d="M105.91,30.84c.08,.07,.27,.16,.26,.17-.11,.26-.23,.12-.29-.1,.07-.1,.04-.08,.03-.07Z"></path><path class="cls-13" d="M677.32,18.42s.06,.06,.04,.06-.06-.07-.04-.06Z"></path><path class="cls-5" d="M327.1,380.49c.11,.09,.14,.25,.16,.4-.1,0-.2,0-.34-.11-.05-.1,.1-.23,.18-.29Z"></path><path class="cls-20" d="M412.26,626.5c-.23-.08-.3-.3,.01-.48,.1,.14,.08,.24-.01,.48Z"></path><path class="cls-19" d="M553.25,30.14c-.04,11.2,.37,22.21-.28,33.2-.07,1.18-.22,2.38-.5,3.53-.74,3-2.97,4.75-6.08,4.83-4.6,.11-9.01-1.2-13.5-1.86-2.84-.41-5.65-1.04-8.48-1.44-1.06-.15-1.39-.51-1.39-1.57,.03-17.73,.03-35.47,0-53.2,0-1.18,.48-1.38,1.5-1.37,6.02,.09,12.05-.12,18.07,.5,6.15,.64,9.95,4.49,10.37,10.67,.15,2.17,.21,4.34,.31,6.71Z"></path><path class="cls-37" d="M572.73,35.48c2.43,2.34,4.77,4.56,7.07,6.83,4.38,4.34,6.58,9.6,6.95,15.76,.24,4.07,.3,8.11-.08,12.18-.68,7.37-5.42,11-12.69,9.61-9.82-1.87-15.53-8.15-16.29-18.06-.2-2.65-.08-5.33-.17-7.99-.04-1.11,.24-1.43,1.43-1.21,3.03,.55,6.08,1,9.15,1.33,1.3,.14,1.62,.66,1.61,1.86-.04,3.01,.03,6.03,.07,9.05,0,.78,.07,1.55,.47,2.24,.45,.78,1.12,1.24,2.05,1.25,1.03,.01,1.61-.65,1.75-1.51,.72-4.47,1.28-9-1.99-12.79-2.19-2.55-4.43-5.12-7.01-7.26-7.48-6.19-8.77-14.36-7.68-23.24,1.39-11.3,13.99-16.5,23.34-9.75,2.79,2.01,4.21,4.78,4.65,8.14,.43,3.28,.41,6.57,.5,9.87,.04,1.36-.41,1.68-1.68,1.55-3.07-.33-6.14-.6-9.21-.81-1.01-.07-1.31-.5-1.3-1.44,.02-2.03-.01-4.07-.06-6.1-.03-1.32-.25-2.73-1.89-2.79-1.61-.06-2.06,1.36-2.21,2.62-.46,3.94-.31,7.75,3.24,10.66Z"></path><path class="cls-19" d="M505.29,31.37c.4,1.33,.76,2.5,1.12,3.68l.34-.06c0-6.72,.1-13.44-.06-20.16-.05-2.17,.56-2.8,2.67-2.62,2.23,.19,4.49,.09,6.73,.03,1.1-.03,1.63,.18,1.63,1.47-.04,17.32-.03,34.65,0,51.97,0,1.17-.27,1.64-1.55,1.44-2.77-.44-5.55-.8-8.33-1.1-1.23-.13-1.74-.68-2.06-1.88-1.88-7.18-3.86-14.33-5.81-21.49-.07-.24-.11-.49-.47-.69,0,6.93-.05,13.85,.03,20.78,.02,1.67-.16,2.37-2.13,1.96-2.46-.51-5-.65-7.51-.85-1.09-.09-1.35-.55-1.35-1.58,.03-16.2,.04-32.4,0-48.61,0-1.3,.53-1.49,1.62-1.47,2.59,.06,5.19,.08,7.78,0,1.21-.04,1.7,.4,2.04,1.54,1.71,5.85,3.5,11.66,5.32,17.65Z"></path><path class="cls-37" d="M483.45,43.96c.84,5.8,1.62,11.42,2.5,17.02,.27,1.7,.16,2.61-2,2.31-3.26-.45-6.55-.65-9.84-.88-.91-.07-1.19-.45-1.23-1.29-.12-2.17-.27-4.34-.47-6.5-.25-2.68-2.38-1.11-3.62-1.51-1.19-.39-1.31,.51-1.37,1.45-.13,1.96-.35,3.91-.52,5.86-.08,.95-.29,1.48-1.52,1.37-3.56-.32-7.13-.5-10.71-.63-1.28-.05-1.41-.46-1.25-1.66,2.09-15.06,4.12-30.12,6.13-45.19,.19-1.41,.55-2.18,2.29-2.13,5.05,.15,10.1,.13,15.15,.04,1.47-.03,1.86,.48,2.05,1.84,1.41,9.91,2.91,19.82,4.4,29.91Z"></path><path class="cls-18" d="M408.99,48.04c.06,1.11,.06,2.03,.21,2.92,.18,1.07,.79,1.77,1.98,1.8,1.1,.03,1.88-.43,2.34-1.44,1.31-2.89,.08-7.55-2.58-9.38-2.6-1.78-5.19-3.61-7.92-5.17-4.9-2.8-6.63-7.15-6.57-12.5,.09-8.44,3.03-11.81,11.42-12.9,4.48-.58,8.8-.03,12.86,2.08,2.27,1.18,3.77,2.92,4.08,5.5,.25,2.08,.35,4.19,.53,6.28,.08,.92-.14,1.43-1.24,1.41-3.23-.06-6.45-.07-9.68-.01-1.09,.02-1.27-.46-1.26-1.39,.01-1.4-.05-2.8-.16-4.2-.09-1-.6-1.73-1.72-1.77-1.11-.04-1.84,.48-2.26,1.52-1.03,2.59,0,6.01,2.41,7.57,3.05,1.98,6.25,3.74,9.22,5.87,3.09,2.21,4.95,5.07,5.42,8.86,.36,2.94,.34,5.88,.06,8.81-.36,3.68-2.49,6.04-5.8,7.33-5.74,2.22-11.5,2.18-17.21-.18-4.84-2-5.83-6.22-6.21-10.8-.46-5.47-.48-5.47,4.91-5.5,1.89,0,3.79,.04,5.68-.05,1.21-.06,1.62,.37,1.54,1.56-.09,1.19-.02,2.38-.02,3.78Z"></path><path class="cls-15" d="M430.66,12.48c3.98-.19,7.83-.18,11.68-.26,1.57-.03,1.18,1.05,1.18,1.87,.02,8.62,.01,17.25,.01,25.87,0,3.08,.08,6.17-.03,9.25-.05,1.43,.47,1.89,1.8,1.78,.49-.04,.98,.02,1.47,.03q4.72,.12,4.72,4.94c0,4.87,0,4.89-4.89,4.75-4.76-.14-9.53-.35-14.29-.48-1.21-.03-1.88-.23-1.87-1.75,.08-15.28,.07-30.56,.22-46Z"></path><path class="cls-37" d="M379.17,54.41c0-13.52,.03-26.83-.03-40.14,0-1.62,.38-2.21,2.08-2.13,3.15,.14,6.3,.08,9.46,.02,1.17-.02,1.58,.33,1.58,1.54-.03,14.92-.03,29.84,0,44.76,0,1.03-.23,1.49-1.38,1.5-3.36,.03-6.72,.13-10.08,.32-1.34,.07-1.72-.4-1.63-1.66,.09-1.32,.02-2.66,.02-4.2Z"></path><path class="cls-30" d="M556.05,41.38c.25-.35,.04-1.32,.29-.87,2.11,3.85,5.39,6.7,8.61,10.11-2.86-.43-5.26-.84-7.68-1.12-1-.12-1.27-.52-1.25-1.46,.06-2.17,.02-4.33,.02-6.65Z"></path><path class="cls-6" d="M425.4,29.44c1.65-.22,2.41,.13,2.25,1.86-.17,1.94-.04,3.91-.2,5.99-1.99-3.24-5.02-5.3-8.25-7.6,2.18-.55,4.11-.1,6.2-.25Z"></path><path class="cls-30" d="M402.08,39.81c-1.94,.14-3.82,.11-5.7,.19-.99,.04-1.35-.29-1.32-1.3,.07-1.88,.02-3.75,.2-5.79,1.52,3.1,4.38,4.76,6.82,6.91Z"></path><path class="cls-37" d="M256.41,70.17c-4.21,6.09-9.86,9.24-17.15,9.2-4.87-.02-8-2.6-9.24-7.3-.67-2.53-.99-5.12-1.04-7.7-.22-12.97-.64-25.95,.25-38.91,.48-6.91,4.76-12.35,10.85-13.7,9.65-2.14,18.34,2.75,19.14,13.09,.33,4.28,.28,8.55,.43,12.82,.04,1.28-.39,1.69-1.62,1.79-3.28,.27-6.56,.63-9.82,1.04-1.33,.17-1.67-.29-1.66-1.58,.05-4.28,0-8.56-.04-12.84,0-.77-.12-1.53-.24-2.29-.15-.93-.69-1.57-1.66-1.61-.98-.05-1.82,.36-2.2,1.31-.42,1.05-.51,2.18-.51,3.31,0,12.28-.01,24.55,0,36.83,0,.84,.11,1.68,.24,2.51,.14,.86,.42,1.68,1.49,1.74,1,.06,1.79-.36,2.27-1.23,.51-.95,.61-2,.61-3.06,.02-3.37,.13-6.74,.03-10.1-.05-1.66,.22-2.49,2.15-2.63,3.28-.25,6.53-.85,9.78-1.34,.79-.12,1.18,.02,1.17,.91-.04,5.05,.09,10.11-1.06,15.07-.38,1.65-1.16,3.15-2.17,4.7Z"></path><path class="cls-37" d="M294.17,44.31c-.1,4.41,.14,8.63-.44,12.81-1.37,9.89-12.53,16.98-22.05,13.94-4.97-1.59-7.06-5.62-7.28-10.31-.58-12.32-.96-24.69,.21-36.98,.81-8.48,7.03-13.12,15.64-12.63,8.28,.47,13.54,5.8,13.79,14.24,.19,6.24,.11,12.48,.15,18.93Z"></path><path class="cls-37" d="M328.98,35.89c-.04,5.61,.08,11.01-.31,16.4-.25,3.53-1.47,6.62-4.07,8.96-5.24,4.73-11.43,6.09-18.18,4.21-4.5-1.25-6.89-4.77-7.22-9.16-.85-11.13-.79-22.3,.02-33.43,.37-5.14,3.38-8.89,8.33-10.65,5.04-1.79,10.09-1.57,14.86,.97,3.73,1.99,5.72,5.25,6.19,9.44,.49,4.33,.34,8.69,.38,13.24Z"></path><path class="cls-21" d="M348.86,48.44c-.5-2.06-.96-3.95-1.48-6.03-.65,.79-.41,1.53-.41,2.2-.02,5.19-.05,10.38,0,15.57,.01,1.32-.35,1.82-1.76,1.87-3.29,.14-6.57,.46-9.85,.77-1.17,.11-1.59-.22-1.59-1.46,.04-15.85,.03-31.7,0-47.55,0-1.16,.32-1.61,1.54-1.58,3.29,.06,6.59,.08,9.89-.03,1.42-.05,1.79,.45,1.77,1.8-.07,4.56-.03,9.12-.03,13.67v2.04l.44,.08c.87-2.83,1.76-5.66,2.62-8.49,.75-2.48,1.5-4.96,2.18-7.46,.31-1.16,.8-1.73,2.14-1.68,2.94,.11,5.89,.1,8.83,0,1.58-.05,1.7,.43,1.23,1.8-2.09,6.02-4.04,12.08-6.13,18.1-.53,1.53-.58,2.9-.08,4.46,2.35,7.33,4.61,14.69,6.89,22.04,.2,.66,.35,1.33,.56,2.13-4.18,.27-8.23,.48-12.28,.8-1.23,.1-1.36-.67-1.57-1.49-.96-3.8-1.93-7.6-2.92-11.57Z"></path><path class="cls-6" d="M250.95,42.9c3.12-.32,6.05-.56,8.96-.94,1.11-.14,1.27,.26,1.31,1.22,.11,2.91,.15,2.93-2.72,3.34-4.16,.59-8.33,1.07-12.47,1.74-1.23,.2-1.4-.15-1.43-1.23-.11-3.54-.15-3.54,3.44-3.91,.91-.09,1.82-.14,2.91-.23Z"></path><path class="cls-1" d="M400.97,200.9c0-4.42,.04-8.62-.02-12.83-.02-1.15,.25-1.57,1.49-1.55,4.91,.07,9.82,.07,14.72,0,1.23-.02,1.51,.39,1.5,1.56-.05,5.68,.02,11.36-.06,17.04-.02,1.44,.33,1.9,1.83,1.88,6.38-.09,12.76,0,19.14-.07,1.55-.02,2.23,.24,2.17,2.04-.14,4.62-.09,9.26-.02,13.88,.02,1.36-.33,1.81-1.75,1.79-6.17-.08-12.34-.03-18.51-.03q-2.83,0-2.83,2.93c0,17.81-.04,35.62,.05,53.43,0,1.95-.57,2.3-2.34,2.25-4.48-.12-8.98-.12-13.46,0-1.6,.04-1.95-.42-1.95-1.98,.06-18.09,0-36.18,.08-54.27,0-1.91-.45-2.45-2.4-2.41-6.31,.13-12.62,0-18.93,.08-1.48,.02-1.89-.4-1.86-1.87,.09-4.7,.1-9.4,0-14.09-.03-1.44,.45-1.75,1.78-1.74,6.52,.06,13.04-.02,19.56,.06,1.51,.02,1.95-.45,1.82-1.89-.12-1.32-.03-2.66-.03-4.2Z"></path><path class="cls-27" d="M193.96,152.99c-.11,.11-.27,.17-.44,.23,.01-.11,.02-.21,.16-.35,.13-.03,.23,.07,.28,.12Z"></path><path class="cls-23" d="M587.47,176.06c7.06-6.79,8.69-15.38,8.86-24.84,5.64,3.23,9.46,7.62,10.47,13.94,1.32,8.23-1.42,14.93-8.49,19.55-6.76,4.42-14.64,4.05-22.14-.95,4.07-2.19,8.01-4.36,11.31-7.7Z"></path><path class="cls-23" d="M639.78,120.98c-4.97,11.57-19.12,15.22-29.54,7.58,13.96-6.23,20.65-16.99,20.1-32.22,6.91,2.86,14.11,12.77,9.44,24.64Z"></path><path class="cls-23" d="M447.47,399.34c8.82-6.37,12.12-15.21,12.22-25.57,0-.66-.39-1.59,.37-1.89,.38-.15,1.12,.41,1.62,.77,8.51,5.95,11.27,15.63,7.07,24.76-4.88,10.63-20.29,14.14-28.96,6.55,2.62-1.37,5.22-2.72,7.68-4.61Z"></path><path class="cls-10" d="M530.2,294.77c-7.61,4.68-14.89,3.79-22.45-.85,6.38-3.14,11.99-6.91,15.66-12.82,3.66-5.89,4.61-12.54,4.66-19.75,5.63,3.26,9.46,7.61,10.47,13.84,1.33,8.1-1.26,14.78-8.34,19.58Z"></path><path class="cls-23" d="M561.82,212.68c.16-2.14,.31-4.1,.48-6.33,6.24,3.61,10.16,8.68,10.64,15.87,.53,7.89-2.66,14.11-9.58,18.06-7.2,4.12-14.23,3.04-21.51-1.47,11.35-5.28,18.74-13.32,19.97-26.13Z"></path><path class="cls-10" d="M657.28,77.56c-5.16-.01-9.35-1.34-12.9-4.1,13.92-6.21,20.62-16.94,20.07-32.13,6.4,1.99,11.73,11.22,10.89,18.68-1.1,9.8-8.2,16.77-18.07,17.55Z"></path><path class="cls-10" d="M483.71,342.56c8.06-6.84,10.16-15.91,10.19-26.16,6.58,3.95,10.39,9.19,10.86,16.68,.48,7.69-3.74,14.58-11.21,18.16-6.18,2.96-14.84,1.93-19.63-2.38,3.45-1.76,6.78-3.65,9.79-6.3Z"></path><path class="cls-38" d="M697.25,64.03c2.88-4.73,5.79-9.43,8.73-14.11,3.17-5.04,6.42-10.04,9.56-15.09,.75-1.2,1.56-1.82,3.05-2.11,9.76-1.89,19.48-3.96,29.22-5.95,.45-.09,.92-.27,1.62,.14-17.32,12.45-34.54,24.82-51.91,37.22-.14,.02-.22-.05-.27-.09Z"></path><path class="cls-38" d="M709.13,90.2c-.07-.28,.12-.32,.33-.31,.05,0,.11,.07,.16,.1-.11,.06-.21,.12-.42,.18-.1,0-.08,.01-.07,.02Z"></path><path class="cls-38" d="M589.15,280.46c-.07-.26,.09-.33,.29-.32,.08,0,.17,.1,.25,.15-.11,.06-.21,.12-.43,.18-.11,0-.11,0-.11,0Z"></path><path class="cls-14" d="M717.59,32.14c-.05,.12-.13,.3-.19,.3-.19-.03-.21-.16,.03-.32,.1-.03,.14,0,.16,.03Z"></path><path class="cls-38" d="M649.6,185.09c0,.08-.04,.13-.08,.13-.04,0-.07-.07-.11-.1,.04-.03,.09-.05,.18-.02Z"></path><path class="cls-35" d="M157.4,406.44c-.17,1.08-.26,1.99-.48,2.87-.44,1.82-1.79,2.12-3.42,1.98-1.68-.15-2.08-1.04-2.07-2.65,.08-9.67,.04-19.34,.04-29.01v-1.91c3.52,1.54,5.37,4.05,5.76,7.56,.78,6.98,.55,13.99,.17,21.17Z"></path><path class="cls-40" d="M598.03,222.83c-.15,.36-.38,.37-.64,.14,.12-.07,.24-.14,.46-.22,.1,0,.16,.05,.18,.08Z"></path><path class="cls-40" d="M537.78,317.91c-.04,.09-.08,.28-.11,.28-.22,0-.24-.09,.04-.23,.09-.02,.07-.04,.06-.05Z"></path><path class="cls-3" d="M196.05,112.42c3.5,7.88,9.84,12.53,17.36,16.26-6.5,4.17-13.14,5.52-20.12,2.12-7.28-3.55-10.95-9.56-10.92-17.69,.03-7.09,4.48-14,10.87-16.85-.02,5.54,.52,10.93,2.8,16.16Z"></path><path class="cls-27" d="M166.19,77.56c-9.31-.88-16.42-7.36-17.73-16.02-1.28-8.43,3.21-17.15,10.7-20.31-.54,15.23,6.06,26.03,20.2,32.27-4.06,2.82-8.28,4.19-13.16,4.05Z"></path><path class="cls-25" d="M312.55,484.56c0-6.85,.07-13.5-.05-20.15-.03-1.85,.61-2.01,2.13-1.67,3.32,.74,4.04,1.47,4.32,4.91,.4,5.03,.42,10.07-.04,15.1-.29,3.18-2.28,4.73-5.43,4.32-1.66-.22-.65-1.52-.94-2.5Z"></path><path class="cls-17" d="M318.03,431.69c1.8,5.15,1.26,10.23,.5,15.28-.26,1.7-4.46,2.75-5.7,1.58-.42-.39-.27-.92-.27-1.39-.01-5.53,.02-11.07-.03-16.6-.01-1.22,.24-1.63,1.53-1.2,1.46,.48,3.04,.66,3.97,2.33Z"></path><path class="cls-12" d="M510.93,447.02c.66,7.38,1.3,14.56,1.97,21.74,.09,.96-.14,1.48-1.19,1.46-.56-.01-1.12,.06-1.68,.08q-4.09,.19-3.72-3.87c.99-10.74,2.09-21.46,3.68-32.18,.31,4.19,.61,8.38,.93,12.76Z"></path><path class="cls-27" d="M398.11,539.83c-.12,.32-.35,.31-.61,.2,.09-.1,.19-.2,.39-.31,.11,0,.18,.07,.22,.11Z"></path><path class="cls-34" d="M540.22,48.52c0,3.36,.06,6.52-.3,9.66-.12,1.03-.35,1.92-1.5,2.28-1.64,.52-2.32,.07-2.32-1.67,0-11.49-.01-22.98,.02-34.48,0-.65-.54-1.75,.56-1.93,1.2-.2,2.43,.1,3.01,1.4,.5,1.11,.5,2.31,.5,3.51,0,7.01,.01,14.01,.02,21.23Z"></path><path class="cls-29" d="M471.27,38.42c.13,1.17,.25,2.14,.36,3.11,.33,2.88,.28,2.83-2.6,2.73-1.59-.05-1.66-.83-1.51-2.01,.71-5.9,1.41-11.8,2.42-17.7,.44,4.56,.88,9.12,1.33,13.87Z"></path><path class="cls-7" d="M281.09,37.57c-.01,6.66-.02,13.11-.04,19.56,0,1.05,.03,2.11-.41,3.1-.37,.85-.96,1.39-1.93,1.32-1.07-.08-1.38-.87-1.42-1.76-.08-1.4-.11-2.8-.11-4.2,0-9.82-.01-19.63,0-29.45,0-1.05,.01-2.11,.17-3.15,.16-1.09,.61-2.07,1.99-1.99,1.27,.08,1.56,1.01,1.66,2.05,.05,.56,.06,1.12,.07,1.68,.01,4.21,.02,8.41,.03,12.83Z"></path><path class="cls-34" d="M315.91,23.45c0,9.78,.01,19.37-.03,28.97,0,1.11-.2,2.23-.41,3.32-.19,.95-.92,1.37-1.85,1.39-1.07,.03-1.47-.65-1.56-1.59-.09-.9-.22-1.81-.23-2.71-.03-9.38-.04-18.76-.02-28.14,0-.9,.18-1.8,.27-2.71,.11-1.13,.73-1.85,1.86-1.9,1.26-.05,1.61,.9,1.76,1.94,.06,.41,.12,.83,.2,1.43Z"></path><path class="cls-22" d="M415.61,208.41c-.24,1.7,.7,1.7,1.78,1.69,6.45-.03,12.91,.03,19.36-.05,1.43-.02,1.97,.29,1.89,1.82-.13,2.66-.13,5.33,0,7.99,.07,1.47-.5,1.7-1.79,1.69-6.38-.06-12.77,.05-19.15-.08-1.84-.04-2.14,.55-2.13,2.22,.06,18.03,.01,36.06,.08,54.09,0,1.81-.35,2.47-2.28,2.32-2.44-.19-4.91-.16-7.36,0-1.68,.1-2.07-.45-2.06-2.08,.06-18.03,0-36.06,.09-54.09,.01-2.1-.57-2.5-2.54-2.46-6.24,.14-12.49,0-18.73,.08-1.44,.02-1.96-.32-1.89-1.84,.13-2.59,.11-5.19,0-7.78-.06-1.45,.35-1.91,1.85-1.89,6.1,.08,12.21,.03,18.31,.03q2.93,0,2.93-3.04c0-5.19,.07-10.38-.04-15.57-.04-1.62,.46-2.02,2-1.94,2.52,.13,5.05,.13,7.57,0,1.6-.08,2.17,.32,2.13,2.05-.12,5.54-.04,11.08-.04,16.83Z"></path></g></svg> 